<svg width="515" height="514" viewBox="0 0 515 514" fill="none" xmlns="http://www.w3.org/2000/svg">
<g filter="url(#filter0_f_2162_42690)">
<path d="M258.534 386.341C326.257 386.341 381.139 331.253 381.139 263.321C381.139 195.389 326.257 140.301 258.534 140.301C190.812 140.301 135.93 195.389 135.93 263.321C135.93 331.253 190.812 386.341 258.534 386.341Z" stroke="#2E39A7" stroke-width="6"/>
</g>
<g filter="url(#filter1_d_2162_42690)">
<path d="M509 262C509 397.86 398.64 508 262.5 508C126.36 508 16 397.86 16 262C16 126.14 126.36 16 262.5 16C398.64 16 509 126.14 509 262Z" stroke="#2E39A7" stroke-width="2" shape-rendering="crispEdges"/>
</g>
<defs>
<filter id="filter0_f_2162_42690" x="122.93" y="127.301" width="271.211" height="272.04" filterUnits="userSpaceOnUse" color-interpolation-filters="sRGB">
<feFlood flood-opacity="0" result="BackgroundImageFix"/>
<feBlend mode="normal" in="SourceGraphic" in2="BackgroundImageFix" result="shape"/>
<feGaussianBlur stdDeviation="5" result="effect1_foregroundBlur_2162_42690"/>
</filter>
<filter id="filter1_d_2162_42690" x="0" y="0" width="515" height="514" filterUnits="userSpaceOnUse" color-interpolation-filters="sRGB">
<feFlood flood-opacity="0" result="BackgroundImageFix"/>
<feColorMatrix in="SourceAlpha" type="matrix" values="0 0 0 0 0 0 0 0 0 0 0 0 0 0 0 0 0 0 127 0" result="hardAlpha"/>
<feOffset dx="-5" dy="-5"/>
<feGaussianBlur stdDeviation="5"/>
<feComposite in2="hardAlpha" operator="out"/>
<feColorMatrix type="matrix" values="0 0 0 0 0.180392 0 0 0 0 0.223529 0 0 0 0 0.654902 0 0 0 1 0"/>
<feBlend mode="normal" in2="BackgroundImageFix" result="effect1_dropShadow_2162_42690"/>
<feBlend mode="normal" in="SourceGraphic" in2="effect1_dropShadow_2162_42690" result="shape"/>
</filter>
</defs>
</svg>
