<svg width="1440" height="320" viewBox="0 0 1440 320" fill="none" xmlns="http://www.w3.org/2000/svg">
<mask id="mask0_184_1102" style="mask-type:alpha" maskUnits="userSpaceOnUse" x="0" y="0" width="1440" height="320">
<rect width="1440" height="320" fill="#D9D9D9"/>
</mask>
<g mask="url(#mask0_184_1102)">
<rect x="-430" width="2329" height="337" fill="#E32B6C"/>
<path d="M387.752 209.809C413.585 209.809 426.117 186.127 426.117 167.695C426.117 149.068 413.585 125.193 387.367 125.193C362.111 125.193 348.424 146.936 348.424 167.113C348.424 189.229 363.282 209.809 387.752 209.809ZM387.174 92.9805C431.124 92.9805 462.541 127.519 462.541 167.501C462.541 207.482 431.316 242.021 386.967 242.021C342.07 242.021 312 206.125 312 169.245C312 159.746 313.348 149.053 317.584 138.569C325.109 119.958 347.269 92.9805 387.174 92.9805Z" fill="white"/>
<path d="M467.947 96.7156H504.012V150.175H544.696V96.7156H580.776V239.009H544.696V182.091H504.012V239.009H467.947V96.7156Z" fill="white"/>
<path d="M729.562 189.607H703.02L729.562 149.989V189.607ZM724.218 96.7156L650.422 207.104H627.668V96.7156H591.555V239.009H669.961L683.701 218.438H729.547V239.009H765.469V96.7156H724.218Z" fill="white"/>
<path d="M994 239.009H961.661V206.309H994V239.009ZM994 196.808H961.661V96.7156H994V196.808Z" fill="white"/>
<path d="M914.728 189.28H887.99L914.728 149.4V189.28ZM835.046 206.893H812.609V95.7741H776.249V239.008H854.718L868.568 218.302H914.728V239.008H950.881V95.7592H909.436L835.046 206.893ZM924.675 73L915.821 86.2093H950.881V73H924.675Z" fill="white"/>
</g>
</svg>
