<svg width="610" height="568" viewBox="0 0 610 568" fill="none" xmlns="http://www.w3.org/2000/svg">
<g filter="url(#filter0_d_156_294)">
<path d="M478 273C478 380.117 388.707 467 278.5 467C168.293 467 79 380.117 79 273C79 165.883 168.293 79 278.5 79C388.707 79 478 165.883 478 273Z" stroke="#D6E05F" stroke-width="2" shape-rendering="crispEdges"/>
</g>
<g filter="url(#filter1_dd_156_294)">
<path d="M541 273C541 414.917 423.495 530 278.5 530C133.505 530 16 414.917 16 273C16 131.083 133.505 16 278.5 16C423.495 16 541 131.083 541 273Z" stroke="#F901FF" stroke-width="2" shape-rendering="crispEdges"/>
</g>
<g filter="url(#filter2_dd_156_294)">
<path d="M415 273C415 346.433 354.132 406 279 406C203.868 406 143 346.433 143 273C143 199.567 203.868 140 279 140C354.132 140 415 199.567 415 273Z" stroke="#2E39A7" stroke-width="2" shape-rendering="crispEdges"/>
</g>
<g filter="url(#filter3_f_156_294)">
<rect x="98" y="221.816" width="87.9402" height="85.8864" rx="42.9432" fill="#2E39A7"/>
<rect x="99" y="222.816" width="85.9402" height="83.8864" rx="41.9432" stroke="#2E39A7" stroke-width="2"/>
</g>
<circle cx="142.301" cy="264.845" r="40.8468" stroke="white" stroke-width="2"/>
<circle cx="142.301" cy="249.878" r="19.4652" stroke="white" stroke-width="2"/>
<path d="M107.785 288.212V288.212C107.785 280.874 113.734 274.925 121.072 274.925H162.766C170.357 274.925 176.511 281.079 176.511 288.67V288.67" stroke="white" stroke-width="2"/>
<g filter="url(#filter4_f_156_294)">
<path fill-rule="evenodd" clip-rule="evenodd" d="M131.798 209H109C106.791 209 105 207.209 105 205V178C105 175.791 106.791 174 109 174H175C177.209 174 179 175.791 179 178V205C179 207.209 177.209 209 175 209H149.696L141.418 216.506C141.037 216.852 140.456 216.852 140.075 216.506L131.798 209Z" fill="#2E39A7"/>
</g>
<g filter="url(#filter5_f_156_294)">
<path fill-rule="evenodd" clip-rule="evenodd" d="M140.381 216.557L149.214 208.547C149.718 208.09 149.606 207.349 149.139 207H174C176.209 207 178 205.209 178 203V176C178 173.791 176.209 172 174 172H108C105.791 172 104 173.791 104 176V203C104 205.209 105.791 207 108 207H130.279C129.812 207.349 129.701 208.09 130.205 208.547L139.037 216.557C139.419 216.903 140 216.903 140.381 216.557Z" fill="#2E39A7"/>
</g>
<path d="M124.686 195.208C121.966 195.208 120.366 193.48 120.366 190.904V183.8H122.094V190.888C122.094 192.552 122.974 193.608 124.686 193.608C126.382 193.608 127.278 192.552 127.278 190.872V183.8H128.99V190.888C128.99 193.464 127.358 195.208 124.686 195.208ZM130.433 195L134.097 189.304L130.625 183.8H132.577L135.137 187.928H135.233L137.809 183.8H139.777L136.289 189.304L139.937 195H137.937L135.217 190.648H135.121L132.433 195H130.433ZM140.932 196.728L145.796 183H147.38L142.516 196.728H140.932ZM153.748 195.208C151.028 195.208 149.428 193.48 149.428 190.904V183.8H151.156V190.888C151.156 192.552 152.036 193.608 153.748 193.608C155.444 193.608 156.34 192.552 156.34 190.872V183.8H158.052V190.888C158.052 193.464 156.42 195.208 153.748 195.208ZM160.76 195V183.8H162.488V195H160.76Z" fill="white"/>
<g filter="url(#filter6_f_156_294)">
<rect x="498" y="227.088" width="87.9402" height="85.8864" rx="42.9432" fill="#F800FF"/>
<rect x="499" y="228.088" width="85.9402" height="83.8864" rx="41.9432" stroke="#E73AF6" stroke-width="2"/>
</g>
<circle cx="542.308" cy="269.755" r="40.8468" stroke="white" stroke-width="2"/>
<circle cx="542.308" cy="254.788" r="19.4652" stroke="white" stroke-width="2"/>
<path d="M507.792 293.122V293.122C507.792 285.784 513.741 279.835 521.08 279.835H562.774C570.365 279.835 576.519 285.989 576.519 293.58V293.58" stroke="white" stroke-width="2"/>
<g filter="url(#filter7_f_156_294)">
<path fill-rule="evenodd" clip-rule="evenodd" d="M486.047 178C483.837 178 482.047 179.791 482.047 182V209.065C482.047 211.274 483.837 213.065 486.047 213.065H535.997C535.823 213.384 535.818 213.793 536.063 214.131L541.542 221.68C541.945 222.234 542.777 222.221 543.172 221.654L548.547 213.935C548.74 213.659 548.771 213.342 548.684 213.065H598C600.209 213.065 602 211.274 602 209.065V182C602 179.791 600.209 178 598 178H486.047Z" fill="#F800FF"/>
</g>
<g filter="url(#filter8_f_156_294)">
<path fill-rule="evenodd" clip-rule="evenodd" d="M486 178C483.791 178 482 179.791 482 182V209.065C482 211.274 483.791 213.065 486 213.065H535.957C535.981 213.113 536.01 213.159 536.043 213.205L541.54 220.725C541.943 221.278 542.776 221.26 543.169 220.691L548.444 213.065H597.953C600.163 213.065 601.953 211.274 601.953 209.065V182C601.953 179.791 600.163 178 597.953 178H486Z" fill="#F800FF"/>
</g>
<path d="M501.822 200V188.8H505.374C508.942 188.8 511.038 191.12 511.038 194.384C511.038 197.856 508.942 200 505.374 200H501.822ZM503.55 198.496H505.342C507.646 198.496 509.278 197.104 509.278 194.384C509.278 191.776 507.678 190.32 505.342 190.32H503.55V198.496ZM516.717 200.208C514.205 200.208 512.509 198.352 512.509 195.84C512.509 193.184 514.301 191.424 516.685 191.424C519.293 191.424 520.781 193.344 520.781 195.728V196.352H514.189C514.253 197.808 515.229 198.8 516.765 198.8C517.821 198.8 518.733 198.288 519.069 197.472H520.701C520.269 199.088 518.781 200.208 516.717 200.208ZM514.221 195.056H519.117C519.005 193.648 517.981 192.832 516.685 192.832C515.405 192.832 514.349 193.744 514.221 195.056ZM525.7 200.208C523.572 200.208 522.452 199.136 522.34 197.52H523.924C524.036 198.384 524.66 198.832 525.748 198.832C526.852 198.832 527.46 198.336 527.46 197.6C527.46 195.552 522.564 197.28 522.564 193.872C522.564 192.464 523.812 191.424 525.732 191.424C527.412 191.424 528.724 192.336 528.852 193.936H527.316C527.22 193.232 526.676 192.768 525.668 192.768C524.724 192.768 524.132 193.216 524.132 193.84C524.132 195.696 529.092 193.968 529.092 197.52C529.092 199.104 527.796 200.208 525.7 200.208ZM534.776 200.208C532.376 200.208 530.712 198.432 530.712 195.84C530.712 193.248 532.36 191.424 534.696 191.424C536.296 191.424 537.16 192.416 537.432 192.848H537.544V191.632H539.224V200H537.576V198.816H537.48C537.256 199.136 536.44 200.208 534.776 200.208ZM535.016 198.688C536.616 198.688 537.592 197.408 537.592 195.824C537.592 194.016 536.472 192.96 535 192.96C533.48 192.96 532.424 194.144 532.424 195.824C532.424 197.568 533.48 198.688 535.016 198.688ZM541.648 200V191.632H543.264V193.088H543.376C543.632 192.416 544.432 191.616 545.616 191.616H546.352V193.248H545.568C544.144 193.248 543.328 194.32 543.328 195.872V200H541.648ZM548.289 200V191.632H549.905V193.088H550.017C550.273 192.416 551.073 191.616 552.257 191.616H552.993V193.248H552.209C550.785 193.248 549.969 194.32 549.969 195.872V200H548.289ZM558.456 200.208C555.88 200.208 554.04 198.336 554.04 195.824C554.04 193.312 555.896 191.424 558.472 191.424C561.048 191.424 562.872 193.328 562.872 195.824C562.872 198.32 561.016 200.208 558.456 200.208ZM558.456 198.688C560.04 198.688 561.16 197.472 561.16 195.824C561.16 194.16 560.04 192.96 558.456 192.96C556.872 192.96 555.752 194.176 555.752 195.824C555.752 197.488 556.888 198.688 558.456 198.688ZM566.507 200C565.243 200 564.523 199.232 564.523 197.92V188H566.203V197.824C566.203 198.272 566.427 198.512 566.843 198.512H567.195V200H566.507ZM571.085 200C569.821 200 569.101 199.232 569.101 197.92V188H570.781V197.824C570.781 198.272 571.005 198.512 571.421 198.512H571.773V200H571.085ZM577.472 200.208C574.896 200.208 573.056 198.336 573.056 195.824C573.056 193.312 574.912 191.424 577.488 191.424C580.064 191.424 581.888 193.328 581.888 195.824C581.888 198.32 580.032 200.208 577.472 200.208ZM577.472 198.688C579.056 198.688 580.176 197.472 580.176 195.824C580.176 194.16 579.056 192.96 577.472 192.96C575.888 192.96 574.768 194.176 574.768 195.824C574.768 197.488 575.904 198.688 577.472 198.688Z" fill="white"/>
<g filter="url(#filter9_f_156_294)">
<path fill-rule="evenodd" clip-rule="evenodd" d="M284.559 519.865L289.687 526.731C289.859 526.963 289.914 527.228 289.876 527.475H338C340.209 527.475 342 529.266 342 531.475V555.758C342 557.967 340.209 559.758 338 559.758H230C227.791 559.758 226 557.967 226 555.758V531.475C226 529.266 227.791 527.475 230 527.475H277.639C277.602 527.228 277.656 526.963 277.828 526.731L282.956 519.865C283.356 519.329 284.159 519.329 284.559 519.865Z" fill="#D6E05F"/>
</g>
<g filter="url(#filter10_f_156_294)">
<path fill-rule="evenodd" clip-rule="evenodd" d="M277.251 526.379H224C221.791 526.379 220 528.17 220 530.379V557.445C220 559.654 221.791 561.445 224 561.445H342C344.209 561.445 346 559.654 346 557.445V530.379C346 528.17 344.209 526.379 342 526.379H289.275L284.064 519.402C283.664 518.866 282.862 518.866 282.462 519.402L277.251 526.379Z" fill="#D6E05F"/>
</g>
<path d="M248.12 548.468C244.744 548.468 242.312 545.988 242.312 542.66C242.312 539.364 244.76 536.852 248.12 536.852C250.856 536.852 252.84 538.5 253.496 540.836H251.64C251.144 539.348 249.752 538.484 248.12 538.484C245.832 538.484 244.104 540.276 244.104 542.66C244.104 545.076 245.832 546.836 248.12 546.836C249.752 546.836 251.128 545.988 251.64 544.5H253.528C252.904 546.868 250.84 548.468 248.12 548.468ZM259.415 548.468C256.839 548.468 254.999 546.596 254.999 544.084C254.999 541.572 256.855 539.684 259.431 539.684C262.007 539.684 263.831 541.588 263.831 544.084C263.831 546.58 261.975 548.468 259.415 548.468ZM259.415 546.948C260.999 546.948 262.119 545.732 262.119 544.084C262.119 542.42 260.999 541.22 259.415 541.22C257.831 541.22 256.711 542.436 256.711 544.084C256.711 545.748 257.847 546.948 259.415 546.948ZM265.857 548.26V539.892H267.489V541.012H267.601C267.937 540.324 268.801 539.684 270.049 539.684C271.953 539.684 273.121 541.076 273.121 542.884V548.26H271.441V543.204C271.441 542.036 270.625 541.252 269.569 541.252C268.401 541.252 267.537 542.164 267.537 543.38V548.26H265.857ZM279.001 548.26C277.353 548.26 276.361 547.348 276.361 545.604V541.268H274.857V539.908H275.961C276.249 539.908 276.457 539.7 276.457 539.364V537.524H278.041V539.892H280.473V541.268H278.041V545.556C278.041 546.356 278.377 546.836 279.257 546.836H280.393V548.26H279.001ZM286.082 548.468C283.57 548.468 281.874 546.612 281.874 544.1C281.874 541.444 283.666 539.684 286.05 539.684C288.658 539.684 290.146 541.604 290.146 543.988V544.612H283.554C283.618 546.068 284.594 547.06 286.13 547.06C287.186 547.06 288.098 546.548 288.434 545.732H290.066C289.634 547.348 288.146 548.468 286.082 548.468ZM283.586 543.316H288.482C288.37 541.908 287.346 541.092 286.05 541.092C284.77 541.092 283.714 542.004 283.586 543.316ZM292.185 548.26V539.892H293.817V541.012H293.929C294.265 540.324 295.129 539.684 296.377 539.684C298.281 539.684 299.449 541.076 299.449 542.884V548.26H297.769V543.204C297.769 542.036 296.953 541.252 295.897 541.252C294.729 541.252 293.865 542.164 293.865 543.38V548.26H292.185ZM302.721 538.58C302.081 538.58 301.617 538.148 301.617 537.508C301.617 536.9 302.081 536.452 302.721 536.452C303.377 536.452 303.841 536.9 303.841 537.508C303.841 538.148 303.377 538.58 302.721 538.58ZM301.873 548.26V539.892H303.553V548.26H301.873ZM309.438 548.468C307.038 548.468 305.374 546.692 305.374 544.1C305.374 541.508 307.022 539.684 309.358 539.684C310.958 539.684 311.822 540.676 312.094 541.108H312.206V536.26H313.886V548.26H312.238V547.076H312.142C311.918 547.396 311.102 548.468 309.438 548.468ZM309.678 546.948C311.278 546.948 312.254 545.668 312.254 544.084C312.254 542.276 311.134 541.22 309.662 541.22C308.142 541.22 307.086 542.404 307.086 544.084C307.086 545.828 308.142 546.948 309.678 546.948ZM320.134 548.468C317.558 548.468 315.718 546.596 315.718 544.084C315.718 541.572 317.574 539.684 320.15 539.684C322.726 539.684 324.55 541.588 324.55 544.084C324.55 546.58 322.694 548.468 320.134 548.468ZM320.134 546.948C321.718 546.948 322.838 545.732 322.838 544.084C322.838 542.42 321.718 541.22 320.134 541.22C318.55 541.22 317.43 542.436 317.43 544.084C317.43 545.748 318.566 546.948 320.134 546.948Z" fill="#191528"/>
<g filter="url(#filter11_f_156_294)">
<rect x="240" y="429" width="85.9402" height="83.8864" rx="41.9432" stroke="#D6E05F" stroke-width="2"/>
</g>
<g filter="url(#filter12_f_156_294)">
<rect x="239" y="428" width="87.9402" height="85.8864" rx="42.9432" fill="#D6E05F"/>
<rect x="240" y="429" width="85.9402" height="83.8864" rx="41.9432" stroke="#D6E05F" stroke-width="2"/>
</g>
<g filter="url(#filter13_f_156_294)">
<rect x="239" y="428" width="87.9402" height="85.8864" rx="42.9432" fill="#D6E05F"/>
<rect x="240" y="429" width="85.9402" height="83.8864" rx="41.9432" stroke="#D6E05F" stroke-width="2"/>
</g>
<circle cx="282.883" cy="470.829" r="40.8468" stroke="white" stroke-width="2"/>
<circle cx="282.883" cy="455.862" r="19.4652" stroke="white" stroke-width="2"/>
<path d="M248.367 494.196V494.196C248.367 486.858 254.316 480.909 261.655 480.909H303.349C310.94 480.909 317.094 487.063 317.094 494.654V494.654" stroke="white" stroke-width="2"/>
<g filter="url(#filter14_f_156_294)">
<path fill-rule="evenodd" clip-rule="evenodd" d="M274.692 340H243C240.791 340 239 341.791 239 344V367C239 369.209 240.791 371 243 371H327C329.209 371 331 369.209 331 367V344C331 341.791 329.209 340 327 340H292.945L284.491 332.311C284.11 331.964 283.527 331.964 283.146 332.311L274.692 340Z" fill="white"/>
</g>
<g filter="url(#filter15_f_156_294)">
<path fill-rule="evenodd" clip-rule="evenodd" d="M273.61 340H242C239.791 340 238 341.791 238 344V367C238 369.209 239.791 371 242 371H327C329.209 371 331 369.209 331 367V344C331 341.791 329.209 340 327 340H291.973L283.464 332.26C283.083 331.913 282.5 331.913 282.118 332.26L273.61 340Z" fill="white"/>
</g>
<rect x="240.434" y="340.013" width="86" height="29" rx="4" fill="white"/>
<path d="M256.16 359.195C253.206 359.195 251.078 357.025 251.078 354.113C251.078 351.229 253.22 349.031 256.16 349.031C258.554 349.031 260.29 350.473 260.864 352.517H259.24C258.806 351.215 257.588 350.459 256.16 350.459C254.158 350.459 252.646 352.027 252.646 354.113C252.646 356.227 254.158 357.767 256.16 357.767C257.588 357.767 258.792 357.025 259.24 355.723H260.892C260.346 357.795 258.54 359.195 256.16 359.195ZM265.861 359.195C263.663 359.195 262.179 357.571 262.179 355.373C262.179 353.049 263.747 351.509 265.833 351.509C268.115 351.509 269.417 353.189 269.417 355.275V355.821H263.649C263.705 357.095 264.559 357.963 265.903 357.963C266.827 357.963 267.625 357.515 267.919 356.801H269.347C268.969 358.215 267.667 359.195 265.861 359.195ZM263.677 354.687H267.961C267.863 353.455 266.967 352.741 265.833 352.741C264.713 352.741 263.789 353.539 263.677 354.687ZM272.609 359.013C271.503 359.013 270.873 358.341 270.873 357.193V348.513H272.343V357.109C272.343 357.501 272.539 357.711 272.903 357.711H273.211V359.013H272.609ZM276.614 359.013C275.508 359.013 274.878 358.341 274.878 357.193V348.513H276.348V357.109C276.348 357.501 276.544 357.711 276.908 357.711H277.216V359.013H276.614ZM283.016 359.013V349.213H284.528V357.669H288.616V359.013H283.016ZM293.287 359.195C291.089 359.195 289.605 357.571 289.605 355.373C289.605 353.049 291.173 351.509 293.259 351.509C295.541 351.509 296.843 353.189 296.843 355.275V355.821H291.075C291.131 357.095 291.985 357.963 293.329 357.963C294.253 357.963 295.051 357.515 295.345 356.801H296.773C296.395 358.215 295.093 359.195 293.287 359.195ZM291.103 354.687H295.387C295.289 353.455 294.393 352.741 293.259 352.741C292.139 352.741 291.215 353.539 291.103 354.687ZM301.665 359.195C299.565 359.195 298.109 357.641 298.109 355.373C298.109 353.105 299.551 351.509 301.595 351.509C302.995 351.509 303.751 352.377 303.989 352.755H304.087V351.691H305.557V359.013H304.115V357.977H304.031C303.835 358.257 303.121 359.195 301.665 359.195ZM301.875 357.865C303.275 357.865 304.129 356.745 304.129 355.359C304.129 353.777 303.149 352.853 301.861 352.853C300.531 352.853 299.607 353.889 299.607 355.359C299.607 356.885 300.531 357.865 301.875 357.865ZM310.715 359.195C308.615 359.195 307.159 357.641 307.159 355.373C307.159 353.105 308.601 351.509 310.645 351.509C312.045 351.509 312.801 352.377 313.039 352.755H313.137V348.513H314.607V359.013H313.165V357.977H313.081C312.885 358.257 312.171 359.195 310.715 359.195ZM310.925 357.865C312.325 357.865 313.179 356.745 313.179 355.359C313.179 353.777 312.199 352.853 310.911 352.853C309.581 352.853 308.657 353.889 308.657 355.359C308.657 356.885 309.581 357.865 310.925 357.865Z" fill="#191528"/>
<circle cx="284.845" cy="265.845" r="40.845" stroke="white" stroke-width="2"/>
<path d="M304.133 250.946C304.133 261.788 295.483 270.551 284.845 270.551C274.207 270.551 265.557 261.788 265.557 250.946C265.557 240.103 274.207 231.34 284.845 231.34C295.483 231.34 304.133 240.103 304.133 250.946Z" stroke="white" stroke-width="2"/>
<path d="M250.608 289.473V289.473C250.608 282.026 256.645 275.989 264.092 275.989H305.133C312.837 275.989 319.082 282.234 319.082 289.938V289.938" stroke="white" stroke-width="2"/>
<g filter="url(#filter16_f_156_294)">
<path d="M285.011 317.978C314.698 317.978 338.791 294.272 338.791 264.998C338.791 235.723 314.698 212.017 285.011 212.017C255.323 212.017 231.231 235.723 231.231 264.998C231.231 294.272 255.323 317.978 285.011 317.978Z" stroke="white" stroke-width="2"/>
</g>
<g filter="url(#filter17_d_156_294)">
<path d="M337.272 264.976C337.272 293.107 313.915 315.951 285.053 315.951C256.191 315.951 232.834 293.107 232.834 264.976C232.834 236.845 256.191 214 285.053 214C313.915 214 337.272 236.845 337.272 264.976Z" stroke="white" stroke-width="2" shape-rendering="crispEdges"/>
</g>
<defs>
<filter id="filter0_d_156_294" x="63" y="63" width="421" height="410" filterUnits="userSpaceOnUse" color-interpolation-filters="sRGB">
<feFlood flood-opacity="0" result="BackgroundImageFix"/>
<feColorMatrix in="SourceAlpha" type="matrix" values="0 0 0 0 0 0 0 0 0 0 0 0 0 0 0 0 0 0 127 0" result="hardAlpha"/>
<feOffset dx="-5" dy="-5"/>
<feGaussianBlur stdDeviation="5"/>
<feComposite in2="hardAlpha" operator="out"/>
<feColorMatrix type="matrix" values="0 0 0 0 0.839216 0 0 0 0 0.878431 0 0 0 0 0.372549 0 0 0 1 0"/>
<feBlend mode="normal" in2="BackgroundImageFix" result="effect1_dropShadow_156_294"/>
<feBlend mode="normal" in="SourceGraphic" in2="effect1_dropShadow_156_294" result="shape"/>
</filter>
<filter id="filter1_dd_156_294" x="0" y="0" width="552" height="545" filterUnits="userSpaceOnUse" color-interpolation-filters="sRGB">
<feFlood flood-opacity="0" result="BackgroundImageFix"/>
<feColorMatrix in="SourceAlpha" type="matrix" values="0 0 0 0 0 0 0 0 0 0 0 0 0 0 0 0 0 0 127 0" result="hardAlpha"/>
<feOffset dy="4"/>
<feGaussianBlur stdDeviation="5"/>
<feComposite in2="hardAlpha" operator="out"/>
<feColorMatrix type="matrix" values="0 0 0 0 0.976471 0 0 0 0 0.00392157 0 0 0 0 1 0 0 0 1 0"/>
<feBlend mode="normal" in2="BackgroundImageFix" result="effect1_dropShadow_156_294"/>
<feColorMatrix in="SourceAlpha" type="matrix" values="0 0 0 0 0 0 0 0 0 0 0 0 0 0 0 0 0 0 127 0" result="hardAlpha"/>
<feOffset dx="-5" dy="-5"/>
<feGaussianBlur stdDeviation="5"/>
<feComposite in2="hardAlpha" operator="out"/>
<feColorMatrix type="matrix" values="0 0 0 0 0.976471 0 0 0 0 0.00392157 0 0 0 0 1 0 0 0 1 0"/>
<feBlend mode="normal" in2="effect1_dropShadow_156_294" result="effect2_dropShadow_156_294"/>
<feBlend mode="normal" in="SourceGraphic" in2="effect2_dropShadow_156_294" result="shape"/>
</filter>
<filter id="filter2_dd_156_294" x="127" y="124" width="299" height="297" filterUnits="userSpaceOnUse" color-interpolation-filters="sRGB">
<feFlood flood-opacity="0" result="BackgroundImageFix"/>
<feColorMatrix in="SourceAlpha" type="matrix" values="0 0 0 0 0 0 0 0 0 0 0 0 0 0 0 0 0 0 127 0" result="hardAlpha"/>
<feOffset dy="4"/>
<feGaussianBlur stdDeviation="5"/>
<feComposite in2="hardAlpha" operator="out"/>
<feColorMatrix type="matrix" values="0 0 0 0 0 0 0 0 0 0 0 0 0 0 0 0 0 0 1 0"/>
<feBlend mode="normal" in2="BackgroundImageFix" result="effect1_dropShadow_156_294"/>
<feColorMatrix in="SourceAlpha" type="matrix" values="0 0 0 0 0 0 0 0 0 0 0 0 0 0 0 0 0 0 127 0" result="hardAlpha"/>
<feOffset dx="-5" dy="-5"/>
<feGaussianBlur stdDeviation="5"/>
<feComposite in2="hardAlpha" operator="out"/>
<feColorMatrix type="matrix" values="0 0 0 0 0.180392 0 0 0 0 0.223529 0 0 0 0 0.654902 0 0 0 1 0"/>
<feBlend mode="normal" in2="effect1_dropShadow_156_294" result="effect2_dropShadow_156_294"/>
<feBlend mode="normal" in="SourceGraphic" in2="effect2_dropShadow_156_294" result="shape"/>
</filter>
<filter id="filter3_f_156_294" x="93" y="216.816" width="97.9402" height="95.8864" filterUnits="userSpaceOnUse" color-interpolation-filters="sRGB">
<feFlood flood-opacity="0" result="BackgroundImageFix"/>
<feBlend mode="normal" in="SourceGraphic" in2="BackgroundImageFix" result="shape"/>
<feGaussianBlur stdDeviation="2.5" result="effect1_foregroundBlur_156_294"/>
</filter>
<filter id="filter4_f_156_294" x="104" y="173" width="76" height="44.7656" filterUnits="userSpaceOnUse" color-interpolation-filters="sRGB">
<feFlood flood-opacity="0" result="BackgroundImageFix"/>
<feBlend mode="normal" in="SourceGraphic" in2="BackgroundImageFix" result="shape"/>
<feGaussianBlur stdDeviation="0.5" result="effect1_foregroundBlur_156_294"/>
</filter>
<filter id="filter5_f_156_294" x="96" y="164" width="90" height="60.8164" filterUnits="userSpaceOnUse" color-interpolation-filters="sRGB">
<feFlood flood-opacity="0" result="BackgroundImageFix"/>
<feBlend mode="normal" in="SourceGraphic" in2="BackgroundImageFix" result="shape"/>
<feGaussianBlur stdDeviation="4" result="effect1_foregroundBlur_156_294"/>
</filter>
<filter id="filter6_f_156_294" x="493" y="222.088" width="97.9402" height="95.8864" filterUnits="userSpaceOnUse" color-interpolation-filters="sRGB">
<feFlood flood-opacity="0" result="BackgroundImageFix"/>
<feBlend mode="normal" in="SourceGraphic" in2="BackgroundImageFix" result="shape"/>
<feGaussianBlur stdDeviation="2.5" result="effect1_foregroundBlur_156_294"/>
</filter>
<filter id="filter7_f_156_294" x="474.047" y="170" width="135.953" height="60.0875" filterUnits="userSpaceOnUse" color-interpolation-filters="sRGB">
<feFlood flood-opacity="0" result="BackgroundImageFix"/>
<feBlend mode="normal" in="SourceGraphic" in2="BackgroundImageFix" result="shape"/>
<feGaussianBlur stdDeviation="4" result="effect1_foregroundBlur_156_294"/>
</filter>
<filter id="filter8_f_156_294" x="481" y="177" width="121.953" height="45.129" filterUnits="userSpaceOnUse" color-interpolation-filters="sRGB">
<feFlood flood-opacity="0" result="BackgroundImageFix"/>
<feBlend mode="normal" in="SourceGraphic" in2="BackgroundImageFix" result="shape"/>
<feGaussianBlur stdDeviation="0.5" result="effect1_foregroundBlur_156_294"/>
</filter>
<filter id="filter9_f_156_294" x="218" y="511.463" width="132" height="56.2944" filterUnits="userSpaceOnUse" color-interpolation-filters="sRGB">
<feFlood flood-opacity="0" result="BackgroundImageFix"/>
<feBlend mode="normal" in="SourceGraphic" in2="BackgroundImageFix" result="shape"/>
<feGaussianBlur stdDeviation="4" result="effect1_foregroundBlur_156_294"/>
</filter>
<filter id="filter10_f_156_294" x="219" y="518" width="128" height="44.4446" filterUnits="userSpaceOnUse" color-interpolation-filters="sRGB">
<feFlood flood-opacity="0" result="BackgroundImageFix"/>
<feBlend mode="normal" in="SourceGraphic" in2="BackgroundImageFix" result="shape"/>
<feGaussianBlur stdDeviation="0.5" result="effect1_foregroundBlur_156_294"/>
</filter>
<filter id="filter11_f_156_294" x="229" y="418" width="107.94" height="105.886" filterUnits="userSpaceOnUse" color-interpolation-filters="sRGB">
<feFlood flood-opacity="0" result="BackgroundImageFix"/>
<feBlend mode="normal" in="SourceGraphic" in2="BackgroundImageFix" result="shape"/>
<feGaussianBlur stdDeviation="5" result="effect1_foregroundBlur_156_294"/>
</filter>
<filter id="filter12_f_156_294" x="234" y="423" width="97.9402" height="95.8864" filterUnits="userSpaceOnUse" color-interpolation-filters="sRGB">
<feFlood flood-opacity="0" result="BackgroundImageFix"/>
<feBlend mode="normal" in="SourceGraphic" in2="BackgroundImageFix" result="shape"/>
<feGaussianBlur stdDeviation="2.5" result="effect1_foregroundBlur_156_294"/>
</filter>
<filter id="filter13_f_156_294" x="237" y="426" width="91.9402" height="89.8864" filterUnits="userSpaceOnUse" color-interpolation-filters="sRGB">
<feFlood flood-opacity="0" result="BackgroundImageFix"/>
<feBlend mode="normal" in="SourceGraphic" in2="BackgroundImageFix" result="shape"/>
<feGaussianBlur stdDeviation="1" result="effect1_foregroundBlur_156_294"/>
</filter>
<filter id="filter14_f_156_294" x="238" y="331.051" width="94" height="40.9492" filterUnits="userSpaceOnUse" color-interpolation-filters="sRGB">
<feFlood flood-opacity="0" result="BackgroundImageFix"/>
<feBlend mode="normal" in="SourceGraphic" in2="BackgroundImageFix" result="shape"/>
<feGaussianBlur stdDeviation="0.5" result="effect1_foregroundBlur_156_294"/>
</filter>
<filter id="filter15_f_156_294" x="230" y="324" width="109" height="54.9998" filterUnits="userSpaceOnUse" color-interpolation-filters="sRGB">
<feFlood flood-opacity="0" result="BackgroundImageFix"/>
<feBlend mode="normal" in="SourceGraphic" in2="BackgroundImageFix" result="shape"/>
<feGaussianBlur stdDeviation="4" result="effect1_foregroundBlur_156_294"/>
</filter>
<filter id="filter16_f_156_294" x="221.031" y="201.817" width="127.96" height="126.361" filterUnits="userSpaceOnUse" color-interpolation-filters="sRGB">
<feFlood flood-opacity="0" result="BackgroundImageFix"/>
<feBlend mode="normal" in="SourceGraphic" in2="BackgroundImageFix" result="shape"/>
<feGaussianBlur stdDeviation="4.6" result="effect1_foregroundBlur_156_294"/>
</filter>
<filter id="filter17_d_156_294" x="227.834" y="209" width="114.437" height="111.951" filterUnits="userSpaceOnUse" color-interpolation-filters="sRGB">
<feFlood flood-opacity="0" result="BackgroundImageFix"/>
<feColorMatrix in="SourceAlpha" type="matrix" values="0 0 0 0 0 0 0 0 0 0 0 0 0 0 0 0 0 0 127 0" result="hardAlpha"/>
<feOffset/>
<feGaussianBlur stdDeviation="2"/>
<feComposite in2="hardAlpha" operator="out"/>
<feColorMatrix type="matrix" values="0 0 0 0 0.180392 0 0 0 0 0.223529 0 0 0 0 0.654902 0 0 0 1 0"/>
<feBlend mode="normal" in2="BackgroundImageFix" result="effect1_dropShadow_156_294"/>
<feBlend mode="normal" in="SourceGraphic" in2="effect1_dropShadow_156_294" result="shape"/>
</filter>
</defs>
</svg>
