<svg width="311" height="286" viewBox="0 0 311 286" fill="none" xmlns="http://www.w3.org/2000/svg">
<g filter="url(#filter0_f_156_297)">
<path d="M145.956 162.106C160.568 162.106 172.439 150.436 172.439 136.009C172.439 121.583 160.568 109.913 145.956 109.913C131.345 109.913 119.474 121.583 119.474 136.009C119.474 150.436 131.345 162.106 145.956 162.106Z" stroke="#191528" stroke-width="2"/>
</g>
<g filter="url(#filter1_d_156_297)">
<path d="M171.171 135.999C171.171 149.571 159.903 160.593 145.977 160.593C132.052 160.593 120.783 149.571 120.783 135.999C120.783 122.427 132.052 111.405 145.977 111.405C159.903 111.405 171.171 122.427 171.171 135.999Z" stroke="#191528" shape-rendering="crispEdges"/>
</g>
<g filter="url(#filter2_d_156_297)">
<path d="M238.615 139.873C238.615 191.29 195.749 233.019 142.813 233.019C89.8766 233.019 47.011 191.29 47.011 139.873C47.011 88.4555 89.8766 46.7263 142.813 46.7263C195.749 46.7263 238.615 88.4555 238.615 139.873Z" stroke="#D6E05F" stroke-width="2" shape-rendering="crispEdges"/>
</g>
<g filter="url(#filter3_dd_156_297)">
<path d="M269.032 139.873C269.032 208.095 212.542 263.436 142.813 263.436C73.0845 263.436 16.5945 208.095 16.5945 139.873C16.5945 71.6507 73.0845 16.3098 142.813 16.3098C212.542 16.3098 269.032 71.6507 269.032 139.873Z" stroke="#F901FF" stroke-width="2" shape-rendering="crispEdges"/>
</g>
<g filter="url(#filter4_dd_156_297)">
<path d="M208.198 139.873C208.198 175.03 179.053 203.568 143.054 203.568C107.055 203.568 77.9104 175.03 77.9104 139.873C77.9104 104.715 107.055 76.1772 143.054 76.1772C179.053 76.1772 208.198 104.715 208.198 139.873Z" stroke="#2E39A7" stroke-width="2" shape-rendering="crispEdges"/>
</g>
<g filter="url(#filter5_f_156_297)">
<path fill-rule="evenodd" clip-rule="evenodd" d="M146.902 166.563L149.805 169.204C149.975 169.358 150.075 169.545 150.115 169.738H181.74C183.949 169.738 185.74 171.529 185.74 173.738V180.738C185.74 182.947 183.949 184.738 181.74 184.738H111.74C109.531 184.738 107.74 182.947 107.74 180.738V173.738C107.74 171.529 109.531 169.738 111.74 169.738H142.344C142.383 169.545 142.483 169.358 142.653 169.204L145.556 166.563C145.938 166.216 146.521 166.216 146.902 166.563Z" fill="#191528"/>
</g>
<g filter="url(#filter6_f_156_297)">
<path fill-rule="evenodd" clip-rule="evenodd" d="M146.85 166.207L150.41 168.946C150.755 169.211 150.857 169.607 150.776 169.959H179.74C181.949 169.959 183.74 171.75 183.74 173.959V180.926C183.74 183.135 181.949 184.926 179.74 184.926H111C108.791 184.926 107 183.135 107 180.926V173.959C107 171.75 108.791 169.959 111 169.959H141.705C141.624 169.607 141.726 169.211 142.071 168.946L145.631 166.207C145.99 165.931 146.49 165.931 146.85 166.207Z" fill="#191528"/>
</g>
<rect x="108.74" y="170.738" width="76" height="14.0013" rx="4" fill="#191528"/>
<path d="M123.648 181.895C121.116 181.895 119.292 180.035 119.292 177.539C119.292 175.067 121.128 173.183 123.648 173.183C125.7 173.183 127.188 174.419 127.68 176.171H126.288C125.916 175.055 124.872 174.407 123.648 174.407C121.932 174.407 120.636 175.751 120.636 177.539C120.636 179.351 121.932 180.671 123.648 180.671C124.872 180.671 125.904 180.035 126.288 178.919H127.704C127.236 180.695 125.688 181.895 123.648 181.895ZM131.964 181.895C130.08 181.895 128.808 180.503 128.808 178.619C128.808 176.627 130.152 175.307 131.94 175.307C133.896 175.307 135.012 176.747 135.012 178.535V179.003H130.068C130.116 180.095 130.848 180.839 132 180.839C132.792 180.839 133.476 180.455 133.728 179.843H134.952C134.628 181.055 133.512 181.895 131.964 181.895ZM130.092 178.031H133.764C133.68 176.975 132.912 176.363 131.94 176.363C130.98 176.363 130.188 177.047 130.092 178.031ZM137.747 181.739C136.799 181.739 136.259 181.163 136.259 180.179V172.739H137.519V180.107C137.519 180.443 137.687 180.623 137.999 180.623H138.263V181.739H137.747ZM141.181 181.739C140.233 181.739 139.693 181.163 139.693 180.179V172.739H140.953V180.107C140.953 180.443 141.121 180.623 141.433 180.623H141.697V181.739H141.181ZM146.668 181.739V173.339H147.964V180.587H151.468V181.739H146.668ZM155.471 181.895C153.587 181.895 152.315 180.503 152.315 178.619C152.315 176.627 153.659 175.307 155.447 175.307C157.403 175.307 158.519 176.747 158.519 178.535V179.003H153.575C153.623 180.095 154.355 180.839 155.507 180.839C156.299 180.839 156.983 180.455 157.235 179.843H158.459C158.135 181.055 157.019 181.895 155.471 181.895ZM153.599 178.031H157.271C157.187 176.975 156.419 176.363 155.447 176.363C154.487 176.363 153.695 177.047 153.599 178.031ZM162.652 181.895C160.852 181.895 159.604 180.563 159.604 178.619C159.604 176.675 160.84 175.307 162.592 175.307C163.792 175.307 164.44 176.051 164.644 176.375H164.728V175.463H165.988V181.739H164.752V180.851H164.68C164.512 181.091 163.9 181.895 162.652 181.895ZM162.832 180.755C164.032 180.755 164.764 179.795 164.764 178.607C164.764 177.251 163.924 176.459 162.82 176.459C161.68 176.459 160.888 177.347 160.888 178.607C160.888 179.915 161.68 180.755 162.832 180.755ZM170.41 181.895C168.61 181.895 167.362 180.563 167.362 178.619C167.362 176.675 168.598 175.307 170.35 175.307C171.55 175.307 172.198 176.051 172.402 176.375H172.486V172.739H173.746V181.739H172.51V180.851H172.438C172.27 181.091 171.658 181.895 170.41 181.895ZM170.59 180.755C171.79 180.755 172.522 179.795 172.522 178.607C172.522 177.251 171.682 176.459 170.578 176.459C169.438 176.459 168.646 177.347 168.646 178.607C168.646 179.915 169.438 180.755 170.59 180.755Z" fill="white"/>
<g filter="url(#filter7_f_156_297)">
<rect x="55.6672" y="115.161" width="42.4578" height="41.4662" rx="20.7331" fill="#2E39A7"/>
<rect x="56.1672" y="115.661" width="41.4578" height="40.4662" rx="20.2331" stroke="#2E39A7"/>
</g>
<circle cx="77.0558" cy="135.936" r="19.7037" stroke="white"/>
<circle cx="77.0557" cy="128.71" r="9.38066" stroke="white"/>
<path d="M61 147.5V147.5C60.6732 143.903 63.5052 140.802 67.1167 140.802H86.8505C90.4666 140.802 93.3081 143.897 93 147.5V147.5" stroke="white"/>
<g filter="url(#filter8_f_156_297)">
<path fill-rule="evenodd" clip-rule="evenodd" d="M76.9778 112.283L79.9021 109.631C80.1005 109.451 80.2036 109.227 80.2271 109H98C100.209 109 102 107.209 102 105V96C102 93.7909 100.209 92 98 92H55C52.7909 92 51 93.7909 51 96V105C51 107.209 52.7909 109 55 109H72.3851C72.4086 109.227 72.5116 109.451 72.7101 109.631L75.6343 112.283C76.0154 112.628 76.5967 112.628 76.9778 112.283Z" fill="#2E39A7"/>
</g>
<g filter="url(#filter9_f_156_297)">
<path fill-rule="evenodd" clip-rule="evenodd" d="M76.4769 112.307L79.4011 109.655C79.9662 109.143 79.7576 108.274 79.142 108H98C100.209 108 102 106.209 102 104V95C102 92.7909 100.209 91 98 91H55C52.7909 91 51 92.7909 51 95V104C51 106.209 52.7909 108 55 108H72.4681C71.8526 108.274 71.644 109.143 72.2091 109.655L75.1333 112.307C75.5145 112.653 76.0957 112.653 76.4769 112.307Z" fill="#2E39A7"/>
</g>
<path d="M63.8895 104.156C61.8495 104.156 60.6495 102.86 60.6495 100.928V95.6H61.9455V100.916C61.9455 102.164 62.6055 102.956 63.8895 102.956C65.1615 102.956 65.8335 102.164 65.8335 100.904V95.6H67.1175V100.916C67.1175 102.848 65.8935 104.156 63.8895 104.156ZM68.2001 104L70.9481 99.728L68.3441 95.6H69.8081L71.7281 98.696H71.8001L73.7321 95.6H75.2081L72.5921 99.728L75.3281 104H73.8281L71.7881 100.736H71.7161L69.7001 104H68.2001ZM76.074 105.296L79.722 95H80.91L77.262 105.296H76.074ZM85.6863 104.156C83.6463 104.156 82.4463 102.86 82.4463 100.928V95.6H83.7423V100.916C83.7423 102.164 84.4023 102.956 85.6863 102.956C86.9583 102.956 87.6303 102.164 87.6303 100.904V95.6H88.9143V100.916C88.9143 102.848 87.6903 104.156 85.6863 104.156ZM90.945 104V95.6H92.241V104H90.945Z" fill="white"/>
<g filter="url(#filter10_f_156_297)">
<rect x="248.788" y="117.706" width="42.4578" height="41.4662" rx="20.7331" fill="#F800FF"/>
<rect x="249.288" y="118.206" width="41.4578" height="40.4662" rx="20.2331" stroke="#E73AF6"/>
</g>
<circle cx="270.181" cy="138.306" r="19.7037" stroke="white"/>
<circle cx="270.18" cy="131.08" r="9.38066" stroke="white"/>
<path d="M254 149.5V149.5C253.739 146.086 256.438 143.173 259.862 143.173H280.367C283.831 143.173 286.608 146.038 286.5 149.5V149.5" stroke="white"/>
<g filter="url(#filter11_f_156_297)">
<path fill-rule="evenodd" clip-rule="evenodd" d="M241 94C238.791 94 237 95.7909 237 98V107C237 109.209 238.791 111 241 111H267.821C267.526 111.331 267.453 111.848 267.751 112.259L269.385 114.509C269.787 115.064 270.62 115.051 271.015 114.484L272.617 112.182C272.888 111.793 272.84 111.323 272.592 111H299C301.209 111 303 109.209 303 107V98C303 95.7909 301.209 94 299 94H241Z" fill="#F800FF"/>
</g>
<g filter="url(#filter12_f_156_297)">
<path fill-rule="evenodd" clip-rule="evenodd" d="M241 94C238.791 94 237 95.7909 237 98V107C237 109.209 238.791 111 241 111H267.578C267.516 111.265 267.56 111.557 267.744 111.808L269.382 114.051C269.786 114.603 270.619 114.586 271.012 114.017L272.609 111.707C272.764 111.483 272.814 111.233 272.782 111H299C301.209 111 303 109.209 303 107V98C303 95.7909 301.209 94 299 94H241Z" fill="#F800FF"/>
</g>
<path d="M240.242 106V97.6H242.906C245.582 97.6 247.154 99.34 247.154 101.788C247.154 104.392 245.582 106 242.906 106H240.242ZM241.538 104.872H242.882C244.61 104.872 245.834 103.828 245.834 101.788C245.834 99.832 244.634 98.74 242.882 98.74H241.538V104.872ZM251.413 106.156C249.529 106.156 248.257 104.764 248.257 102.88C248.257 100.888 249.601 99.568 251.389 99.568C253.345 99.568 254.461 101.008 254.461 102.796V103.264H249.517C249.565 104.356 250.297 105.1 251.449 105.1C252.241 105.1 252.925 104.716 253.177 104.104H254.401C254.077 105.316 252.961 106.156 251.413 106.156ZM249.541 102.292H253.213C253.129 101.236 252.361 100.624 251.389 100.624C250.429 100.624 249.637 101.308 249.541 102.292ZM258.15 106.156C256.554 106.156 255.714 105.352 255.63 104.14H256.818C256.902 104.788 257.37 105.124 258.186 105.124C259.014 105.124 259.47 104.752 259.47 104.2C259.47 102.664 255.798 103.96 255.798 101.404C255.798 100.348 256.734 99.568 258.174 99.568C259.434 99.568 260.418 100.252 260.514 101.452H259.362C259.29 100.924 258.882 100.576 258.126 100.576C257.418 100.576 256.974 100.912 256.974 101.38C256.974 102.772 260.694 101.476 260.694 104.14C260.694 105.328 259.722 106.156 258.15 106.156ZM264.957 106.156C263.157 106.156 261.909 104.824 261.909 102.88C261.909 100.936 263.145 99.568 264.897 99.568C266.097 99.568 266.745 100.312 266.949 100.636H267.033V99.724H268.293V106H267.057V105.112H266.985C266.817 105.352 266.205 106.156 264.957 106.156ZM265.137 105.016C266.337 105.016 267.069 104.056 267.069 102.868C267.069 101.512 266.229 100.72 265.125 100.72C263.985 100.72 263.193 101.608 263.193 102.868C263.193 104.176 263.985 105.016 265.137 105.016ZM270.111 106V99.724H271.323V100.816H271.407C271.599 100.312 272.199 99.712 273.087 99.712H273.639V100.936H273.051C271.983 100.936 271.371 101.74 271.371 102.904V106H270.111ZM275.091 106V99.724H276.303V100.816H276.387C276.579 100.312 277.179 99.712 278.067 99.712H278.619V100.936H278.031C276.963 100.936 276.351 101.74 276.351 102.904V106H275.091ZM282.717 106.156C280.785 106.156 279.405 104.752 279.405 102.868C279.405 100.984 280.797 99.568 282.729 99.568C284.661 99.568 286.029 100.996 286.029 102.868C286.029 104.74 284.637 106.156 282.717 106.156ZM282.717 105.016C283.905 105.016 284.745 104.104 284.745 102.868C284.745 101.62 283.905 100.72 282.717 100.72C281.529 100.72 280.689 101.632 280.689 102.868C280.689 104.116 281.541 105.016 282.717 105.016ZM288.755 106C287.807 106 287.267 105.424 287.267 104.44V97H288.527V104.368C288.527 104.704 288.695 104.884 289.007 104.884H289.271V106H288.755ZM292.189 106C291.241 106 290.701 105.424 290.701 104.44V97H291.961V104.368C291.961 104.704 292.129 104.884 292.441 104.884H292.705V106H292.189ZM296.979 106.156C295.047 106.156 293.667 104.752 293.667 102.868C293.667 100.984 295.059 99.568 296.991 99.568C298.923 99.568 300.291 100.996 300.291 102.868C300.291 104.74 298.899 106.156 296.979 106.156ZM296.979 105.016C298.167 105.016 299.007 104.104 299.007 102.868C299.007 101.62 298.167 100.72 296.979 100.72C295.791 100.72 294.951 101.632 294.951 102.868C294.951 104.116 295.803 105.016 296.979 105.016Z" fill="white"/>
<g filter="url(#filter13_f_156_297)">
<path fill-rule="evenodd" clip-rule="evenodd" d="M146.152 259.615L147.596 261.549C147.97 262.049 147.789 262.71 147.321 263H172C174.209 263 176 264.791 176 267V274C176 276.209 174.209 278 172 278H119C116.791 278 115 276.209 115 274V267C115 264.791 116.791 263 119 263H143.381C142.913 262.71 142.732 262.049 143.106 261.549L144.55 259.615C144.95 259.079 145.752 259.079 146.152 259.615Z" fill="#D6E05F"/>
</g>
<g filter="url(#filter14_f_156_297)">
<path fill-rule="evenodd" clip-rule="evenodd" d="M145.914 259.391L147.654 261.722C147.72 261.811 147.769 261.904 147.802 262H174C176.209 262 178 263.791 178 266V275C178 277.209 176.209 279 174 279H116C113.791 279 112 277.209 112 275V266C112 263.791 113.791 262 116 262H142.423C142.456 261.904 142.505 261.811 142.571 261.722L144.311 259.391C144.711 258.856 145.514 258.856 145.914 259.391Z" fill="#D6E05F"/>
</g>
<path d="M118.525 275.156C115.993 275.156 114.169 273.296 114.169 270.8C114.169 268.328 116.005 266.444 118.525 266.444C120.577 266.444 122.065 267.68 122.557 269.432H121.165C120.793 268.316 119.749 267.668 118.525 267.668C116.809 267.668 115.513 269.012 115.513 270.8C115.513 272.612 116.809 273.932 118.525 273.932C119.749 273.932 120.781 273.296 121.165 272.18H122.581C122.113 273.956 120.565 275.156 118.525 275.156ZM126.997 275.156C125.065 275.156 123.685 273.752 123.685 271.868C123.685 269.984 125.077 268.568 127.009 268.568C128.941 268.568 130.309 269.996 130.309 271.868C130.309 273.74 128.917 275.156 126.997 275.156ZM126.997 274.016C128.185 274.016 129.025 273.104 129.025 271.868C129.025 270.62 128.185 269.72 126.997 269.72C125.809 269.72 124.969 270.632 124.969 271.868C124.969 273.116 125.821 274.016 126.997 274.016ZM131.828 275V268.724H133.052V269.564H133.136C133.388 269.048 134.036 268.568 134.972 268.568C136.4 268.568 137.276 269.612 137.276 270.968V275H136.016V271.208C136.016 270.332 135.404 269.744 134.612 269.744C133.736 269.744 133.088 270.428 133.088 271.34V275H131.828ZM141.685 275C140.449 275 139.705 274.316 139.705 273.008V269.756H138.577V268.736H139.405C139.621 268.736 139.777 268.58 139.777 268.328V266.948H140.965V268.724H142.789V269.756H140.965V272.972C140.965 273.572 141.217 273.932 141.877 273.932H142.729V275H141.685ZM146.997 275.156C145.113 275.156 143.841 273.764 143.841 271.88C143.841 269.888 145.185 268.568 146.973 268.568C148.929 268.568 150.045 270.008 150.045 271.796V272.264H145.101C145.149 273.356 145.881 274.1 147.033 274.1C147.825 274.1 148.509 273.716 148.761 273.104H149.985C149.661 274.316 148.545 275.156 146.997 275.156ZM145.125 271.292H148.797C148.713 270.236 147.945 269.624 146.973 269.624C146.013 269.624 145.221 270.308 145.125 271.292ZM151.574 275V268.724H152.798V269.564H152.882C153.134 269.048 153.782 268.568 154.718 268.568C156.146 268.568 157.022 269.612 157.022 270.968V275H155.762V271.208C155.762 270.332 155.15 269.744 154.358 269.744C153.482 269.744 152.834 270.428 152.834 271.34V275H151.574ZM159.475 267.74C158.995 267.74 158.647 267.416 158.647 266.936C158.647 266.48 158.995 266.144 159.475 266.144C159.967 266.144 160.315 266.48 160.315 266.936C160.315 267.416 159.967 267.74 159.475 267.74ZM158.839 275V268.724H160.099V275H158.839ZM164.514 275.156C162.714 275.156 161.466 273.824 161.466 271.88C161.466 269.936 162.702 268.568 164.454 268.568C165.654 268.568 166.302 269.312 166.506 269.636H166.59V266H167.85V275H166.614V274.112H166.542C166.374 274.352 165.762 275.156 164.514 275.156ZM164.694 274.016C165.894 274.016 166.626 273.056 166.626 271.868C166.626 270.512 165.786 269.72 164.682 269.72C163.542 269.72 162.75 270.608 162.75 271.868C162.75 273.176 163.542 274.016 164.694 274.016ZM172.536 275.156C170.604 275.156 169.224 273.752 169.224 271.868C169.224 269.984 170.616 268.568 172.548 268.568C174.48 268.568 175.848 269.996 175.848 271.868C175.848 273.74 174.456 275.156 172.536 275.156ZM172.536 274.016C173.724 274.016 174.564 273.104 174.564 271.868C174.564 270.62 173.724 269.72 172.536 269.72C171.348 269.72 170.508 270.632 170.508 271.868C170.508 273.116 171.36 274.016 172.536 274.016Z" fill="#191528"/>
<g filter="url(#filter15_f_156_297)">
<rect x="123.742" y="214.707" width="42.4578" height="41.4662" rx="20.7331" fill="#D6E05F"/>
<rect x="124.242" y="215.207" width="41.4578" height="40.4662" rx="20.2331" stroke="#EDF963"/>
</g>
<circle cx="144.929" cy="235.385" r="19.7037" stroke="white"/>
<circle cx="144.929" cy="228.159" r="9.38066" stroke="white"/>
<path d="M128.5 246.5V246.5C128.372 243.088 131.103 240.252 134.517 240.252H154.684C158.344 240.252 161.242 243.348 161 247V247" stroke="white"/>
<circle cx="145.876" cy="136.418" r="19.7029" stroke="#191528"/>
<path d="M155.172 129.225C155.172 134.451 151.003 138.673 145.876 138.673C140.75 138.673 136.581 134.451 136.581 129.225C136.581 123.999 140.75 119.777 145.876 119.777C151.003 119.777 155.172 123.999 155.172 129.225Z" stroke="#191528"/>
<path d="M129.5 147.5V147.5C129.416 144.11 132.141 141.316 135.532 141.316H155.883C159.418 141.316 162.22 144.298 162 147.826V147.826" stroke="#191528"/>
<defs>
<filter id="filter0_f_156_297" x="109.274" y="99.7132" width="73.3648" height="72.5925" filterUnits="userSpaceOnUse" color-interpolation-filters="sRGB">
<feFlood flood-opacity="0" result="BackgroundImageFix"/>
<feBlend mode="normal" in="SourceGraphic" in2="BackgroundImageFix" result="shape"/>
<feGaussianBlur stdDeviation="4.6" result="effect1_foregroundBlur_156_297"/>
</filter>
<filter id="filter1_d_156_297" x="116.283" y="106.905" width="59.3882" height="58.188" filterUnits="userSpaceOnUse" color-interpolation-filters="sRGB">
<feFlood flood-opacity="0" result="BackgroundImageFix"/>
<feColorMatrix in="SourceAlpha" type="matrix" values="0 0 0 0 0 0 0 0 0 0 0 0 0 0 0 0 0 0 127 0" result="hardAlpha"/>
<feOffset/>
<feGaussianBlur stdDeviation="2"/>
<feComposite in2="hardAlpha" operator="out"/>
<feColorMatrix type="matrix" values="0 0 0 0 0.180392 0 0 0 0 0.223529 0 0 0 0 0.654902 0 0 0 1 0"/>
<feBlend mode="normal" in2="BackgroundImageFix" result="effect1_dropShadow_156_297"/>
<feBlend mode="normal" in="SourceGraphic" in2="effect1_dropShadow_156_297" result="shape"/>
</filter>
<filter id="filter2_d_156_297" x="31.011" y="30.7263" width="213.604" height="208.293" filterUnits="userSpaceOnUse" color-interpolation-filters="sRGB">
<feFlood flood-opacity="0" result="BackgroundImageFix"/>
<feColorMatrix in="SourceAlpha" type="matrix" values="0 0 0 0 0 0 0 0 0 0 0 0 0 0 0 0 0 0 127 0" result="hardAlpha"/>
<feOffset dx="-5" dy="-5"/>
<feGaussianBlur stdDeviation="5"/>
<feComposite in2="hardAlpha" operator="out"/>
<feColorMatrix type="matrix" values="0 0 0 0 0.839216 0 0 0 0 0.878431 0 0 0 0 0.372549 0 0 0 1 0"/>
<feBlend mode="normal" in2="BackgroundImageFix" result="effect1_dropShadow_156_297"/>
<feBlend mode="normal" in="SourceGraphic" in2="effect1_dropShadow_156_297" result="shape"/>
</filter>
<filter id="filter3_dd_156_297" x="0.594482" y="0.309814" width="279.437" height="278.126" filterUnits="userSpaceOnUse" color-interpolation-filters="sRGB">
<feFlood flood-opacity="0" result="BackgroundImageFix"/>
<feColorMatrix in="SourceAlpha" type="matrix" values="0 0 0 0 0 0 0 0 0 0 0 0 0 0 0 0 0 0 127 0" result="hardAlpha"/>
<feOffset dy="4"/>
<feGaussianBlur stdDeviation="5"/>
<feComposite in2="hardAlpha" operator="out"/>
<feColorMatrix type="matrix" values="0 0 0 0 0.976471 0 0 0 0 0.00392157 0 0 0 0 1 0 0 0 1 0"/>
<feBlend mode="normal" in2="BackgroundImageFix" result="effect1_dropShadow_156_297"/>
<feColorMatrix in="SourceAlpha" type="matrix" values="0 0 0 0 0 0 0 0 0 0 0 0 0 0 0 0 0 0 127 0" result="hardAlpha"/>
<feOffset dx="-5" dy="-5"/>
<feGaussianBlur stdDeviation="5"/>
<feComposite in2="hardAlpha" operator="out"/>
<feColorMatrix type="matrix" values="0 0 0 0 0.976471 0 0 0 0 0.00392157 0 0 0 0 1 0 0 0 1 0"/>
<feBlend mode="normal" in2="effect1_dropShadow_156_297" result="effect2_dropShadow_156_297"/>
<feBlend mode="normal" in="SourceGraphic" in2="effect2_dropShadow_156_297" result="shape"/>
</filter>
<filter id="filter4_dd_156_297" x="61.9104" y="60.1772" width="157.288" height="158.391" filterUnits="userSpaceOnUse" color-interpolation-filters="sRGB">
<feFlood flood-opacity="0" result="BackgroundImageFix"/>
<feColorMatrix in="SourceAlpha" type="matrix" values="0 0 0 0 0 0 0 0 0 0 0 0 0 0 0 0 0 0 127 0" result="hardAlpha"/>
<feOffset dy="4"/>
<feGaussianBlur stdDeviation="5"/>
<feComposite in2="hardAlpha" operator="out"/>
<feColorMatrix type="matrix" values="0 0 0 0 0 0 0 0 0 0 0 0 0 0 0 0 0 0 1 0"/>
<feBlend mode="normal" in2="BackgroundImageFix" result="effect1_dropShadow_156_297"/>
<feColorMatrix in="SourceAlpha" type="matrix" values="0 0 0 0 0 0 0 0 0 0 0 0 0 0 0 0 0 0 127 0" result="hardAlpha"/>
<feOffset dx="-5" dy="-5"/>
<feGaussianBlur stdDeviation="5"/>
<feComposite in2="hardAlpha" operator="out"/>
<feColorMatrix type="matrix" values="0 0 0 0 0.180392 0 0 0 0 0.223529 0 0 0 0 0.654902 0 0 0 1 0"/>
<feBlend mode="normal" in2="effect1_dropShadow_156_297" result="effect2_dropShadow_156_297"/>
<feBlend mode="normal" in="SourceGraphic" in2="effect2_dropShadow_156_297" result="shape"/>
</filter>
<filter id="filter5_f_156_297" x="106.74" y="165.303" width="80" height="20.4355" filterUnits="userSpaceOnUse" color-interpolation-filters="sRGB">
<feFlood flood-opacity="0" result="BackgroundImageFix"/>
<feBlend mode="normal" in="SourceGraphic" in2="BackgroundImageFix" result="shape"/>
<feGaussianBlur stdDeviation="0.5" result="effect1_foregroundBlur_156_297"/>
</filter>
<filter id="filter6_f_156_297" x="99" y="158" width="92.7402" height="34.9258" filterUnits="userSpaceOnUse" color-interpolation-filters="sRGB">
<feFlood flood-opacity="0" result="BackgroundImageFix"/>
<feBlend mode="normal" in="SourceGraphic" in2="BackgroundImageFix" result="shape"/>
<feGaussianBlur stdDeviation="4" result="effect1_foregroundBlur_156_297"/>
</filter>
<filter id="filter7_f_156_297" x="52.6672" y="112.161" width="48.4578" height="47.4662" filterUnits="userSpaceOnUse" color-interpolation-filters="sRGB">
<feFlood flood-opacity="0" result="BackgroundImageFix"/>
<feBlend mode="normal" in="SourceGraphic" in2="BackgroundImageFix" result="shape"/>
<feGaussianBlur stdDeviation="1.5" result="effect1_foregroundBlur_156_297"/>
</filter>
<filter id="filter8_f_156_297" x="50" y="91" width="53" height="22.5417" filterUnits="userSpaceOnUse" color-interpolation-filters="sRGB">
<feFlood flood-opacity="0" result="BackgroundImageFix"/>
<feBlend mode="normal" in="SourceGraphic" in2="BackgroundImageFix" result="shape"/>
<feGaussianBlur stdDeviation="0.5" result="effect1_foregroundBlur_156_297"/>
</filter>
<filter id="filter9_f_156_297" x="43" y="83" width="67" height="37.5664" filterUnits="userSpaceOnUse" color-interpolation-filters="sRGB">
<feFlood flood-opacity="0" result="BackgroundImageFix"/>
<feBlend mode="normal" in="SourceGraphic" in2="BackgroundImageFix" result="shape"/>
<feGaussianBlur stdDeviation="4" result="effect1_foregroundBlur_156_297"/>
</filter>
<filter id="filter10_f_156_297" x="245.788" y="114.706" width="48.4578" height="47.4662" filterUnits="userSpaceOnUse" color-interpolation-filters="sRGB">
<feFlood flood-opacity="0" result="BackgroundImageFix"/>
<feBlend mode="normal" in="SourceGraphic" in2="BackgroundImageFix" result="shape"/>
<feGaussianBlur stdDeviation="1.5" result="effect1_foregroundBlur_156_297"/>
</filter>
<filter id="filter11_f_156_297" x="229" y="86" width="82" height="36.917" filterUnits="userSpaceOnUse" color-interpolation-filters="sRGB">
<feFlood flood-opacity="0" result="BackgroundImageFix"/>
<feBlend mode="normal" in="SourceGraphic" in2="BackgroundImageFix" result="shape"/>
<feGaussianBlur stdDeviation="4" result="effect1_foregroundBlur_156_297"/>
</filter>
<filter id="filter12_f_156_297" x="236" y="93" width="68" height="22.4543" filterUnits="userSpaceOnUse" color-interpolation-filters="sRGB">
<feFlood flood-opacity="0" result="BackgroundImageFix"/>
<feBlend mode="normal" in="SourceGraphic" in2="BackgroundImageFix" result="shape"/>
<feGaussianBlur stdDeviation="0.5" result="effect1_foregroundBlur_156_297"/>
</filter>
<filter id="filter13_f_156_297" x="107" y="251.213" width="77" height="34.7866" filterUnits="userSpaceOnUse" color-interpolation-filters="sRGB">
<feFlood flood-opacity="0" result="BackgroundImageFix"/>
<feBlend mode="normal" in="SourceGraphic" in2="BackgroundImageFix" result="shape"/>
<feGaussianBlur stdDeviation="4" result="effect1_foregroundBlur_156_297"/>
</filter>
<filter id="filter14_f_156_297" x="111" y="257.99" width="68" height="22.0103" filterUnits="userSpaceOnUse" color-interpolation-filters="sRGB">
<feFlood flood-opacity="0" result="BackgroundImageFix"/>
<feBlend mode="normal" in="SourceGraphic" in2="BackgroundImageFix" result="shape"/>
<feGaussianBlur stdDeviation="0.5" result="effect1_foregroundBlur_156_297"/>
</filter>
<filter id="filter15_f_156_297" x="120.742" y="211.707" width="48.4578" height="47.4662" filterUnits="userSpaceOnUse" color-interpolation-filters="sRGB">
<feFlood flood-opacity="0" result="BackgroundImageFix"/>
<feBlend mode="normal" in="SourceGraphic" in2="BackgroundImageFix" result="shape"/>
<feGaussianBlur stdDeviation="1.5" result="effect1_foregroundBlur_156_297"/>
</filter>
</defs>
</svg>
