<svg width="554" height="601" viewBox="0 0 554 601" fill="none" xmlns="http://www.w3.org/2000/svg">
<g filter="url(#filter0_dd_3175_44892)">
<ellipse cx="126.696" cy="124.817" rx="126.696" ry="124.817" transform="matrix(-0.87044 -0.492274 0.507766 -0.861495 331.797 470.422)" fill="#171717"/>
</g>
<g filter="url(#filter1_d_3175_44892)">
<path d="M349.935 296.436C349.935 331.693 320.752 360.309 284.708 360.309C248.664 360.309 219.48 331.693 219.48 296.436C219.48 261.179 248.664 232.562 284.708 232.562C320.752 232.562 349.935 261.179 349.935 296.436Z" stroke="#2D37AE" stroke-width="2" shape-rendering="crispEdges"/>
</g>
<g filter="url(#filter2_d_3175_44892)">
<path d="M358.515 296.321C358.515 336.284 325.437 368.715 284.59 368.715C243.742 368.715 210.664 336.284 210.664 296.321C210.664 256.359 243.742 223.928 284.59 223.928C325.437 223.928 358.515 256.359 358.515 296.321Z" stroke="#F800FF" stroke-width="2" shape-rendering="crispEdges"/>
</g>
<g filter="url(#filter3_f_3175_44892)">
<path d="M284.592 419.341C353.859 419.341 410.117 364.321 410.117 296.321C410.117 228.321 353.859 173.301 284.592 173.301C215.325 173.301 159.066 228.321 159.066 296.321C159.066 364.321 215.325 419.341 284.592 419.341Z" stroke="url(#paint0_linear_3175_44892)" stroke-width="6"/>
</g>
<g filter="url(#filter4_d_3175_44892)">
<path d="M536.645 308.5C536.645 448.483 420.564 562 277.323 562C134.081 562 18 448.483 18 308.5C18 168.517 134.081 55 277.323 55C420.564 55 536.645 168.517 536.645 308.5Z" stroke="#D6E05F" stroke-width="2" shape-rendering="crispEdges"/>
</g>
<g filter="url(#filter5_f_3175_44892)">
<rect x="399.625" y="439" width="104.659" height="102.478" rx="51.239" stroke="#D6E05F" stroke-width="2"/>
</g>
<g filter="url(#filter6_f_3175_44892)">
<rect x="398.625" y="438" width="106.659" height="104.478" rx="52.239" fill="#D6E05F"/>
<rect x="399.625" y="439" width="104.659" height="102.478" rx="51.239" stroke="#D6E05F" stroke-width="2"/>
</g>
<g filter="url(#filter7_f_3175_44892)">
<rect x="398.625" y="438" width="106.659" height="104.478" rx="52.239" fill="#D6E05F"/>
<rect x="399.625" y="439" width="104.659" height="102.478" rx="51.239" stroke="#D6E05F" stroke-width="2"/>
</g>
<g filter="url(#filter8_f_3175_44892)">
<rect x="384.684" y="60" width="104.659" height="102.478" rx="51.239" stroke="#E73AF6" stroke-width="2"/>
</g>
<g filter="url(#filter9_f_3175_44892)">
<rect x="383.684" y="59" width="106.659" height="104.478" rx="52.239" fill="#F800FF"/>
<rect x="384.684" y="60" width="104.659" height="102.478" rx="51.239" stroke="#E73AF6" stroke-width="2"/>
</g>
<g filter="url(#filter10_f_3175_44892)">
<rect x="383.684" y="59" width="106.659" height="104.478" rx="52.239" fill="#F800FF"/>
<rect x="384.684" y="60" width="104.659" height="102.478" rx="51.239" stroke="#E73AF6" stroke-width="2"/>
</g>
<g filter="url(#filter11_f_3175_44892)">
<path fill-rule="evenodd" clip-rule="evenodd" d="M277.084 378H228.426C226.217 378 224.426 379.791 224.426 382V409C224.426 411.209 226.217 413 228.426 413H350.077C352.286 413 354.077 411.209 354.077 409V382C354.077 379.791 352.286 378 350.077 378H295.366L286.898 370.297C286.516 369.95 285.933 369.95 285.552 370.297L277.084 378Z" fill="white"/>
</g>
<g filter="url(#filter12_f_3175_44892)">
<path fill-rule="evenodd" clip-rule="evenodd" d="M285.87 370.247L294.654 378.236C295.33 378.851 294.895 379.976 293.981 379.976L276.414 379.976C275.5 379.976 275.065 378.851 275.741 378.236L284.525 370.247C284.906 369.9 285.489 369.9 285.87 370.247ZM227.406 380C225.197 380 223.406 381.791 223.406 384V411C223.406 413.209 225.197 415 227.406 415H350.078C352.287 415 354.078 413.209 354.078 411V384C354.078 381.791 352.287 380 350.078 380H227.406Z" fill="white"/>
</g>
<rect x="244.84" y="382" width="86" height="29" rx="4" fill="white"/>
<path d="M255.482 396.099C255.482 395.388 255.61 394.72 255.865 394.096C256.12 393.467 256.471 392.927 256.918 392.476C257.365 392.024 257.902 391.669 258.531 391.409C259.165 391.149 259.844 391.02 260.568 391.02C261.74 391.02 262.742 391.339 263.576 391.977C264.415 392.615 264.98 393.458 265.271 394.506H263.645C263.43 393.863 263.045 393.36 262.489 392.995C261.933 392.631 261.293 392.448 260.568 392.448C259.912 392.448 259.315 392.608 258.777 392.927C258.24 393.241 257.818 393.679 257.513 394.239C257.207 394.795 257.055 395.415 257.055 396.099C257.055 397.151 257.39 398.024 258.06 398.717C258.729 399.41 259.566 399.756 260.568 399.756C261.293 399.756 261.931 399.576 262.482 399.216C263.034 398.856 263.421 398.354 263.645 397.712H265.299C265.021 398.76 264.456 399.601 263.604 400.234C262.756 400.868 261.744 401.185 260.568 401.185C259.844 401.185 259.165 401.057 258.531 400.802C257.898 400.542 257.358 400.189 256.911 399.742C256.469 399.291 256.12 398.751 255.865 398.122C255.61 397.493 255.482 396.819 255.482 396.099ZM266.584 397.363C266.584 396.602 266.743 395.928 267.062 395.34C267.382 394.747 267.817 394.292 268.368 393.973C268.924 393.654 269.549 393.494 270.241 393.494C270.797 393.494 271.303 393.592 271.759 393.788C272.215 393.984 272.59 394.253 272.887 394.595C273.188 394.937 273.418 395.335 273.577 395.791C273.741 396.247 273.823 396.737 273.823 397.261V397.808H268.054C268.081 398.45 268.298 398.967 268.703 399.359C269.109 399.751 269.644 399.947 270.31 399.947C270.774 399.947 271.189 399.842 271.554 399.633C271.923 399.423 272.18 399.141 272.326 398.785H273.755C273.563 399.505 273.156 400.086 272.531 400.528C271.911 400.966 271.157 401.185 270.269 401.185C269.179 401.185 268.293 400.827 267.609 400.111C266.926 399.391 266.584 398.475 266.584 397.363ZM268.081 396.673H272.367C272.322 396.071 272.101 395.597 271.704 395.251C271.308 394.9 270.82 394.725 270.241 394.725C269.676 394.725 269.188 394.907 268.778 395.271C268.368 395.636 268.136 396.103 268.081 396.673ZM275.279 399.182V390.5H276.749V399.093C276.749 399.289 276.797 399.439 276.893 399.544C276.988 399.649 277.127 399.701 277.31 399.701H277.617V401H277.016C276.464 401 276.036 400.84 275.73 400.521C275.43 400.202 275.279 399.756 275.279 399.182ZM279.271 399.182V390.5H280.741V399.093C280.741 399.289 280.789 399.439 280.885 399.544C280.98 399.649 281.119 399.701 281.302 399.701H281.609V401H281.008C280.456 401 280.028 400.84 279.723 400.521C279.422 400.202 279.271 399.756 279.271 399.182ZM287.406 401V391.197H288.917V399.653H293.005V401H287.406ZM293.982 397.363C293.982 396.602 294.142 395.928 294.461 395.34C294.78 394.747 295.215 394.292 295.767 393.973C296.323 393.654 296.947 393.494 297.64 393.494C298.196 393.494 298.701 393.592 299.157 393.788C299.613 393.984 299.989 394.253 300.285 394.595C300.586 394.937 300.816 395.335 300.976 395.791C301.14 396.247 301.222 396.737 301.222 397.261V397.808H295.452C295.479 398.45 295.696 398.967 296.102 399.359C296.507 399.751 297.043 399.947 297.708 399.947C298.173 399.947 298.588 399.842 298.952 399.633C299.321 399.423 299.579 399.141 299.725 398.785H301.153C300.962 399.505 300.554 400.086 299.93 400.528C299.31 400.966 298.556 401.185 297.667 401.185C296.578 401.185 295.691 400.827 295.008 400.111C294.324 399.391 293.982 398.475 293.982 397.363ZM295.479 396.673H299.766C299.72 396.071 299.499 395.597 299.103 395.251C298.706 394.9 298.218 394.725 297.64 394.725C297.075 394.725 296.587 394.907 296.177 395.271C295.767 395.636 295.534 396.103 295.479 396.673ZM303.471 400.125C302.814 399.419 302.486 398.498 302.486 397.363C302.486 396.229 302.812 395.301 303.464 394.581C304.116 393.856 304.952 393.494 305.973 393.494C306.301 393.494 306.608 393.54 306.896 393.631C307.183 393.722 307.422 393.84 307.613 393.986C307.809 394.132 307.964 394.267 308.078 394.39C308.192 394.508 308.288 394.627 308.365 394.745H308.468V393.679H309.938V401H308.495V399.961H308.406C307.827 400.777 307.039 401.185 306.041 401.185C304.988 401.185 304.132 400.831 303.471 400.125ZM303.983 397.343C303.983 398.099 304.191 398.708 304.605 399.168C305.025 399.624 305.574 399.852 306.253 399.852C306.937 399.852 307.483 399.612 307.894 399.134C308.304 398.655 308.509 398.058 308.509 397.343C308.509 396.573 308.295 395.964 307.866 395.518C307.442 395.066 306.9 394.841 306.239 394.841C305.574 394.841 305.032 395.076 304.612 395.545C304.193 396.01 303.983 396.609 303.983 397.343ZM312.521 400.125C311.865 399.419 311.537 398.498 311.537 397.363C311.537 396.229 311.863 395.301 312.515 394.581C313.166 393.856 314.003 393.494 315.023 393.494C315.352 393.494 315.659 393.54 315.946 393.631C316.233 393.722 316.473 393.84 316.664 393.986C316.86 394.132 317.015 394.267 317.129 394.39C317.243 394.508 317.339 394.627 317.416 394.745H317.519V390.5H318.988V401H317.546V399.961H317.457C316.878 400.777 316.09 401.185 315.092 401.185C314.039 401.185 313.182 400.831 312.521 400.125ZM313.034 397.343C313.034 398.099 313.242 398.708 313.656 399.168C314.076 399.624 314.625 399.852 315.304 399.852C315.987 399.852 316.534 399.612 316.944 399.134C317.354 398.655 317.56 398.058 317.56 397.343C317.56 396.573 317.345 395.964 316.917 395.518C316.493 395.066 315.951 394.841 315.29 394.841C314.625 394.841 314.082 395.076 313.663 395.545C313.244 396.01 313.034 396.609 313.034 397.343Z" fill="#191528"/>
<g filter="url(#filter13_f_3175_44892)">
<rect x="83" y="52" width="104.659" height="102.478" rx="51.239" stroke="#E73AF6" stroke-width="2"/>
</g>
<g filter="url(#filter14_f_3175_44892)">
<rect x="82" y="51" width="106.659" height="104.478" rx="52.239" fill="#F800FF"/>
<rect x="83" y="52" width="104.659" height="102.478" rx="51.239" stroke="#E73AF6" stroke-width="2"/>
</g>
<g filter="url(#filter15_f_3175_44892)">
<rect x="82" y="51" width="106.659" height="104.478" rx="52.239" fill="#F800FF"/>
<rect x="83" y="52" width="104.659" height="102.478" rx="51.239" stroke="#E73AF6" stroke-width="2"/>
</g>
<g filter="url(#filter16_dd_3175_44892)">
<path d="M460.267 304C460.267 401.735 379.377 481 279.551 481C179.725 481 98.8359 401.735 98.8359 304C98.8359 206.265 179.725 127 279.551 127C379.377 127 460.267 206.265 460.267 304Z" stroke="#2E39A7" stroke-width="2" shape-rendering="crispEdges"/>
</g>
<g filter="url(#filter17_f_3175_44892)">
<rect x="43.8359" y="310" width="104.659" height="102.478" rx="51.239" stroke="#2E39A7" stroke-width="2"/>
</g>
<g filter="url(#filter18_f_3175_44892)">
<rect x="42.8359" y="309" width="106.659" height="104.478" rx="52.239" fill="#2E39A7"/>
<rect x="43.8359" y="310" width="104.659" height="102.478" rx="51.239" stroke="#2E39A7" stroke-width="2"/>
</g>
<g filter="url(#filter19_f_3175_44892)">
<rect x="42.8359" y="309" width="106.659" height="104.478" rx="52.239" fill="#2E39A7"/>
<rect x="43.8359" y="310" width="104.659" height="102.478" rx="51.239" stroke="#2E39A7" stroke-width="2"/>
</g>
<g filter="url(#filter20_f_3175_44892)">
<path fill-rule="evenodd" clip-rule="evenodd" d="M86.489 429.548H13.0234C10.8143 429.548 9.02344 431.339 9.02344 433.548V460.548C9.02344 462.758 10.8143 464.548 13.0234 464.548H190.173C192.382 464.548 194.173 462.758 194.173 460.548V433.548C194.173 431.339 192.382 429.548 190.173 429.548H104.156L95.9955 422.125C95.614 421.778 95.0312 421.778 94.6497 422.125L86.489 429.548Z" fill="#2E39A7"/>
</g>
<g filter="url(#filter21_f_3175_44892)">
<path fill-rule="evenodd" clip-rule="evenodd" d="M94.9642 422.075L103.747 430.064C104.223 430.496 104.149 431.18 103.746 431.548H189.149C191.358 431.548 193.149 433.339 193.149 435.548V462.548C193.149 464.758 191.358 466.548 189.149 466.548H12C9.79086 466.548 8 464.758 8 462.548V435.548C8 433.339 9.79086 431.548 12 431.548H84.8367C84.4337 431.18 84.3601 430.496 84.8352 430.064L93.6185 422.075C94 421.728 94.5827 421.728 94.9642 422.075Z" fill="#2E39A7"/>
</g>
<g filter="url(#filter22_f_3175_44892)">
<path fill-rule="evenodd" clip-rule="evenodd" d="M138.859 163.247L147.642 171.236C148.117 171.668 148.043 172.352 147.641 172.72H233.044C235.253 172.72 237.044 174.511 237.044 176.72V203.72C237.044 205.929 235.253 207.72 233.044 207.72H55.8945C53.6854 207.72 51.8945 205.929 51.8945 203.72V176.72C51.8945 174.511 53.6854 172.72 55.8945 172.72H128.731C128.328 172.352 128.255 171.668 128.73 171.236L137.513 163.247C137.894 162.9 138.477 162.9 138.859 163.247Z" fill="#F800FF"/>
</g>
<g filter="url(#filter23_f_3175_44892)">
<path fill-rule="evenodd" clip-rule="evenodd" d="M129.36 172.72H55.8945C53.6854 172.72 51.8945 174.511 51.8945 176.72V203.72C51.8945 205.929 53.6854 207.72 55.8945 207.72H233.044C235.253 207.72 237.044 205.929 237.044 203.72V176.72C237.044 174.511 235.253 172.72 233.044 172.72H147.027L138.867 165.297C138.485 164.95 137.902 164.95 137.521 165.297L129.36 172.72Z" fill="#F800FF"/>
</g>
<path d="M104.08 195.721V184.521H110.72V186.041H105.808V189.449H110.336V190.953H105.808V195.721H104.08ZM112.733 195.721V187.353H114.349V188.809H114.461C114.717 188.137 115.517 187.337 116.701 187.337H117.437V188.969H116.653C115.229 188.969 114.413 190.041 114.413 191.593V195.721H112.733ZM122.901 195.929C120.325 195.929 118.485 194.057 118.485 191.545C118.485 189.033 120.341 187.145 122.917 187.145C125.493 187.145 127.317 189.049 127.317 191.545C127.317 194.041 125.461 195.929 122.901 195.929ZM122.901 194.409C124.485 194.409 125.605 193.193 125.605 191.545C125.605 189.881 124.485 188.681 122.901 188.681C121.317 188.681 120.197 189.897 120.197 191.545C120.197 193.209 121.333 194.409 122.901 194.409ZM129.343 195.721V187.353H130.975V188.473H131.087C131.423 187.785 132.287 187.145 133.535 187.145C135.439 187.145 136.607 188.537 136.607 190.345V195.721H134.927V190.665C134.927 189.497 134.111 188.713 133.055 188.713C131.887 188.713 131.023 189.625 131.023 190.841V195.721H129.343ZM142.486 195.721C140.838 195.721 139.846 194.809 139.846 193.065V188.729H138.342V187.369H139.446C139.734 187.369 139.942 187.161 139.942 186.825V184.985H141.526V187.353H143.958V188.729H141.526V193.017C141.526 193.817 141.862 194.297 142.742 194.297H143.878V195.721H142.486ZM150.424 195.721V184.521H157.064V186.041H152.152V189.289H156.36V190.793H152.152V194.217H157.224V195.721H150.424ZM159.28 195.721V187.353H160.912V188.473H161.024C161.36 187.785 162.224 187.145 163.472 187.145C165.376 187.145 166.544 188.537 166.544 190.345V195.721H164.864V190.665C164.864 189.497 164.048 188.713 162.992 188.713C161.824 188.713 160.96 189.625 160.96 190.841V195.721H159.28ZM172.44 195.929C170.04 195.929 168.376 194.153 168.376 191.561C168.376 188.969 170.024 187.145 172.36 187.145C173.96 187.145 174.824 188.137 175.096 188.569H175.208V183.721H176.888V195.721H175.24V194.537H175.144C174.92 194.857 174.104 195.929 172.44 195.929ZM172.68 194.409C174.28 194.409 175.256 193.129 175.256 191.545C175.256 189.737 174.136 188.681 172.664 188.681C171.144 188.681 170.088 189.865 170.088 191.545C170.088 193.289 171.144 194.409 172.68 194.409Z" fill="white"/>
<path d="M80.6386 452.755C77.9186 452.755 76.3186 451.027 76.3186 448.451V441.347H78.0466V448.435C78.0466 450.099 78.9266 451.155 80.6386 451.155C82.3346 451.155 83.2306 450.099 83.2306 448.419V441.347H84.9426V448.435C84.9426 451.011 83.3106 452.755 80.6386 452.755ZM86.3861 452.547L90.0501 446.851L86.5781 441.347H88.5301L91.0901 445.475H91.1861L93.7621 441.347H95.7301L92.2421 446.851L95.8901 452.547H93.8901L91.1701 448.195H91.0741L88.3861 452.547H86.3861ZM96.8848 454.275L101.749 440.547H103.333L98.4688 454.275H96.8848ZM109.701 452.755C106.981 452.755 105.381 451.027 105.381 448.451V441.347H107.109V448.435C107.109 450.099 107.989 451.155 109.701 451.155C111.397 451.155 112.293 450.099 112.293 448.419V441.347H114.005V448.435C114.005 451.011 112.373 452.755 109.701 452.755ZM116.713 452.547V441.347H118.441V452.547H116.713Z" fill="white"/>
<g filter="url(#filter24_f_3175_44892)">
<path fill-rule="evenodd" clip-rule="evenodd" d="M454.028 548.312L462.218 556.259C462.669 556.696 462.588 557.361 462.193 557.722H541.998C544.207 557.722 545.998 559.513 545.998 561.722V588.722C545.998 590.931 544.207 592.722 541.998 592.722H376.449C374.24 592.722 372.449 590.931 372.449 588.722V561.722C372.449 559.513 374.24 557.722 376.449 557.722H444.471C444.075 557.361 443.995 556.696 444.445 556.259L452.635 548.312C453.023 547.935 453.64 547.935 454.028 548.312Z" fill="#D6E05F"/>
</g>
<g filter="url(#filter25_f_3175_44892)">
<path fill-rule="evenodd" clip-rule="evenodd" d="M445.059 557.671H376.449C374.24 557.671 372.449 559.462 372.449 561.671V588.671C372.449 590.88 374.24 592.671 376.449 592.671H541.998C544.207 592.671 545.998 590.88 545.998 588.671V561.671C545.998 559.462 544.207 557.671 541.998 557.671H461.62L454.036 550.312C453.648 549.935 453.031 549.935 452.643 550.312L445.059 557.671Z" fill="#D6E05F"/>
</g>
<path d="M420.864 581.21C417.488 581.21 415.056 578.73 415.056 575.402C415.056 572.106 417.504 569.594 420.864 569.594C423.6 569.594 425.584 571.242 426.24 573.578H424.384C423.888 572.09 422.496 571.226 420.864 571.226C418.576 571.226 416.848 573.018 416.848 575.402C416.848 577.818 418.576 579.578 420.864 579.578C422.496 579.578 423.872 578.73 424.384 577.242H426.272C425.648 579.61 423.584 581.21 420.864 581.21ZM432.159 581.21C429.583 581.21 427.743 579.338 427.743 576.826C427.743 574.314 429.599 572.426 432.175 572.426C434.751 572.426 436.575 574.33 436.575 576.826C436.575 579.322 434.719 581.21 432.159 581.21ZM432.159 579.69C433.743 579.69 434.863 578.474 434.863 576.826C434.863 575.162 433.743 573.962 432.159 573.962C430.575 573.962 429.455 575.178 429.455 576.826C429.455 578.49 430.591 579.69 432.159 579.69ZM438.601 581.002V572.634H440.233V573.754H440.345C440.681 573.066 441.545 572.426 442.793 572.426C444.697 572.426 445.865 573.818 445.865 575.626V581.002H444.185V575.946C444.185 574.778 443.369 573.994 442.313 573.994C441.145 573.994 440.281 574.906 440.281 576.122V581.002H438.601ZM451.744 581.002C450.096 581.002 449.104 580.09 449.104 578.346V574.01H447.6V572.65H448.704C448.992 572.65 449.2 572.442 449.2 572.106V570.266H450.784V572.634H453.216V574.01H450.784V578.298C450.784 579.098 451.12 579.578 452 579.578H453.136V581.002H451.744ZM458.826 581.21C456.314 581.21 454.618 579.354 454.618 576.842C454.618 574.186 456.41 572.426 458.794 572.426C461.402 572.426 462.89 574.346 462.89 576.73V577.354H456.298C456.362 578.81 457.338 579.802 458.874 579.802C459.93 579.802 460.842 579.29 461.178 578.474H462.81C462.378 580.09 460.89 581.21 458.826 581.21ZM456.33 576.058H461.226C461.114 574.65 460.09 573.834 458.794 573.834C457.514 573.834 456.458 574.746 456.33 576.058ZM464.929 581.002V572.634H466.561V573.754H466.673C467.009 573.066 467.873 572.426 469.121 572.426C471.025 572.426 472.193 573.818 472.193 575.626V581.002H470.513V575.946C470.513 574.778 469.697 573.994 468.641 573.994C467.473 573.994 466.609 574.906 466.609 576.122V581.002H464.929ZM475.464 571.322C474.824 571.322 474.36 570.89 474.36 570.25C474.36 569.642 474.824 569.194 475.464 569.194C476.12 569.194 476.584 569.642 476.584 570.25C476.584 570.89 476.12 571.322 475.464 571.322ZM474.616 581.002V572.634H476.296V581.002H474.616ZM482.182 581.21C479.782 581.21 478.118 579.434 478.118 576.842C478.118 574.25 479.766 572.426 482.102 572.426C483.702 572.426 484.566 573.418 484.838 573.85H484.95V569.002H486.63V581.002H484.982V579.818H484.886C484.662 580.138 483.846 581.21 482.182 581.21ZM482.422 579.69C484.022 579.69 484.998 578.41 484.998 576.826C484.998 575.018 483.878 573.962 482.406 573.962C480.886 573.962 479.83 575.146 479.83 576.826C479.83 578.57 480.886 579.69 482.422 579.69ZM492.878 581.21C490.302 581.21 488.462 579.338 488.462 576.826C488.462 574.314 490.318 572.426 492.894 572.426C495.47 572.426 497.294 574.33 497.294 576.826C497.294 579.322 495.438 581.21 492.878 581.21ZM492.878 579.69C494.462 579.69 495.582 578.474 495.582 576.826C495.582 575.162 494.462 573.962 492.878 573.962C491.294 573.962 490.174 575.178 490.174 576.826C490.174 578.49 491.31 579.69 492.878 579.69Z" fill="#191528"/>
<g filter="url(#filter26_f_3175_44892)">
<path fill-rule="evenodd" clip-rule="evenodd" d="M347.867 8C345.658 8 343.867 9.79086 343.867 12V39C343.867 41.2091 345.658 43 347.867 43H427.256C427.053 43.3792 427.088 43.8831 427.47 44.2237L436.338 52.1233C436.723 52.4664 437.305 52.4605 437.683 52.1097L446.382 44.032C446.694 43.7415 446.764 43.3421 446.655 43H525.016C527.226 43 529.016 41.2091 529.016 39V12C529.016 9.79086 527.226 8 525.016 8H347.867Z" fill="#F800FF"/>
</g>
<g filter="url(#filter27_f_3175_44892)">
<path fill-rule="evenodd" clip-rule="evenodd" d="M347.867 8C345.658 8 343.867 9.79086 343.867 12V39C343.867 41.2091 345.658 43 347.867 43H428.261C428.316 43.1079 428.393 43.2096 428.495 43.2997L437.389 51.1697C437.776 51.5115 438.359 51.5036 438.735 51.1515L447.405 43.0448C447.421 43.0302 447.436 43.0152 447.451 43H525.016C527.226 43 529.016 41.2091 529.016 39V12C529.016 9.79086 527.226 8 525.016 8H347.867Z" fill="#F800FF"/>
</g>
<path d="M395.451 31V19.8H399.339C401.499 19.8 402.747 21.048 402.747 22.696C402.747 23.768 402.235 24.6 401.387 25.064V25.16C402.123 25.448 403.131 26.248 403.131 27.784C403.131 29.816 401.531 31 399.659 31H395.451ZM397.131 24.52H399.195C400.299 24.52 401.035 23.848 401.035 22.856C401.035 21.896 400.283 21.272 399.227 21.272H397.131V24.52ZM397.131 29.528H399.291C400.459 29.528 401.339 28.952 401.339 27.672C401.339 26.392 400.315 25.864 399.179 25.864H397.131V29.528ZM408.623 31.208C406.223 31.208 404.559 29.432 404.559 26.84C404.559 24.248 406.207 22.424 408.543 22.424C410.143 22.424 411.007 23.416 411.279 23.848H411.391V22.632H413.071V31H411.423V29.816H411.327C411.103 30.136 410.287 31.208 408.623 31.208ZM408.863 29.688C410.463 29.688 411.439 28.408 411.439 26.824C411.439 25.016 410.319 23.96 408.847 23.96C407.327 23.96 406.271 25.144 406.271 26.824C406.271 28.568 407.327 29.688 408.863 29.688ZM419.255 31.208C416.663 31.208 414.903 29.288 414.903 26.824C414.903 24.344 416.695 22.424 419.239 22.424C421.223 22.424 422.903 23.64 423.287 25.56H421.559C421.271 24.6 420.359 23.96 419.255 23.96C417.671 23.96 416.631 25.208 416.631 26.824C416.631 28.472 417.719 29.688 419.287 29.688C420.359 29.688 421.287 29.048 421.575 28.104H423.287C422.919 30.024 421.223 31.208 419.255 31.208ZM432.587 31H430.683L428.315 27.048L427.019 28.472V31H425.339V19H427.019V26.2H427.115L430.283 22.632H432.379L429.467 25.8L432.587 31ZM442.998 31V19.8H449.638V21.32H444.726V24.568H448.934V26.072H444.726V29.496H449.798V31H442.998ZM451.855 31V22.632H453.487V23.752H453.599C453.935 23.064 454.799 22.424 456.047 22.424C457.951 22.424 459.119 23.816 459.119 25.624V31H457.439V25.944C457.439 24.776 456.623 23.992 455.567 23.992C454.399 23.992 453.535 24.904 453.535 26.12V31H451.855ZM465.014 31.208C462.614 31.208 460.95 29.432 460.95 26.84C460.95 24.248 462.598 22.424 464.934 22.424C466.534 22.424 467.398 23.416 467.67 23.848H467.782V19H469.462V31H467.814V29.816H467.718C467.494 30.136 466.678 31.208 465.014 31.208ZM465.254 29.688C466.854 29.688 467.83 28.408 467.83 26.824C467.83 25.016 466.71 23.96 465.238 23.96C463.718 23.96 462.662 25.144 462.662 26.824C462.662 28.568 463.718 29.688 465.254 29.688Z" fill="white"/>
<path d="M436 61C426.111 61 416.444 63.9324 408.222 69.4265C399.999 74.9206 393.59 82.7295 389.806 91.8658C386.022 101.002 385.031 111.055 386.961 120.755C388.89 130.454 393.652 139.363 400.645 146.355C407.637 153.348 416.546 158.11 426.246 160.039C435.945 161.969 445.998 160.978 455.134 157.194C464.271 153.41 472.079 147.001 477.574 138.779C483.068 130.556 486 120.889 486 111C485.985 97.7436 480.713 85.0344 471.339 75.6607C461.966 66.2871 449.256 61.0146 436 61ZM406.435 146.21C409.403 140.985 413.702 136.639 418.895 133.616C424.089 130.593 429.991 129 436 129C442.009 129 447.911 130.593 453.105 133.616C458.298 136.639 462.597 140.985 465.565 146.21C457.29 153.178 446.819 157 436 157C425.181 157 414.71 153.178 406.435 146.21ZM468.585 143.435C463.616 135.128 455.651 129.044 446.33 126.435C450.664 124.13 454.102 120.442 456.099 115.958C458.095 111.474 458.534 106.451 457.346 101.688C456.159 96.9251 453.412 92.6964 449.544 89.6745C445.676 86.6526 440.909 85.011 436 85.011C431.091 85.011 426.324 86.6526 422.456 89.6745C418.588 92.6964 415.841 96.9251 414.654 101.688C413.466 106.451 413.905 111.474 415.901 115.958C417.898 120.442 421.336 124.13 425.67 126.435C416.349 129.044 408.384 135.128 403.415 143.435C396.998 136.995 392.634 128.799 390.872 119.88C389.11 110.961 390.031 101.721 393.517 93.3249C397.004 84.929 402.9 77.7545 410.461 72.7073C418.022 67.66 426.909 64.9663 436 64.9663C445.091 64.9663 453.978 67.66 461.539 72.7073C469.1 77.7545 474.996 84.929 478.483 93.3249C481.969 101.721 482.89 110.961 481.128 119.88C479.367 128.799 475.002 136.995 468.585 143.435ZM436 125C432.44 125 428.96 123.944 426 121.966C423.04 119.989 420.733 117.177 419.37 113.888C418.008 110.599 417.651 106.98 418.346 103.488C419.04 99.9967 420.755 96.7894 423.272 94.2721C425.789 91.7547 428.997 90.0404 432.488 89.3459C435.98 88.6513 439.599 89.0078 442.888 90.3702C446.177 91.7325 448.989 94.0397 450.966 96.9997C452.944 99.9598 454 103.44 454 107C454 111.774 452.104 116.352 448.728 119.728C445.352 123.104 440.774 125 436 125Z" fill="white"/>
<path d="M135 54C125.111 54 115.444 56.9324 107.222 62.4265C98.9991 67.9206 92.5904 75.7295 88.806 84.8658C85.0217 94.0021 84.0315 104.055 85.9608 113.755C87.89 123.454 92.6521 132.363 99.6447 139.355C106.637 146.348 115.546 151.11 125.246 153.039C134.945 154.969 144.998 153.978 154.134 150.194C163.271 146.41 171.079 140.001 176.574 131.779C182.068 123.556 185 113.889 185 104C184.985 90.7436 179.713 78.0344 170.339 68.6607C160.966 59.2871 148.256 54.0146 135 54ZM105.435 139.21C108.403 133.985 112.702 129.639 117.895 126.616C123.089 123.593 128.991 122 135 122C141.009 122 146.911 123.593 152.105 126.616C157.298 129.639 161.597 133.985 164.565 139.21C156.29 146.178 145.819 150 135 150C124.181 150 113.71 146.178 105.435 139.21ZM167.585 136.435C162.616 128.128 154.651 122.044 145.33 119.435C149.664 117.13 153.102 113.442 155.099 108.958C157.095 104.474 157.534 99.4505 156.346 94.6878C155.159 89.9251 152.412 85.6964 148.544 82.6745C144.676 79.6526 139.909 78.011 135 78.011C130.091 78.011 125.324 79.6526 121.456 82.6745C117.588 85.6964 114.841 89.9251 113.654 94.6878C112.466 99.4505 112.905 104.474 114.901 108.958C116.898 113.442 120.336 117.13 124.67 119.435C115.349 122.044 107.384 128.128 102.415 136.435C95.9983 129.995 91.6335 121.799 89.8719 112.88C88.1103 103.961 89.0309 94.7207 92.5173 86.3249C96.0038 77.929 101.9 70.7545 109.461 65.7073C117.022 60.66 125.909 57.9663 135 57.9663C144.091 57.9663 152.978 60.66 160.539 65.7073C168.1 70.7545 173.996 77.929 177.483 86.3249C180.969 94.7207 181.89 103.961 180.128 112.88C178.367 121.799 174.002 129.995 167.585 136.435ZM135 118C131.44 118 127.96 116.944 125 114.966C122.04 112.989 119.733 110.177 118.37 106.888C117.008 103.599 116.651 99.98 117.346 96.4884C118.04 92.9967 119.755 89.7894 122.272 87.2721C124.789 84.7547 127.997 83.0404 131.488 82.3459C134.98 81.6513 138.599 82.0078 141.888 83.3702C145.177 84.7325 147.989 87.0397 149.966 89.9997C151.944 92.9598 153 96.4399 153 100C153 104.774 151.104 109.352 147.728 112.728C144.352 116.104 139.774 118 135 118Z" fill="white"/>
<path d="M452 440C442.111 440 432.444 442.932 424.222 448.427C415.999 453.921 409.59 461.73 405.806 470.866C402.022 480.002 401.031 490.055 402.961 499.755C404.89 509.454 409.652 518.363 416.645 525.355C423.637 532.348 432.546 537.11 442.246 539.039C451.945 540.969 461.998 539.978 471.134 536.194C480.271 532.41 488.079 526.001 493.574 517.779C499.068 509.556 502 499.889 502 490C501.985 476.744 496.713 464.034 487.339 454.661C477.966 445.287 465.256 440.015 452 440ZM422.435 525.21C425.403 519.985 429.702 515.639 434.895 512.616C440.089 509.593 445.991 508 452 508C458.009 508 463.911 509.593 469.105 512.616C474.298 515.639 478.597 519.985 481.565 525.21C473.29 532.178 462.819 536 452 536C441.181 536 430.71 532.178 422.435 525.21ZM484.585 522.435C479.616 514.128 471.651 508.044 462.33 505.435C466.664 503.13 470.102 499.442 472.099 494.958C474.095 490.474 474.534 485.451 473.346 480.688C472.159 475.925 469.412 471.696 465.544 468.674C461.676 465.653 456.909 464.011 452 464.011C447.091 464.011 442.324 465.653 438.456 468.674C434.588 471.696 431.841 475.925 430.654 480.688C429.466 485.451 429.905 490.474 431.901 494.958C433.898 499.442 437.336 503.13 441.67 505.435C432.349 508.044 424.384 514.128 419.415 522.435C412.998 515.995 408.634 507.799 406.872 498.88C405.11 489.961 406.031 480.721 409.517 472.325C413.004 463.929 418.9 456.755 426.461 451.707C434.022 446.66 442.909 443.966 452 443.966C461.091 443.966 469.978 446.66 477.539 451.707C485.1 456.755 490.996 463.929 494.483 472.325C497.969 480.721 498.89 489.961 497.128 498.88C495.367 507.799 491.002 515.995 484.585 522.435ZM452 504C448.44 504 444.96 502.944 442 500.966C439.04 498.989 436.733 496.177 435.37 492.888C434.008 489.599 433.651 485.98 434.346 482.488C435.04 478.997 436.755 475.789 439.272 473.272C441.789 470.755 444.997 469.04 448.488 468.346C451.98 467.651 455.599 468.008 458.888 469.37C462.177 470.733 464.989 473.04 466.966 476C468.944 478.96 470 482.44 470 486C470 490.774 468.104 495.352 464.728 498.728C461.352 502.104 456.774 504 452 504Z" fill="white"/>
<path d="M96 311C86.111 311 76.444 313.932 68.2215 319.427C59.9991 324.921 53.5904 332.73 49.806 341.866C46.0217 351.002 45.0315 361.055 46.9608 370.755C48.89 380.454 53.6521 389.363 60.6447 396.355C67.6373 403.348 76.5465 408.11 86.2455 410.039C95.9446 411.969 105.998 410.978 115.134 407.194C124.271 403.41 132.079 397.001 137.574 388.779C143.068 380.556 146 370.889 146 361C145.985 347.744 140.713 335.034 131.339 325.661C121.966 316.287 109.256 311.015 96 311ZM66.435 396.21C69.4026 390.985 73.702 386.639 78.8954 383.616C84.0889 380.593 89.9908 379 96 379C102.009 379 107.911 380.593 113.105 383.616C118.298 386.639 122.597 390.985 125.565 396.21C117.29 403.178 106.819 407 96 407C85.1814 407 74.7105 403.178 66.435 396.21ZM128.585 393.435C123.616 385.128 115.651 379.044 106.33 376.435C110.664 374.13 114.102 370.442 116.099 365.958C118.095 361.474 118.534 356.451 117.346 351.688C116.159 346.925 113.412 342.696 109.544 339.674C105.676 336.653 100.909 335.011 96 335.011C91.0915 335.011 86.3239 336.653 82.4558 339.674C78.5878 342.696 75.8414 346.925 74.6537 351.688C73.4661 356.451 73.9053 361.474 75.9015 365.958C77.8977 370.442 81.3362 374.13 85.67 376.435C76.349 379.044 68.3836 385.128 63.415 393.435C56.9983 386.995 52.6335 378.799 50.8719 369.88C49.1103 360.961 50.0309 351.721 53.5173 343.325C57.0038 334.929 62.8998 327.755 70.4609 322.707C78.022 317.66 86.9091 314.966 96 314.966C105.091 314.966 113.978 317.66 121.539 322.707C129.1 327.755 134.996 334.929 138.483 343.325C141.969 351.721 142.89 360.961 141.128 369.88C139.367 378.799 135.002 386.995 128.585 393.435ZM96 375C92.44 375 88.9598 373.944 85.9998 371.966C83.0397 369.989 80.7326 367.177 79.3702 363.888C78.0078 360.599 77.6514 356.98 78.3459 353.488C79.0404 349.997 80.7548 346.789 83.2721 344.272C85.7894 341.755 88.9967 340.04 92.4884 339.346C95.9801 338.651 99.5993 339.008 102.888 340.37C106.177 341.733 108.989 344.04 110.966 347C112.944 349.96 114 353.44 114 357C114 361.774 112.104 366.352 108.728 369.728C105.352 373.104 100.774 375 96 375Z" fill="white"/>
<path d="M285 238.969C273.72 238.969 262.694 242.314 253.315 248.58C243.936 254.847 236.627 263.754 232.31 274.175C227.993 284.596 226.864 296.063 229.065 307.126C231.265 318.189 236.697 328.351 244.673 336.327C252.649 344.303 262.811 349.735 273.874 351.935C284.937 354.136 296.404 353.007 306.825 348.69C317.246 344.373 326.153 337.064 332.42 327.685C338.686 318.306 342.031 307.28 342.031 296C342.015 280.879 336.001 266.383 325.309 255.691C314.617 244.999 300.121 238.985 285 238.969ZM251.277 336.161C254.662 330.201 259.566 325.245 265.49 321.796C271.414 318.348 278.146 316.531 285 316.531C291.854 316.531 298.586 318.348 304.51 321.796C310.434 325.245 315.338 330.201 318.723 336.161C309.283 344.11 297.34 348.469 285 348.469C272.66 348.469 260.717 344.11 251.277 336.161ZM322.167 332.996C316.5 323.521 307.415 316.581 296.783 313.606C301.726 310.977 305.648 306.77 307.925 301.655C310.202 296.54 310.703 290.811 309.348 285.378C307.993 279.946 304.861 275.122 300.449 271.676C296.037 268.229 290.599 266.356 285 266.356C279.401 266.356 273.963 268.229 269.551 271.676C265.139 275.122 262.007 279.946 260.652 285.378C259.297 290.811 259.798 296.54 262.075 301.655C264.352 306.77 268.274 310.977 273.217 313.606C262.586 316.581 253.5 323.521 247.833 332.996C240.514 325.651 235.535 316.301 233.526 306.129C231.516 295.956 232.566 285.416 236.543 275.839C240.52 266.263 247.245 258.079 255.869 252.322C264.494 246.565 274.631 243.493 285 243.493C295.369 243.493 305.506 246.565 314.131 252.322C322.755 258.079 329.48 266.263 333.457 275.839C337.434 285.416 338.484 295.956 336.474 306.129C334.465 316.301 329.486 325.651 322.167 332.996ZM285 311.969C280.939 311.969 276.97 310.765 273.593 308.509C270.217 306.253 267.586 303.046 266.032 299.294C264.478 295.543 264.071 291.415 264.863 287.432C265.655 283.449 267.611 279.791 270.482 276.92C273.354 274.048 277.012 272.093 280.995 271.301C284.977 270.509 289.105 270.915 292.857 272.469C296.609 274.023 299.815 276.655 302.071 280.031C304.327 283.407 305.531 287.377 305.531 291.438C305.531 296.883 303.368 302.105 299.518 305.955C295.667 309.806 290.445 311.969 285 311.969Z" fill="white"/>
<defs>
<filter id="filter0_dd_3175_44892" x="147.676" y="167.195" width="274.434" height="271.656" filterUnits="userSpaceOnUse" color-interpolation-filters="sRGB">
<feFlood flood-opacity="0" result="BackgroundImageFix"/>
<feColorMatrix in="SourceAlpha" type="matrix" values="0 0 0 0 0 0 0 0 0 0 0 0 0 0 0 0 0 0 127 0" result="hardAlpha"/>
<feOffset dy="4"/>
<feGaussianBlur stdDeviation="5"/>
<feComposite in2="hardAlpha" operator="out"/>
<feColorMatrix type="matrix" values="0 0 0 0 0 0 0 0 0 0 0 0 0 0 0 0 0 0 1 0"/>
<feBlend mode="normal" in2="BackgroundImageFix" result="effect1_dropShadow_3175_44892"/>
<feColorMatrix in="SourceAlpha" type="matrix" values="0 0 0 0 0 0 0 0 0 0 0 0 0 0 0 0 0 0 127 0" result="hardAlpha"/>
<feOffset dx="-5" dy="-5"/>
<feGaussianBlur stdDeviation="2"/>
<feComposite in2="hardAlpha" operator="out"/>
<feColorMatrix type="matrix" values="0 0 0 0 1 0 0 0 0 1 0 0 0 0 1 0 0 0 0.1 0"/>
<feBlend mode="normal" in2="effect1_dropShadow_3175_44892" result="effect2_dropShadow_3175_44892"/>
<feBlend mode="normal" in="SourceGraphic" in2="effect2_dropShadow_3175_44892" result="shape"/>
</filter>
<filter id="filter1_d_3175_44892" x="214.48" y="231.562" width="140.453" height="137.746" filterUnits="userSpaceOnUse" color-interpolation-filters="sRGB">
<feFlood flood-opacity="0" result="BackgroundImageFix"/>
<feColorMatrix in="SourceAlpha" type="matrix" values="0 0 0 0 0 0 0 0 0 0 0 0 0 0 0 0 0 0 127 0" result="hardAlpha"/>
<feOffset dy="4"/>
<feGaussianBlur stdDeviation="2"/>
<feComposite in2="hardAlpha" operator="out"/>
<feColorMatrix type="matrix" values="0 0 0 0 0.180392 0 0 0 0 0.223529 0 0 0 0 0.654902 0 0 0 1 0"/>
<feBlend mode="normal" in2="BackgroundImageFix" result="effect1_dropShadow_3175_44892"/>
<feBlend mode="normal" in="SourceGraphic" in2="effect1_dropShadow_3175_44892" result="shape"/>
</filter>
<filter id="filter2_d_3175_44892" x="205.664" y="220.928" width="157.852" height="154.787" filterUnits="userSpaceOnUse" color-interpolation-filters="sRGB">
<feFlood flood-opacity="0" result="BackgroundImageFix"/>
<feColorMatrix in="SourceAlpha" type="matrix" values="0 0 0 0 0 0 0 0 0 0 0 0 0 0 0 0 0 0 127 0" result="hardAlpha"/>
<feOffset dy="2"/>
<feGaussianBlur stdDeviation="2"/>
<feComposite in2="hardAlpha" operator="out"/>
<feColorMatrix type="matrix" values="0 0 0 0 0.905882 0 0 0 0 0.227451 0 0 0 0 0.964706 0 0 0 1 0"/>
<feBlend mode="normal" in2="BackgroundImageFix" result="effect1_dropShadow_3175_44892"/>
<feBlend mode="normal" in="SourceGraphic" in2="effect1_dropShadow_3175_44892" result="shape"/>
</filter>
<filter id="filter3_f_3175_44892" x="146.066" y="160.301" width="277.051" height="272.041" filterUnits="userSpaceOnUse" color-interpolation-filters="sRGB">
<feFlood flood-opacity="0" result="BackgroundImageFix"/>
<feBlend mode="normal" in="SourceGraphic" in2="BackgroundImageFix" result="shape"/>
<feGaussianBlur stdDeviation="5" result="effect1_foregroundBlur_3175_44892"/>
</filter>
<filter id="filter4_d_3175_44892" x="9" y="46" width="536.645" height="525" filterUnits="userSpaceOnUse" color-interpolation-filters="sRGB">
<feFlood flood-opacity="0" result="BackgroundImageFix"/>
<feColorMatrix in="SourceAlpha" type="matrix" values="0 0 0 0 0 0 0 0 0 0 0 0 0 0 0 0 0 0 127 0" result="hardAlpha"/>
<feOffset/>
<feGaussianBlur stdDeviation="4"/>
<feComposite in2="hardAlpha" operator="out"/>
<feColorMatrix type="matrix" values="0 0 0 0 0.839216 0 0 0 0 0.878431 0 0 0 0 0.372549 0 0 0 1 0"/>
<feBlend mode="normal" in2="BackgroundImageFix" result="effect1_dropShadow_3175_44892"/>
<feBlend mode="normal" in="SourceGraphic" in2="effect1_dropShadow_3175_44892" result="shape"/>
</filter>
<filter id="filter5_f_3175_44892" x="388.625" y="428" width="126.66" height="124.479" filterUnits="userSpaceOnUse" color-interpolation-filters="sRGB">
<feFlood flood-opacity="0" result="BackgroundImageFix"/>
<feBlend mode="normal" in="SourceGraphic" in2="BackgroundImageFix" result="shape"/>
<feGaussianBlur stdDeviation="5" result="effect1_foregroundBlur_3175_44892"/>
</filter>
<filter id="filter6_f_3175_44892" x="393.625" y="433" width="116.66" height="114.479" filterUnits="userSpaceOnUse" color-interpolation-filters="sRGB">
<feFlood flood-opacity="0" result="BackgroundImageFix"/>
<feBlend mode="normal" in="SourceGraphic" in2="BackgroundImageFix" result="shape"/>
<feGaussianBlur stdDeviation="2.5" result="effect1_foregroundBlur_3175_44892"/>
</filter>
<filter id="filter7_f_3175_44892" x="396.625" y="436" width="110.66" height="108.479" filterUnits="userSpaceOnUse" color-interpolation-filters="sRGB">
<feFlood flood-opacity="0" result="BackgroundImageFix"/>
<feBlend mode="normal" in="SourceGraphic" in2="BackgroundImageFix" result="shape"/>
<feGaussianBlur stdDeviation="1" result="effect1_foregroundBlur_3175_44892"/>
</filter>
<filter id="filter8_f_3175_44892" x="373.684" y="49" width="126.66" height="124.479" filterUnits="userSpaceOnUse" color-interpolation-filters="sRGB">
<feFlood flood-opacity="0" result="BackgroundImageFix"/>
<feBlend mode="normal" in="SourceGraphic" in2="BackgroundImageFix" result="shape"/>
<feGaussianBlur stdDeviation="5" result="effect1_foregroundBlur_3175_44892"/>
</filter>
<filter id="filter9_f_3175_44892" x="378.684" y="54" width="116.66" height="114.479" filterUnits="userSpaceOnUse" color-interpolation-filters="sRGB">
<feFlood flood-opacity="0" result="BackgroundImageFix"/>
<feBlend mode="normal" in="SourceGraphic" in2="BackgroundImageFix" result="shape"/>
<feGaussianBlur stdDeviation="2.5" result="effect1_foregroundBlur_3175_44892"/>
</filter>
<filter id="filter10_f_3175_44892" x="381.684" y="57" width="110.66" height="108.479" filterUnits="userSpaceOnUse" color-interpolation-filters="sRGB">
<feFlood flood-opacity="0" result="BackgroundImageFix"/>
<feBlend mode="normal" in="SourceGraphic" in2="BackgroundImageFix" result="shape"/>
<feGaussianBlur stdDeviation="1" result="effect1_foregroundBlur_3175_44892"/>
</filter>
<filter id="filter11_f_3175_44892" x="223.426" y="369.037" width="131.652" height="44.9629" filterUnits="userSpaceOnUse" color-interpolation-filters="sRGB">
<feFlood flood-opacity="0" result="BackgroundImageFix"/>
<feBlend mode="normal" in="SourceGraphic" in2="BackgroundImageFix" result="shape"/>
<feGaussianBlur stdDeviation="0.5" result="effect1_foregroundBlur_3175_44892"/>
</filter>
<filter id="filter12_f_3175_44892" x="215.406" y="361.986" width="146.672" height="61.0137" filterUnits="userSpaceOnUse" color-interpolation-filters="sRGB">
<feFlood flood-opacity="0" result="BackgroundImageFix"/>
<feBlend mode="normal" in="SourceGraphic" in2="BackgroundImageFix" result="shape"/>
<feGaussianBlur stdDeviation="4" result="effect1_foregroundBlur_3175_44892"/>
</filter>
<filter id="filter13_f_3175_44892" x="72" y="41" width="126.66" height="124.479" filterUnits="userSpaceOnUse" color-interpolation-filters="sRGB">
<feFlood flood-opacity="0" result="BackgroundImageFix"/>
<feBlend mode="normal" in="SourceGraphic" in2="BackgroundImageFix" result="shape"/>
<feGaussianBlur stdDeviation="5" result="effect1_foregroundBlur_3175_44892"/>
</filter>
<filter id="filter14_f_3175_44892" x="77" y="46" width="116.66" height="114.479" filterUnits="userSpaceOnUse" color-interpolation-filters="sRGB">
<feFlood flood-opacity="0" result="BackgroundImageFix"/>
<feBlend mode="normal" in="SourceGraphic" in2="BackgroundImageFix" result="shape"/>
<feGaussianBlur stdDeviation="2.5" result="effect1_foregroundBlur_3175_44892"/>
</filter>
<filter id="filter15_f_3175_44892" x="80" y="49" width="110.66" height="108.479" filterUnits="userSpaceOnUse" color-interpolation-filters="sRGB">
<feFlood flood-opacity="0" result="BackgroundImageFix"/>
<feBlend mode="normal" in="SourceGraphic" in2="BackgroundImageFix" result="shape"/>
<feGaussianBlur stdDeviation="1" result="effect1_foregroundBlur_3175_44892"/>
</filter>
<filter id="filter16_dd_3175_44892" x="82.8359" y="111" width="388.43" height="381" filterUnits="userSpaceOnUse" color-interpolation-filters="sRGB">
<feFlood flood-opacity="0" result="BackgroundImageFix"/>
<feColorMatrix in="SourceAlpha" type="matrix" values="0 0 0 0 0 0 0 0 0 0 0 0 0 0 0 0 0 0 127 0" result="hardAlpha"/>
<feOffset/>
<feGaussianBlur stdDeviation="5"/>
<feComposite in2="hardAlpha" operator="out"/>
<feColorMatrix type="matrix" values="0 0 0 0 0 0 0 0 0 0 0 0 0 0 0 0 0 0 1 0"/>
<feBlend mode="normal" in2="BackgroundImageFix" result="effect1_dropShadow_3175_44892"/>
<feColorMatrix in="SourceAlpha" type="matrix" values="0 0 0 0 0 0 0 0 0 0 0 0 0 0 0 0 0 0 127 0" result="hardAlpha"/>
<feOffset dx="-5" dy="-5"/>
<feGaussianBlur stdDeviation="5"/>
<feComposite in2="hardAlpha" operator="out"/>
<feColorMatrix type="matrix" values="0 0 0 0 0.180392 0 0 0 0 0.223529 0 0 0 0 0.654902 0 0 0 1 0"/>
<feBlend mode="normal" in2="effect1_dropShadow_3175_44892" result="effect2_dropShadow_3175_44892"/>
<feBlend mode="normal" in="SourceGraphic" in2="effect2_dropShadow_3175_44892" result="shape"/>
</filter>
<filter id="filter17_f_3175_44892" x="32.8359" y="299" width="126.66" height="124.479" filterUnits="userSpaceOnUse" color-interpolation-filters="sRGB">
<feFlood flood-opacity="0" result="BackgroundImageFix"/>
<feBlend mode="normal" in="SourceGraphic" in2="BackgroundImageFix" result="shape"/>
<feGaussianBlur stdDeviation="5" result="effect1_foregroundBlur_3175_44892"/>
</filter>
<filter id="filter18_f_3175_44892" x="37.8359" y="304" width="116.66" height="114.479" filterUnits="userSpaceOnUse" color-interpolation-filters="sRGB">
<feFlood flood-opacity="0" result="BackgroundImageFix"/>
<feBlend mode="normal" in="SourceGraphic" in2="BackgroundImageFix" result="shape"/>
<feGaussianBlur stdDeviation="2.5" result="effect1_foregroundBlur_3175_44892"/>
</filter>
<filter id="filter19_f_3175_44892" x="40.8359" y="307" width="110.66" height="108.479" filterUnits="userSpaceOnUse" color-interpolation-filters="sRGB">
<feFlood flood-opacity="0" result="BackgroundImageFix"/>
<feBlend mode="normal" in="SourceGraphic" in2="BackgroundImageFix" result="shape"/>
<feGaussianBlur stdDeviation="1" result="effect1_foregroundBlur_3175_44892"/>
</filter>
<filter id="filter20_f_3175_44892" x="8.02344" y="420.865" width="187.148" height="44.6836" filterUnits="userSpaceOnUse" color-interpolation-filters="sRGB">
<feFlood flood-opacity="0" result="BackgroundImageFix"/>
<feBlend mode="normal" in="SourceGraphic" in2="BackgroundImageFix" result="shape"/>
<feGaussianBlur stdDeviation="0.5" result="effect1_foregroundBlur_3175_44892"/>
</filter>
<filter id="filter21_f_3175_44892" x="0" y="413.814" width="201.148" height="60.7344" filterUnits="userSpaceOnUse" color-interpolation-filters="sRGB">
<feFlood flood-opacity="0" result="BackgroundImageFix"/>
<feBlend mode="normal" in="SourceGraphic" in2="BackgroundImageFix" result="shape"/>
<feGaussianBlur stdDeviation="4" result="effect1_foregroundBlur_3175_44892"/>
</filter>
<filter id="filter22_f_3175_44892" x="43.8945" y="154.986" width="201.148" height="60.7344" filterUnits="userSpaceOnUse" color-interpolation-filters="sRGB">
<feFlood flood-opacity="0" result="BackgroundImageFix"/>
<feBlend mode="normal" in="SourceGraphic" in2="BackgroundImageFix" result="shape"/>
<feGaussianBlur stdDeviation="4" result="effect1_foregroundBlur_3175_44892"/>
</filter>
<filter id="filter23_f_3175_44892" x="50.8945" y="164.037" width="187.148" height="44.6836" filterUnits="userSpaceOnUse" color-interpolation-filters="sRGB">
<feFlood flood-opacity="0" result="BackgroundImageFix"/>
<feBlend mode="normal" in="SourceGraphic" in2="BackgroundImageFix" result="shape"/>
<feGaussianBlur stdDeviation="0.5" result="effect1_foregroundBlur_3175_44892"/>
</filter>
<filter id="filter24_f_3175_44892" x="364.449" y="540.029" width="189.547" height="60.6934" filterUnits="userSpaceOnUse" color-interpolation-filters="sRGB">
<feFlood flood-opacity="0" result="BackgroundImageFix"/>
<feBlend mode="normal" in="SourceGraphic" in2="BackgroundImageFix" result="shape"/>
<feGaussianBlur stdDeviation="4" result="effect1_foregroundBlur_3175_44892"/>
</filter>
<filter id="filter25_f_3175_44892" x="371.449" y="549.029" width="175.547" height="44.6426" filterUnits="userSpaceOnUse" color-interpolation-filters="sRGB">
<feFlood flood-opacity="0" result="BackgroundImageFix"/>
<feBlend mode="normal" in="SourceGraphic" in2="BackgroundImageFix" result="shape"/>
<feGaussianBlur stdDeviation="0.5" result="effect1_foregroundBlur_3175_44892"/>
</filter>
<filter id="filter26_f_3175_44892" x="335.867" y="0" width="201.148" height="60.377" filterUnits="userSpaceOnUse" color-interpolation-filters="sRGB">
<feFlood flood-opacity="0" result="BackgroundImageFix"/>
<feBlend mode="normal" in="SourceGraphic" in2="BackgroundImageFix" result="shape"/>
<feGaussianBlur stdDeviation="4" result="effect1_foregroundBlur_3175_44892"/>
</filter>
<filter id="filter27_f_3175_44892" x="342.867" y="7" width="187.148" height="45.4219" filterUnits="userSpaceOnUse" color-interpolation-filters="sRGB">
<feFlood flood-opacity="0" result="BackgroundImageFix"/>
<feBlend mode="normal" in="SourceGraphic" in2="BackgroundImageFix" result="shape"/>
<feGaussianBlur stdDeviation="0.5" result="effect1_foregroundBlur_3175_44892"/>
</filter>
<linearGradient id="paint0_linear_3175_44892" x1="155.015" y1="259.192" x2="407.117" y2="259.192" gradientUnits="userSpaceOnUse">
<stop stop-color="#2D37AE"/>
<stop offset="0.51" stop-color="#7E21CE"/>
<stop offset="1" stop-color="#F800FF"/>
</linearGradient>
</defs>
</svg>
