<svg width="23" height="22" viewBox="0 0 23 22" fill="none" xmlns="http://www.w3.org/2000/svg">
<g clip-path="url(#clip0_1190_357)">
<path d="M11.7282 10.9966C10.5051 8.9355 10.7657 6.44125 12.1829 4.6829C12.5877 4.17839 12.0489 3.45718 11.4192 3.64927C10.6843 3.87737 9.96945 4.23273 9.30626 4.72844C6.83564 6.57818 5.96453 9.92348 7.23416 12.6898C8.92524 16.3663 13.4452 17.7301 16.9343 15.7701C17.3675 15.5268 17.7554 15.2473 18.1135 14.9307C18.6052 14.4928 18.242 13.6807 17.5812 13.7671C15.2286 14.0956 12.9076 12.9976 11.7282 10.9966V10.9966Z" fill="white"/>
</g>
<defs>
<clipPath id="clip0_1190_357">
<rect width="16.3345" height="16.1123" fill="white" transform="matrix(0.871856 -0.489762 0.510308 0.859991 0.490479 8.07178)"/>
</clipPath>
</defs>
</svg>
