<svg width="17" height="16" viewBox="0 0 17 16" fill="none" xmlns="http://www.w3.org/2000/svg">
<g clip-path="url(#clip0_1190_226)">
<path d="M4.18519 3.71189C4.45976 3.44661 4.45993 3.00662 4.18555 2.74114L3.92448 2.48853C3.66241 2.23496 3.24627 2.23554 2.9849 2.48984V2.48984C2.71267 2.75471 2.71267 3.19202 2.9849 3.45689L3.24527 3.71023C3.50669 3.96458 3.92287 3.96532 4.18519 3.71189V3.71189ZM2.79628 7.6667C2.79628 7.29851 2.4978 7.00003 2.12961 7.00003H1.40739C1.0392 7.00003 0.740723 7.29851 0.740723 7.6667V7.6667C0.740723 8.03489 1.0392 8.33336 1.40739 8.33336H2.12961C2.4978 8.33336 2.79628 8.03489 2.79628 7.6667V7.6667ZM8.96294 1.05188C8.96294 0.673467 8.65618 0.366699 8.27776 0.366699V0.366699C7.89934 0.366699 7.59257 0.673467 7.59257 1.05188V1.64818C7.59257 2.0266 7.89934 2.33337 8.27776 2.33337V2.33337C8.65618 2.33337 8.96294 2.0266 8.96294 1.64818V1.05188ZM13.5713 3.45624C13.8432 3.19172 13.8432 2.75501 13.5713 2.49049V2.49049C13.3098 2.23603 12.8932 2.23603 12.6316 2.49049L12.3713 2.74382C12.0994 3.00834 12.0994 3.44506 12.3713 3.70957V3.70957C12.6328 3.96404 13.0494 3.96404 13.3109 3.70957L13.5713 3.45624ZM12.3609 11.6272C12.0907 11.8901 12.0901 12.3239 12.3596 12.5875L12.6261 12.8483C12.8867 13.1033 13.3031 13.1038 13.5644 12.8496V12.8496C13.8361 12.5853 13.8355 12.1487 13.5631 11.8852L13.2951 11.6259C13.0346 11.3738 12.6208 11.3744 12.3609 11.6272V11.6272ZM14.4259 7.00003C14.0577 7.00003 13.7592 7.29851 13.7592 7.6667V7.6667C13.7592 8.03489 14.0577 8.33336 14.4259 8.33336H15.1481C15.5163 8.33336 15.8148 8.03489 15.8148 7.6667V7.6667C15.8148 7.29851 15.5163 7.00003 15.1481 7.00003H14.4259ZM8.27776 3.6667C6.0098 3.6667 4.16665 5.46003 4.16665 7.6667C4.16665 9.87336 6.0098 11.6667 8.27776 11.6667C10.5457 11.6667 12.3889 9.87336 12.3889 7.6667C12.3889 5.46003 10.5457 3.6667 8.27776 3.6667ZM7.59257 14.2815C7.59257 14.6599 7.89934 14.9667 8.27776 14.9667V14.9667C8.65618 14.9667 8.96294 14.6599 8.96294 14.2815V13.6852C8.96294 13.3068 8.65618 13 8.27776 13V13C7.89934 13 7.59257 13.3068 7.59257 13.6852V14.2815ZM2.98154 11.8771C2.71092 12.1419 2.71153 12.5776 2.98289 12.8416V12.8416C3.24496 13.0966 3.66258 13.096 3.92395 12.8403L4.18694 12.583C4.45756 12.3182 4.45695 11.8825 4.18559 11.6185V11.6185C3.92352 11.3635 3.5059 11.3641 3.24454 11.6198L2.98154 11.8771Z" fill="#E73AF6"/>
</g>
<defs>
<clipPath id="clip0_1190_226">
<rect width="16.4444" height="16" fill="white" transform="translate(0.055542)"/>
</clipPath>
</defs>
</svg>
