<svg width="291" height="1439" viewBox="0 0 291 1439" fill="none" xmlns="http://www.w3.org/2000/svg">
<rect x="11.5" y="1360.56" width="277" height="76.9445" stroke="#F800FF" stroke-width="3"/>
<path d="M116.995 1394V1381.4H120.739C124.735 1381.4 127.057 1384.03 127.057 1387.7C127.057 1391.61 124.735 1394 120.739 1394H116.995ZM118.453 1392.7H120.739C123.727 1392.7 125.563 1390.87 125.563 1387.7C125.563 1384.66 123.763 1382.71 120.739 1382.71H118.453V1392.7ZM133.537 1394.23C130.675 1394.23 128.857 1392.13 128.857 1389.32C128.857 1386.33 130.891 1384.41 133.447 1384.41C136.291 1384.41 137.983 1386.49 137.983 1389.19V1389.82H130.351C130.423 1391.7 131.629 1392.94 133.555 1392.94C134.797 1392.94 135.985 1392.34 136.417 1391.25H137.893C137.371 1392.99 135.733 1394.23 133.537 1394.23ZM130.387 1388.56H136.471C136.345 1386.69 135.031 1385.7 133.447 1385.7C131.881 1385.7 130.531 1386.84 130.387 1388.56ZM142.839 1394L139.167 1384.64H140.697L143.523 1392.25H143.631L146.439 1384.64H148.005L144.315 1394H142.839ZM155.939 1394.23C152.195 1394.23 149.441 1391.44 149.441 1387.7C149.441 1383.99 152.213 1381.17 155.957 1381.17C159.719 1381.17 162.473 1384.03 162.473 1387.7C162.473 1391.41 159.701 1394.23 155.939 1394.23ZM155.957 1392.87C158.837 1392.87 160.961 1390.69 160.961 1387.7C160.961 1384.75 158.837 1382.53 155.957 1382.53C153.077 1382.53 150.953 1384.75 150.953 1387.7C150.953 1390.69 153.077 1392.87 155.957 1392.87ZM164.997 1398.14V1384.64H166.365V1386.12H166.473C166.707 1385.77 167.679 1384.41 169.713 1384.41C172.467 1384.41 174.375 1386.44 174.375 1389.3C174.375 1392.18 172.467 1394.23 169.821 1394.23C167.859 1394.23 166.815 1392.97 166.527 1392.49H166.419V1398.14H164.997ZM169.659 1392.94C171.585 1392.94 172.917 1391.43 172.917 1389.3C172.917 1387.11 171.585 1385.68 169.623 1385.68C167.589 1385.68 166.365 1387.34 166.365 1389.3C166.365 1391.61 167.805 1392.94 169.659 1392.94ZM179.993 1394.23C177.779 1394.23 176.519 1393.03 176.357 1391.28H177.743C177.905 1392.4 178.697 1392.99 180.065 1392.99C181.469 1392.99 182.243 1392.31 182.243 1391.35C182.243 1388.73 176.645 1390.72 176.645 1387.02C176.645 1385.43 178.067 1384.41 180.029 1384.41C181.757 1384.41 183.197 1385.41 183.341 1387.11H181.973C181.847 1386.22 181.181 1385.63 179.939 1385.63C178.769 1385.63 178.013 1386.21 178.013 1387.02C178.013 1389.39 183.629 1387.41 183.629 1391.28C183.629 1393.05 182.171 1394.23 179.993 1394.23ZM88.5354 1418.57C85.7454 1417.08 83.4594 1414.34 83.4594 1410.42C83.4594 1406.5 85.7454 1403.76 88.5354 1402.27L89.1834 1403.35C86.7714 1404.66 84.8814 1407.04 84.8814 1410.42C84.8814 1413.8 86.7714 1416.18 89.1834 1417.49L88.5354 1418.57ZM92.6057 1416V1403.4H96.3497C100.346 1403.4 102.668 1406.03 102.668 1409.7C102.668 1413.61 100.346 1416 96.3497 1416H92.6057ZM94.0637 1414.7H96.3497C99.3377 1414.7 101.174 1412.87 101.174 1409.7C101.174 1406.66 99.3737 1404.71 96.3497 1404.71H94.0637V1414.7ZM109.147 1416.23C106.285 1416.23 104.467 1414.13 104.467 1411.32C104.467 1408.33 106.501 1406.41 109.057 1406.41C111.901 1406.41 113.593 1408.49 113.593 1411.19V1411.82H105.961C106.033 1413.7 107.239 1414.94 109.165 1414.94C110.407 1414.94 111.595 1414.34 112.027 1413.25H113.503C112.981 1414.99 111.343 1416.23 109.147 1416.23ZM105.997 1410.56H112.081C111.955 1408.69 110.641 1407.7 109.057 1407.7C107.491 1407.7 106.141 1408.84 105.997 1410.56ZM116.121 1420.14V1406.64H117.489V1408.12H117.597C117.831 1407.77 118.803 1406.41 120.837 1406.41C123.591 1406.41 125.499 1408.44 125.499 1411.3C125.499 1414.18 123.591 1416.23 120.945 1416.23C118.983 1416.23 117.939 1414.97 117.651 1414.49H117.543V1420.14H116.121ZM120.783 1414.94C122.709 1414.94 124.041 1413.43 124.041 1411.3C124.041 1409.11 122.709 1407.68 120.747 1407.68C118.713 1407.68 117.489 1409.34 117.489 1411.3C117.489 1413.61 118.929 1414.94 120.783 1414.94ZM129.33 1416C128.16 1416 127.476 1415.28 127.476 1414V1402.5H128.898V1414C128.898 1414.47 129.132 1414.74 129.582 1414.74H130.014V1416H129.33ZM136.521 1416.23C133.713 1416.23 131.643 1414.16 131.643 1411.32C131.643 1408.49 133.749 1406.41 136.539 1406.41C139.365 1406.41 141.417 1408.51 141.417 1411.32C141.417 1414.13 139.329 1416.23 136.521 1416.23ZM136.521 1414.94C138.537 1414.94 139.959 1413.41 139.959 1411.32C139.959 1409.25 138.537 1407.7 136.521 1407.7C134.505 1407.7 133.101 1409.27 133.101 1411.32C133.101 1413.43 134.523 1414.94 136.521 1414.94ZM143.504 1420.14V1418.84H144.206C145.124 1418.84 145.646 1418.45 145.952 1417.64L146.384 1416.5L142.586 1406.64H144.17L147.068 1414.56H147.176L150.092 1406.64H151.694L147.23 1418.14C146.744 1419.42 146.006 1420.14 144.476 1420.14H143.504ZM157.47 1416.23C154.608 1416.23 152.79 1414.13 152.79 1411.32C152.79 1408.33 154.824 1406.41 157.38 1406.41C160.224 1406.41 161.916 1408.49 161.916 1411.19V1411.82H154.284C154.356 1413.7 155.562 1414.94 157.488 1414.94C158.73 1414.94 159.918 1414.34 160.35 1413.25H161.826C161.304 1414.99 159.666 1416.23 157.47 1416.23ZM154.32 1410.56H160.404C160.278 1408.69 158.964 1407.7 157.38 1407.7C155.814 1407.7 154.464 1408.84 154.32 1410.56ZM164.443 1416V1406.64H165.865V1407.99H165.973C166.423 1407.13 167.323 1406.41 168.709 1406.41C170.113 1406.41 171.139 1407.09 171.661 1408.12H171.787C172.417 1406.91 173.443 1406.41 174.757 1406.41C176.845 1406.41 178.195 1407.88 178.195 1409.93V1416H176.773V1410.4C176.773 1408.64 175.891 1407.74 174.505 1407.74C173.191 1407.74 172.039 1408.67 172.039 1410.42V1416H170.617V1410.13C170.617 1408.64 169.609 1407.74 168.295 1407.74C166.981 1407.74 165.865 1408.78 165.865 1410.37V1416H164.443ZM185.208 1416.23C182.346 1416.23 180.528 1414.13 180.528 1411.32C180.528 1408.33 182.562 1406.41 185.118 1406.41C187.962 1406.41 189.654 1408.49 189.654 1411.19V1411.82H182.022C182.094 1413.7 183.3 1414.94 185.226 1414.94C186.468 1414.94 187.656 1414.34 188.088 1413.25H189.564C189.042 1414.99 187.404 1416.23 185.208 1416.23ZM182.058 1410.56H188.142C188.016 1408.69 186.702 1407.7 185.118 1407.7C183.552 1407.7 182.202 1408.84 182.058 1410.56ZM192.182 1416V1406.64H193.604V1408.01H193.712C194.108 1407.16 195.116 1406.41 196.574 1406.41C198.752 1406.41 200.066 1408.04 200.066 1410.11V1416H198.644V1410.2C198.644 1408.71 197.546 1407.74 196.232 1407.74C194.756 1407.74 193.604 1408.87 193.604 1410.42V1416H192.182ZM206.787 1416C205.059 1416 203.997 1415.06 203.997 1413.17V1407.85H202.233V1406.64H203.637C203.889 1406.64 204.087 1406.48 204.087 1406.17V1403.92H205.419V1406.64H208.299V1407.85H205.419V1413.16C205.419 1414.16 205.797 1414.76 206.877 1414.76H208.173V1416H206.787ZM211.462 1402.27C214.252 1403.76 216.538 1406.5 216.538 1410.42C216.538 1414.34 214.252 1417.08 211.462 1418.57L210.814 1417.49C213.226 1416.18 215.116 1413.8 215.116 1410.42C215.116 1407.04 213.226 1404.66 210.814 1403.35L211.462 1402.27Z" fill="#191528"/>
<rect x="11.5" y="1241.64" width="275.951" height="52.9612" stroke="#191528" stroke-width="3"/>
<path d="M143.091 1274.23C139.347 1274.23 136.593 1271.44 136.593 1267.7C136.593 1263.99 139.365 1261.17 143.109 1261.17C146.871 1261.17 149.625 1264.03 149.625 1267.7C149.625 1269.46 148.995 1271.03 147.933 1272.18L149.409 1274H147.699L146.925 1273.06C145.863 1273.8 144.549 1274.23 143.091 1274.23ZM143.109 1272.87C144.225 1272.87 145.233 1272.54 146.025 1271.97L143.307 1268.64H145.035L146.997 1271.05C147.699 1270.17 148.113 1269.01 148.113 1267.7C148.113 1264.75 145.989 1262.53 143.109 1262.53C140.229 1262.53 138.105 1264.75 138.105 1267.7C138.105 1270.69 140.229 1272.87 143.109 1272.87ZM150.538 1274L155.398 1261.4H157.108L161.95 1274H160.42L159.286 1271.01H153.202L152.068 1274H150.538ZM153.706 1269.68H158.782L156.298 1263.09H156.19L153.706 1269.68Z" fill="#191528"/>
<rect x="67.0859" y="1047.78" width="185.764" height="52.9612" stroke="#F800FF" stroke-width="3"/>
<path d="M123.252 1080V1067.4H127.32C129.714 1067.4 131.136 1068.79 131.136 1070.62C131.136 1071.86 130.542 1072.8 129.534 1073.34V1073.45C130.38 1073.74 131.568 1074.64 131.568 1076.42C131.568 1078.69 129.804 1080 127.68 1080H123.252ZM124.692 1072.85H127.266C128.688 1072.85 129.642 1072.01 129.642 1070.73C129.642 1069.49 128.67 1068.7 127.32 1068.7H124.692V1072.85ZM124.692 1078.72H127.428C128.922 1078.72 130.056 1078 130.056 1076.38C130.056 1074.73 128.724 1074.08 127.266 1074.08H124.692V1078.72ZM138.036 1080.23C135.282 1080.23 133.374 1078.2 133.374 1075.34C133.374 1072.46 135.282 1070.41 137.928 1070.41C139.89 1070.41 140.934 1071.67 141.222 1072.15H141.33V1070.64H142.752V1080H141.384V1078.52H141.276C141.042 1078.87 140.07 1080.23 138.036 1080.23ZM138.126 1078.96C140.16 1078.96 141.384 1077.3 141.384 1075.34C141.384 1073.03 139.944 1071.7 138.09 1071.7C136.164 1071.7 134.832 1073.21 134.832 1075.34C134.832 1077.53 136.164 1078.96 138.126 1078.96ZM149.904 1080.23C147.078 1080.23 145.098 1078.09 145.098 1075.32C145.098 1072.55 147.132 1070.41 149.886 1070.41C151.92 1070.41 153.81 1071.63 154.314 1073.72H152.838C152.46 1072.49 151.272 1071.7 149.922 1071.7C147.924 1071.7 146.574 1073.29 146.574 1075.32C146.574 1077.43 147.996 1078.94 149.958 1078.94C151.308 1078.94 152.514 1078.15 152.874 1076.92H154.332C153.846 1079.01 151.938 1080.23 149.904 1080.23ZM164.435 1080H162.815L159.845 1075.32L158.279 1076.99V1080H156.857V1066.5H158.279V1075.05H158.387L162.401 1070.64H164.201L160.799 1074.28L164.435 1080ZM166.6 1080V1067.4H173.782V1068.73H168.058V1072.93H172.99V1074.24H168.058V1078.69H173.98V1080H166.6ZM176.492 1080V1070.64H177.914V1072.01H178.022C178.418 1071.16 179.426 1070.41 180.884 1070.41C183.062 1070.41 184.376 1072.04 184.376 1074.11V1080H182.954V1074.2C182.954 1072.71 181.856 1071.74 180.542 1071.74C179.066 1071.74 177.914 1072.87 177.914 1074.42V1080H176.492ZM191.385 1080.23C188.631 1080.23 186.723 1078.2 186.723 1075.34C186.723 1072.46 188.631 1070.41 191.277 1070.41C193.239 1070.41 194.283 1071.67 194.571 1072.15H194.679V1066.5H196.101V1080H194.733V1078.52H194.625C194.391 1078.87 193.419 1080.23 191.385 1080.23ZM191.475 1078.96C193.509 1078.96 194.733 1077.3 194.733 1075.34C194.733 1073.03 193.293 1071.7 191.439 1071.7C189.513 1071.7 188.181 1073.21 188.181 1075.34C188.181 1077.53 189.513 1078.96 191.475 1078.96Z" fill="#191528"/>
<rect x="67.0859" y="913.867" width="184.954" height="52.9612" stroke="#F800FF" stroke-width="3"/>
<path d="M121.959 946V933.4H129.141V934.732H123.417V939.052H128.763V940.366H123.417V946H121.959ZM131.658 946V936.64H133.062V938.386H133.17C133.44 937.594 134.358 936.64 135.726 936.64H136.518V938.062H135.744C134.034 938.062 133.08 939.394 133.08 941.176V946H131.658ZM142.672 946.234C139.864 946.234 137.794 944.164 137.794 941.32C137.794 938.494 139.9 936.406 142.69 936.406C145.516 936.406 147.568 938.512 147.568 941.32C147.568 944.128 145.48 946.234 142.672 946.234ZM142.672 944.938C144.688 944.938 146.11 943.408 146.11 941.32C146.11 939.25 144.688 937.702 142.672 937.702C140.656 937.702 139.252 939.268 139.252 941.32C139.252 943.426 140.674 944.938 142.672 944.938ZM150.08 946V936.64H151.502V938.008H151.61C152.006 937.162 153.014 936.406 154.472 936.406C156.65 936.406 157.964 938.044 157.964 940.114V946H156.542V940.204C156.542 938.71 155.444 937.738 154.13 937.738C152.654 937.738 151.502 938.872 151.502 940.42V946H150.08ZM164.685 946C162.957 946 161.895 945.064 161.895 943.174V937.846H160.131V936.64H161.535C161.787 936.64 161.985 936.478 161.985 936.172V933.922H163.317V936.64H166.197V937.846H163.317V943.156C163.317 944.164 163.695 944.758 164.775 944.758H166.071V946H164.685ZM168.893 946V933.4H176.075V934.732H170.351V938.926H175.283V940.24H170.351V944.686H176.273V946H168.893ZM178.785 946V936.64H180.207V938.008H180.315C180.711 937.162 181.719 936.406 183.177 936.406C185.355 936.406 186.669 938.044 186.669 940.114V946H185.247V940.204C185.247 938.71 184.149 937.738 182.835 937.738C181.359 937.738 180.207 938.872 180.207 940.42V946H178.785ZM193.678 946.234C190.924 946.234 189.016 944.2 189.016 941.338C189.016 938.458 190.924 936.406 193.57 936.406C195.532 936.406 196.576 937.666 196.864 938.152H196.972V932.5H198.394V946H197.026V944.524H196.918C196.684 944.866 195.712 946.234 193.678 946.234ZM193.768 944.956C195.802 944.956 197.026 943.3 197.026 941.338C197.026 939.034 195.586 937.702 193.732 937.702C191.806 937.702 190.474 939.214 190.474 941.338C190.474 943.534 191.806 944.956 193.768 944.956Z" fill="#191528"/>
<rect x="67.0859" y="779.959" width="185.764" height="52.9612" stroke="#F800FF" stroke-width="3"/>
<path d="M126.495 812V799.4H130.239C134.235 799.4 136.557 802.028 136.557 805.7C136.557 809.606 134.235 812 130.239 812H126.495ZM127.953 810.704H130.239C133.227 810.704 135.063 808.868 135.063 805.7C135.063 802.658 133.263 800.714 130.239 800.714H127.953V810.704ZM143.037 812.234C140.175 812.234 138.357 810.128 138.357 807.32C138.357 804.332 140.391 802.406 142.947 802.406C145.791 802.406 147.483 804.494 147.483 807.194V807.824H139.851C139.923 809.696 141.129 810.938 143.055 810.938C144.297 810.938 145.485 810.344 145.917 809.246H147.393C146.871 810.992 145.233 812.234 143.037 812.234ZM139.887 806.564H145.971C145.845 804.692 144.531 803.702 142.947 803.702C141.381 803.702 140.031 804.836 139.887 806.564ZM152.339 812L148.667 802.64H150.197L153.023 810.254H153.131L155.939 802.64H157.505L153.815 812H152.339ZM165.439 812.234C161.695 812.234 158.941 809.444 158.941 805.7C158.941 801.992 161.713 799.166 165.457 799.166C169.219 799.166 171.973 802.028 171.973 805.7C171.973 809.408 169.201 812.234 165.439 812.234ZM165.457 810.866C168.337 810.866 170.461 808.688 170.461 805.7C170.461 802.748 168.337 800.534 165.457 800.534C162.577 800.534 160.453 802.748 160.453 805.7C160.453 808.688 162.577 810.866 165.457 810.866ZM174.497 816.14V802.64H175.865V804.116H175.973C176.207 803.774 177.179 802.406 179.213 802.406C181.967 802.406 183.875 804.44 183.875 807.302C183.875 810.182 181.967 812.234 179.321 812.234C177.359 812.234 176.315 810.974 176.027 810.488H175.919V816.14H174.497ZM179.159 810.938C181.085 810.938 182.417 809.426 182.417 807.302C182.417 805.106 181.085 803.684 179.123 803.684C177.089 803.684 175.865 805.34 175.865 807.302C175.865 809.606 177.305 810.938 179.159 810.938ZM189.493 812.234C187.279 812.234 186.019 811.028 185.857 809.282H187.243C187.405 810.398 188.197 810.992 189.565 810.992C190.969 810.992 191.743 810.308 191.743 809.354C191.743 806.726 186.145 808.724 186.145 805.016C186.145 803.432 187.567 802.406 189.529 802.406C191.257 802.406 192.697 803.414 192.841 805.106H191.473C191.347 804.224 190.681 803.63 189.439 803.63C188.269 803.63 187.513 804.206 187.513 805.016C187.513 807.392 193.129 805.412 193.129 809.282C193.129 811.046 191.671 812.234 189.493 812.234Z" fill="#191528"/>
<rect x="26.1797" y="693.021" width="262.318" height="52.9612" stroke="#F800FF" stroke-width="3"/>
<path d="M100.246 726V713.4H103.99C107.986 713.4 110.308 716.028 110.308 719.7C110.308 723.606 107.986 726 103.99 726H100.246ZM101.704 724.704H103.99C106.978 724.704 108.814 722.868 108.814 719.7C108.814 716.658 107.014 714.714 103.99 714.714H101.704V724.704ZM116.788 726.234C113.926 726.234 112.108 724.128 112.108 721.32C112.108 718.332 114.142 716.406 116.698 716.406C119.542 716.406 121.234 718.494 121.234 721.194V721.824H113.602C113.674 723.696 114.88 724.938 116.806 724.938C118.048 724.938 119.236 724.344 119.668 723.246H121.144C120.622 724.992 118.984 726.234 116.788 726.234ZM113.638 720.564H119.722C119.596 718.692 118.282 717.702 116.698 717.702C115.132 717.702 113.782 718.836 113.638 720.564ZM126.09 726L122.418 716.64H123.948L126.774 724.254H126.882L129.69 716.64H131.256L127.566 726H126.09ZM137.02 726.234C134.158 726.234 132.34 724.128 132.34 721.32C132.34 718.332 134.374 716.406 136.93 716.406C139.774 716.406 141.466 718.494 141.466 721.194V721.824H133.834C133.906 723.696 135.112 724.938 137.038 724.938C138.28 724.938 139.468 724.344 139.9 723.246H141.376C140.854 724.992 139.216 726.234 137.02 726.234ZM133.87 720.564H139.954C139.828 718.692 138.514 717.702 136.93 717.702C135.364 717.702 134.014 718.836 133.87 720.564ZM145.303 726C144.133 726 143.449 725.28 143.449 724.002V712.5H144.871V724.002C144.871 724.47 145.105 724.74 145.555 724.74H145.987V726H145.303ZM152.494 726.234C149.686 726.234 147.616 724.164 147.616 721.32C147.616 718.494 149.722 716.406 152.512 716.406C155.338 716.406 157.39 718.512 157.39 721.32C157.39 724.128 155.302 726.234 152.494 726.234ZM152.494 724.938C154.51 724.938 155.932 723.408 155.932 721.32C155.932 719.25 154.51 717.702 152.494 717.702C150.478 717.702 149.074 719.268 149.074 721.32C149.074 723.426 150.496 724.938 152.494 724.938ZM159.902 730.14V716.64H161.27V718.116H161.378C161.612 717.774 162.584 716.406 164.618 716.406C167.372 716.406 169.28 718.44 169.28 721.302C169.28 724.182 167.372 726.234 164.726 726.234C162.764 726.234 161.72 724.974 161.432 724.488H161.324V730.14H159.902ZM164.564 724.938C166.49 724.938 167.822 723.426 167.822 721.302C167.822 719.106 166.49 717.684 164.528 717.684C162.494 717.684 161.27 719.34 161.27 721.302C161.27 723.606 162.71 724.938 164.564 724.938ZM171.803 726V716.64H173.225V717.99H173.333C173.783 717.126 174.683 716.406 176.069 716.406C177.473 716.406 178.499 717.09 179.021 718.116H179.147C179.777 716.91 180.803 716.406 182.117 716.406C184.205 716.406 185.555 717.882 185.555 719.934V726H184.133V720.402C184.133 718.638 183.251 717.738 181.865 717.738C180.551 717.738 179.399 718.674 179.399 720.42V726H177.977V720.132C177.977 718.638 176.969 717.738 175.655 717.738C174.341 717.738 173.225 718.782 173.225 720.366V726H171.803ZM192.567 726.234C189.705 726.234 187.887 724.128 187.887 721.32C187.887 718.332 189.921 716.406 192.477 716.406C195.321 716.406 197.013 718.494 197.013 721.194V721.824H189.381C189.453 723.696 190.659 724.938 192.585 724.938C193.827 724.938 195.015 724.344 195.447 723.246H196.923C196.401 724.992 194.763 726.234 192.567 726.234ZM189.417 720.564H195.501C195.375 718.692 194.061 717.702 192.477 717.702C190.911 717.702 189.561 718.836 189.417 720.564ZM199.541 726V716.64H200.963V718.008H201.071C201.467 717.162 202.475 716.406 203.933 716.406C206.111 716.406 207.425 718.044 207.425 720.114V726H206.003V720.204C206.003 718.71 204.905 717.738 203.591 717.738C202.115 717.738 200.963 718.872 200.963 720.42V726H199.541ZM214.146 726C212.418 726 211.356 725.064 211.356 723.174V717.846H209.592V716.64H210.996C211.248 716.64 211.446 716.478 211.446 716.172V713.922H212.778V716.64H215.658V717.846H212.778V723.156C212.778 724.164 213.156 724.758 214.236 724.758H215.532V726H214.146Z" fill="#191528"/>
<rect x="11.5" y="606.5" width="240.296" height="52.9612" stroke="#D6E05F" stroke-width="3"/>
<path d="M102.378 639.652C98.6516 639.652 95.9156 636.862 95.9156 633.118C95.9156 629.41 98.6696 626.584 102.396 626.584C105.294 626.584 107.49 628.294 108.318 630.85H106.752C106.086 628.942 104.34 627.952 102.396 627.952C99.6056 627.952 97.4276 630.166 97.4276 633.118C97.4276 636.106 99.6056 638.284 102.396 638.284C104.34 638.284 106.068 637.312 106.698 635.386H108.318C107.526 637.996 105.276 639.652 102.378 639.652ZM114.997 639.652C112.189 639.652 110.119 637.582 110.119 634.738C110.119 631.912 112.225 629.824 115.015 629.824C117.841 629.824 119.893 631.93 119.893 634.738C119.893 637.546 117.805 639.652 114.997 639.652ZM114.997 638.356C117.013 638.356 118.435 636.826 118.435 634.738C118.435 632.668 117.013 631.12 114.997 631.12C112.981 631.12 111.577 632.686 111.577 634.738C111.577 636.844 112.999 638.356 114.997 638.356ZM122.405 639.418V630.058H123.827V631.426H123.935C124.331 630.58 125.339 629.824 126.797 629.824C128.975 629.824 130.289 631.462 130.289 633.532V639.418H128.867V633.622C128.867 632.128 127.769 631.156 126.455 631.156C124.979 631.156 123.827 632.29 123.827 633.838V639.418H122.405ZM137.01 639.418C135.282 639.418 134.22 638.482 134.22 636.592V631.264H132.456V630.058H133.86C134.112 630.058 134.31 629.896 134.31 629.59V627.34H135.642V630.058H138.522V631.264H135.642V636.574C135.642 637.582 136.02 638.176 137.1 638.176H138.396V639.418H137.01ZM144.998 639.652C142.136 639.652 140.318 637.546 140.318 634.738C140.318 631.75 142.352 629.824 144.908 629.824C147.752 629.824 149.444 631.912 149.444 634.612V635.242H141.812C141.884 637.114 143.09 638.356 145.016 638.356C146.258 638.356 147.446 637.762 147.878 636.664H149.354C148.832 638.41 147.194 639.652 144.998 639.652ZM141.848 633.982H147.932C147.806 632.11 146.492 631.12 144.908 631.12C143.342 631.12 141.992 632.254 141.848 633.982ZM151.972 639.418V630.058H153.394V631.426H153.502C153.898 630.58 154.906 629.824 156.364 629.824C158.542 629.824 159.856 631.462 159.856 633.532V639.418H158.434V633.622C158.434 632.128 157.336 631.156 156.022 631.156C154.546 631.156 153.394 632.29 153.394 633.838V639.418H151.972ZM166.577 639.418C164.849 639.418 163.787 638.482 163.787 636.592V631.264H162.023V630.058H163.427C163.679 630.058 163.877 629.896 163.877 629.59V627.34H165.209V630.058H168.089V631.264H165.209V636.574C165.209 637.582 165.587 638.176 166.667 638.176H167.963V639.418H166.577Z" fill="#191528"/>
<rect x="11.5" y="394.227" width="275.951" height="52.9612" stroke="#2E39A7" stroke-width="3"/>
<path d="M122.033 427.234C119.009 427.234 117.335 425.344 117.335 422.482V414.4H118.793V422.464C118.793 424.552 119.909 425.884 122.033 425.884C124.157 425.884 125.291 424.552 125.291 422.446V414.4H126.731V422.464C126.731 425.308 125.021 427.234 122.033 427.234ZM128.534 427L132.782 420.61L128.75 414.4H130.442L133.664 419.44H133.772L137.012 414.4H138.722L134.654 420.61L138.902 427H137.174L133.736 421.762H133.628L130.244 427H128.534ZM145.921 427V414.4H147.379V419.926H154.075V414.4H155.533V427H154.075V421.258H147.379V427H145.921ZM159.698 415.948C159.104 415.948 158.672 415.498 158.672 414.904C158.672 414.328 159.104 413.878 159.698 413.878C160.31 413.878 160.742 414.328 160.742 414.904C160.742 415.498 160.31 415.948 159.698 415.948ZM158.96 427V417.64H160.382V427H158.96ZM163.082 422.248V420.916H167.672V422.248H163.082ZM170.724 427V414.4H177.906V415.732H172.182V420.052H177.528V421.366H172.182V427H170.724ZM181.161 415.948C180.567 415.948 180.135 415.498 180.135 414.904C180.135 414.328 180.567 413.878 181.161 413.878C181.773 413.878 182.205 414.328 182.205 414.904C182.205 415.498 181.773 415.948 181.161 415.948ZM180.423 427V417.64H181.845V427H180.423Z" fill="#191528"/>
<rect x="11.5" y="268.316" width="275.951" height="52.9612" stroke="#191528" stroke-width="3"/>
<path d="M100.096 301V288.4H101.554V301H100.096ZM104.978 301V291.64H106.4V293.008H106.508C106.904 292.162 107.912 291.406 109.37 291.406C111.548 291.406 112.862 293.044 112.862 295.114V301H111.44V295.204C111.44 293.71 110.342 292.738 109.028 292.738C107.552 292.738 106.4 293.872 106.4 295.42V301H104.978ZM119.584 301C117.856 301 116.794 300.064 116.794 298.174V292.846H115.03V291.64H116.434C116.686 291.64 116.884 291.478 116.884 291.172V288.922H118.216V291.64H121.096V292.846H118.216V298.156C118.216 299.164 118.594 299.758 119.674 299.758H120.97V301H119.584ZM127.571 301.234C124.709 301.234 122.891 299.128 122.891 296.32C122.891 293.332 124.925 291.406 127.481 291.406C130.325 291.406 132.017 293.494 132.017 296.194V296.824H124.385C124.457 298.696 125.663 299.938 127.589 299.938C128.831 299.938 130.019 299.344 130.451 298.246H131.927C131.405 299.992 129.767 301.234 127.571 301.234ZM124.421 295.564H130.505C130.379 293.692 129.065 292.702 127.481 292.702C125.915 292.702 124.565 293.836 124.421 295.564ZM134.545 301V291.64H135.949V293.386H136.057C136.327 292.594 137.245 291.64 138.613 291.64H139.405V293.062H138.631C136.921 293.062 135.967 294.394 135.967 296.176V301H134.545ZM141.752 301V291.64H143.174V293.008H143.282C143.678 292.162 144.686 291.406 146.144 291.406C148.322 291.406 149.636 293.044 149.636 295.114V301H148.214V295.204C148.214 293.71 147.116 292.738 145.802 292.738C144.326 292.738 143.174 293.872 143.174 295.42V301H141.752ZM156.645 301.234C153.891 301.234 151.983 299.2 151.983 296.338C151.983 293.458 153.891 291.406 156.537 291.406C158.499 291.406 159.543 292.666 159.831 293.152H159.939V291.64H161.361V301H159.993V299.524H159.885C159.651 299.866 158.679 301.234 156.645 301.234ZM156.735 299.956C158.769 299.956 159.993 298.3 159.993 296.338C159.993 294.034 158.553 292.702 156.699 292.702C154.773 292.702 153.441 294.214 153.441 296.338C153.441 298.534 154.773 299.956 156.735 299.956ZM166.282 301C165.112 301 164.428 300.28 164.428 299.002V287.5H165.85V299.002C165.85 299.47 166.084 299.74 166.534 299.74H166.966V301H166.282ZM180.489 301.234C176.745 301.234 173.991 298.444 173.991 294.7C173.991 290.992 176.763 288.166 180.507 288.166C184.269 288.166 187.023 291.028 187.023 294.7C187.023 296.464 186.393 298.03 185.331 299.182L186.807 301H185.097L184.323 300.064C183.261 300.802 181.947 301.234 180.489 301.234ZM180.507 299.866C181.623 299.866 182.631 299.542 183.423 298.966L180.705 295.636H182.433L184.395 298.048C185.097 297.166 185.511 296.014 185.511 294.7C185.511 291.748 183.387 289.534 180.507 289.534C177.627 289.534 175.503 291.748 175.503 294.7C175.503 297.688 177.627 299.866 180.507 299.866ZM187.935 301L192.795 288.4H194.505L199.347 301H197.817L196.683 298.012H190.599L189.465 301H187.935ZM191.103 296.68H196.179L193.695 290.092H193.587L191.103 296.68Z" fill="#191528"/>
<rect x="11.5" y="144.402" width="275.951" height="52.9612" stroke="#2E39A7" stroke-width="3"/>
<path d="M120.477 177.234C117.453 177.234 115.779 175.344 115.779 172.482V164.4H117.237V172.464C117.237 174.552 118.353 175.884 120.477 175.884C122.601 175.884 123.735 174.552 123.735 172.446V164.4H125.175V172.464C125.175 175.308 123.465 177.234 120.477 177.234ZM126.978 177L131.226 170.61L127.194 164.4H128.886L132.108 169.44H132.216L135.456 164.4H137.166L133.098 170.61L137.346 177H135.618L132.18 171.762H132.072L128.688 177H126.978ZM144.365 177V164.4H145.823V175.686H151.259V177H144.365ZM157.59 177.234C154.782 177.234 152.712 175.164 152.712 172.32C152.712 169.494 154.818 167.406 157.608 167.406C160.434 167.406 162.486 169.512 162.486 172.32C162.486 175.128 160.398 177.234 157.59 177.234ZM157.59 175.938C159.606 175.938 161.028 174.408 161.028 172.32C161.028 170.25 159.606 168.702 157.59 168.702C155.574 168.702 154.17 170.268 154.17 172.32C154.17 174.426 155.592 175.938 157.59 175.938ZM164.638 172.248V170.916H169.228V172.248H164.638ZM172.279 177V164.4H179.461V165.732H173.737V170.052H179.083V171.366H173.737V177H172.279ZM182.716 165.948C182.122 165.948 181.69 165.498 181.69 164.904C181.69 164.328 182.122 163.878 182.716 163.878C183.328 163.878 183.76 164.328 183.76 164.904C183.76 165.498 183.328 165.948 182.716 165.948ZM181.978 177V167.64H183.4V177H181.978Z" fill="#191528"/>
<rect x="11.5" y="1.5" width="275.951" height="76.9445" stroke="#6FCCB3" stroke-width="3"/>
<path d="M25.1516 46V33.4H26.7536L31.6316 44.398H31.7396L36.2576 33.4H37.8596V46H36.4556V36.604H36.3476L32.5136 46H30.8576L26.6636 36.604H26.5556V46H25.1516ZM45.2261 46.234C42.4721 46.234 40.5641 44.2 40.5641 41.338C40.5641 38.458 42.4721 36.406 45.1181 36.406C47.0801 36.406 48.1241 37.666 48.4121 38.152H48.5201V36.64H49.9421V46H48.5741V44.524H48.4661C48.2321 44.866 47.2601 46.234 45.2261 46.234ZM45.3161 44.956C47.3501 44.956 48.5741 43.3 48.5741 41.338C48.5741 39.034 47.1341 37.702 45.2801 37.702C43.3541 37.702 42.0221 39.214 42.0221 41.338C42.0221 43.534 43.3541 44.956 45.3161 44.956ZM53.0087 46V36.64H54.4307V38.008H54.5387C54.9347 37.162 55.9427 36.406 57.4007 36.406C59.5787 36.406 60.8927 38.044 60.8927 40.114V46H59.4707V40.204C59.4707 38.71 58.3727 37.738 57.0587 37.738C55.5827 37.738 54.4307 38.872 54.4307 40.42V46H53.0087ZM67.9018 46.234C65.1478 46.234 63.2398 44.2 63.2398 41.338C63.2398 38.458 65.1478 36.406 67.7938 36.406C69.7558 36.406 70.7998 37.666 71.0878 38.152H71.1958V36.64H72.6178V46H71.2498V44.524H71.1418C70.9078 44.866 69.9358 46.234 67.9018 46.234ZM67.9918 44.956C70.0258 44.956 71.2498 43.3 71.2498 41.338C71.2498 39.034 69.8098 37.702 67.9558 37.702C66.0298 37.702 64.6978 39.214 64.6978 41.338C64.6978 43.534 66.0298 44.956 67.9918 44.956ZM79.7885 50.374C77.5025 50.374 76.0265 49.132 75.7205 47.458H77.0705C77.3225 48.556 78.4025 49.132 79.7885 49.132C81.9845 49.132 82.9745 47.908 82.9745 46V44.524H82.8665C82.6325 44.866 81.6605 46.234 79.6265 46.234C76.8725 46.234 74.9645 44.2 74.9645 41.338C74.9645 38.458 76.8725 36.406 79.5185 36.406C81.4805 36.406 82.5245 37.666 82.8125 38.152H82.9205V36.64H84.3425V46C84.3425 48.754 82.5965 50.374 79.7885 50.374ZM79.7165 44.956C81.7505 44.956 82.9745 43.3 82.9745 41.338C82.9745 39.034 81.5345 37.702 79.6805 37.702C77.7545 37.702 76.4225 39.214 76.4225 41.338C76.4225 43.534 77.7545 44.956 79.7165 44.956ZM91.3691 46.234C88.5071 46.234 86.6891 44.128 86.6891 41.32C86.6891 38.332 88.7231 36.406 91.2791 36.406C94.1231 36.406 95.8151 38.494 95.8151 41.194V41.824H88.1831C88.2551 43.696 89.4611 44.938 91.3871 44.938C92.6291 44.938 93.8171 44.344 94.2491 43.246H95.7251C95.2031 44.992 93.5651 46.234 91.3691 46.234ZM88.2191 40.564H94.3031C94.1771 38.692 92.8631 37.702 91.2791 37.702C89.7131 37.702 88.3631 38.836 88.2191 40.564ZM98.3427 46V36.64H99.7647V37.99H99.8727C100.323 37.126 101.223 36.406 102.609 36.406C104.013 36.406 105.039 37.09 105.561 38.116H105.687C106.317 36.91 107.343 36.406 108.657 36.406C110.745 36.406 112.095 37.882 112.095 39.934V46H110.673V40.402C110.673 38.638 109.791 37.738 108.405 37.738C107.091 37.738 105.939 38.674 105.939 40.42V46H104.517V40.132C104.517 38.638 103.509 37.738 102.195 37.738C100.881 37.738 99.7647 38.782 99.7647 40.366V46H98.3427ZM119.107 46.234C116.245 46.234 114.427 44.128 114.427 41.32C114.427 38.332 116.461 36.406 119.017 36.406C121.861 36.406 123.553 38.494 123.553 41.194V41.824H115.921C115.993 43.696 117.199 44.938 119.125 44.938C120.367 44.938 121.555 44.344 121.987 43.246H123.463C122.941 44.992 121.303 46.234 119.107 46.234ZM115.957 40.564H122.041C121.915 38.692 120.601 37.702 119.017 37.702C117.451 37.702 116.101 38.836 115.957 40.564ZM126.081 46V36.64H127.503V38.008H127.611C128.007 37.162 129.015 36.406 130.473 36.406C132.651 36.406 133.965 38.044 133.965 40.114V46H132.543V40.204C132.543 38.71 131.445 37.738 130.131 37.738C128.655 37.738 127.503 38.872 127.503 40.42V46H126.081ZM140.686 46C138.958 46 137.896 45.064 137.896 43.174V37.846H136.132V36.64H137.536C137.788 36.64 137.986 36.478 137.986 36.172V33.922H139.318V36.64H142.198V37.846H139.318V43.156C139.318 44.164 139.696 44.758 140.776 44.758H142.072V46H140.686ZM144.084 47.944L149.538 32.5H150.852L145.398 47.944H144.084ZM164.255 46.234C160.529 46.234 157.793 43.444 157.793 39.7C157.793 35.992 160.547 33.166 164.273 33.166C167.171 33.166 169.367 34.876 170.195 37.432H168.629C167.963 35.524 166.217 34.534 164.273 34.534C161.483 34.534 159.305 36.748 159.305 39.7C159.305 42.688 161.483 44.866 164.273 44.866C166.217 44.866 167.945 43.894 168.575 41.968H170.195C169.403 44.578 167.153 46.234 164.255 46.234ZM176.874 46.234C174.066 46.234 171.996 44.164 171.996 41.32C171.996 38.494 174.102 36.406 176.892 36.406C179.718 36.406 181.77 38.512 181.77 41.32C181.77 44.128 179.682 46.234 176.874 46.234ZM176.874 44.938C178.89 44.938 180.312 43.408 180.312 41.32C180.312 39.25 178.89 37.702 176.874 37.702C174.858 37.702 173.454 39.268 173.454 41.32C173.454 43.426 174.876 44.938 176.874 44.938ZM188.44 46.234C185.632 46.234 183.562 44.164 183.562 41.32C183.562 38.494 185.668 36.406 188.458 36.406C191.284 36.406 193.336 38.512 193.336 41.32C193.336 44.128 191.248 46.234 188.44 46.234ZM188.44 44.938C190.456 44.938 191.878 43.408 191.878 41.32C191.878 39.25 190.456 37.702 188.44 37.702C186.424 37.702 185.02 39.268 185.02 41.32C185.02 43.426 186.442 44.938 188.44 44.938ZM195.849 46V36.64H197.253V38.386H197.361C197.631 37.594 198.549 36.64 199.917 36.64H200.709V38.062H199.935C198.225 38.062 197.271 39.394 197.271 41.176V46H195.849ZM206.646 46.234C203.892 46.234 201.984 44.2 201.984 41.338C201.984 38.458 203.892 36.406 206.538 36.406C208.5 36.406 209.544 37.666 209.832 38.152H209.94V32.5H211.362V46H209.994V44.524H209.886C209.652 44.866 208.68 46.234 206.646 46.234ZM206.736 44.956C208.77 44.956 209.994 43.3 209.994 41.338C209.994 39.034 208.554 37.702 206.7 37.702C204.774 37.702 203.442 39.214 203.442 41.338C203.442 43.534 204.774 44.956 206.736 44.956ZM215.167 34.948C214.573 34.948 214.141 34.498 214.141 33.904C214.141 33.328 214.573 32.878 215.167 32.878C215.779 32.878 216.211 33.328 216.211 33.904C216.211 34.498 215.779 34.948 215.167 34.948ZM214.429 46V36.64H215.851V46H214.429ZM218.911 46V36.64H220.333V38.008H220.441C220.837 37.162 221.845 36.406 223.303 36.406C225.481 36.406 226.795 38.044 226.795 40.114V46H225.373V40.204C225.373 38.71 224.275 37.738 222.961 37.738C221.485 37.738 220.333 38.872 220.333 40.42V46H218.911ZM233.804 46.234C231.05 46.234 229.142 44.2 229.142 41.338C229.142 38.458 231.05 36.406 233.696 36.406C235.658 36.406 236.702 37.666 236.99 38.152H237.098V36.64H238.52V46H237.152V44.524H237.044C236.81 44.866 235.838 46.234 233.804 46.234ZM233.894 44.956C235.928 44.956 237.152 43.3 237.152 41.338C237.152 39.034 235.712 37.702 233.858 37.702C231.932 37.702 230.6 39.214 230.6 41.338C230.6 43.534 231.932 44.956 233.894 44.956ZM245.241 46C243.513 46 242.451 45.064 242.451 43.174V37.846H240.687V36.64H242.091C242.343 36.64 242.541 36.478 242.541 36.172V33.922H243.873V36.64H246.753V37.846H243.873V43.156C243.873 44.164 244.251 44.758 245.331 44.758H246.627V46H245.241ZM250.006 34.948C249.412 34.948 248.98 34.498 248.98 33.904C248.98 33.328 249.412 32.878 250.006 32.878C250.618 32.878 251.05 33.328 251.05 33.904C251.05 34.498 250.618 34.948 250.006 34.948ZM249.268 46V36.64H250.69V46H249.268ZM257.909 46.234C255.101 46.234 253.031 44.164 253.031 41.32C253.031 38.494 255.137 36.406 257.927 36.406C260.753 36.406 262.805 38.512 262.805 41.32C262.805 44.128 260.717 46.234 257.909 46.234ZM257.909 44.938C259.925 44.938 261.347 43.408 261.347 41.32C261.347 39.25 259.925 37.702 257.909 37.702C255.893 37.702 254.489 39.268 254.489 41.32C254.489 43.426 255.911 44.938 257.909 44.938ZM265.317 46V36.64H266.739V38.008H266.847C267.243 37.162 268.251 36.406 269.709 36.406C271.887 36.406 273.201 38.044 273.201 40.114V46H271.779V40.204C271.779 38.71 270.681 37.738 269.367 37.738C267.891 37.738 266.739 38.872 266.739 40.42V46H265.317Z" fill="#191528"/>
<line x1="151.715" y1="459" x2="151.715" y2="532.949" stroke="#191528" stroke-width="3"/>
<path d="M26.2539 747L26.2539 1072.77" stroke="#191528" stroke-width="3"/>
<path d="M288.949 801.443L288.949 1170.19" stroke="#191528" stroke-width="3"/>
<line x1="124" y1="533.447" x2="278.157" y2="533.447" stroke="#191528" stroke-width="3"/>
<path d="M59.9938 807.149C60.3843 806.758 60.3843 806.125 59.9938 805.734L53.6299 799.37C53.2393 798.98 52.6062 798.98 52.2156 799.37C51.8251 799.761 51.8251 800.394 52.2156 800.785L57.8725 806.441L52.2156 812.098C51.8251 812.489 51.8251 813.122 52.2156 813.512C52.6062 813.903 53.2393 813.903 53.6299 813.512L59.9938 807.149ZM26.7773 807.441H59.2867V805.441H26.7773V807.441Z" fill="#191528"/>
<path d="M59.9938 939.057C60.3843 938.666 60.3843 938.033 59.9938 937.643L53.6299 931.279C53.2393 930.888 52.6062 930.888 52.2156 931.279C51.8251 931.669 51.8251 932.302 52.2156 932.693L57.8725 938.35L52.2156 944.006C51.8251 944.397 51.8251 945.03 52.2156 945.421C52.6062 945.811 53.2393 945.811 53.6299 945.421L59.9938 939.057ZM26.7773 939.35H59.2867V937.35H26.7773V939.35Z" fill="#191528"/>
<path d="M59.9974 1072.96C60.388 1072.57 60.388 1071.94 59.9974 1071.55L53.6335 1065.18C53.243 1064.79 52.6098 1064.79 52.2193 1065.18C51.8287 1065.58 51.8287 1066.21 52.2193 1066.6L57.8761 1072.26L52.2193 1077.91C51.8287 1078.3 51.8287 1078.94 52.2193 1079.33C52.6098 1079.72 53.243 1079.72 53.6335 1079.33L59.9974 1072.96ZM24.6836 1073.26L59.2903 1073.26L59.2903 1071.26L24.6836 1071.26L24.6836 1073.26Z" fill="#191528"/>
<line x1="254.344" y1="802.941" x2="289.999" y2="802.941" stroke="#191528" stroke-width="3"/>
<line x1="253.297" y1="936.85" x2="288.952" y2="936.85" stroke="#191528" stroke-width="3"/>
<line x1="254.344" y1="1070.76" x2="289.999" y2="1070.76" stroke="#191528" stroke-width="3"/>
<line x1="287.902" y1="1168.69" x2="159.962" y2="1168.69" stroke="#191528" stroke-width="3"/>
<path d="M146.055 131.896C146.632 132.479 147.582 132.476 148.176 131.889L157.867 122.313C158.461 121.726 158.476 120.776 157.899 120.192C157.322 119.608 156.372 119.612 155.777 120.199L147.164 128.711L138.806 120.255C138.229 119.671 137.279 119.674 136.684 120.262C136.09 120.849 136.075 121.799 136.652 122.383L146.055 131.896ZM146.233 91.0049L145.632 130.837L148.632 130.827L149.233 90.9951L146.233 91.0049Z" fill="#191528"/>
<path d="M147.365 251.887C147.951 252.473 148.901 252.473 149.486 251.887L159.032 242.341C159.618 241.756 159.618 240.806 159.032 240.22C158.447 239.634 157.497 239.634 156.911 240.22L148.426 248.705L139.94 240.22C139.355 239.634 138.405 239.634 137.819 240.22C137.233 240.806 137.233 241.756 137.819 242.341L147.365 251.887ZM146.926 210.854L146.926 250.827L149.926 250.827L149.926 210.854L146.926 210.854Z" fill="#191528"/>
<path d="M147.365 378.799C147.951 379.385 148.901 379.385 149.486 378.799L159.032 369.253C159.618 368.668 159.618 367.718 159.032 367.132C158.447 366.546 157.497 366.546 156.911 367.132L148.426 375.617L139.94 367.132C139.355 366.546 138.405 366.546 137.819 367.132C137.233 367.718 137.233 368.668 137.819 369.253L147.365 378.799ZM146.926 338.766L146.926 377.739L149.926 377.739L149.926 338.766L146.926 338.766Z" fill="#191528"/>
<path d="M123.986 588.971C124.572 589.557 125.522 589.557 126.108 588.971L135.653 579.425C136.239 578.839 136.239 577.89 135.653 577.304C135.068 576.718 134.118 576.718 133.532 577.304L125.047 585.789L116.562 577.304C115.976 576.718 115.026 576.718 114.44 577.304C113.854 577.89 113.854 578.839 114.44 579.425L123.986 588.971ZM123.547 531.949L123.547 587.91L126.547 587.91L126.547 531.949L123.547 531.949Z" fill="#191528"/>
<path d="M158.939 1224.02C159.525 1224.61 160.475 1224.61 161.061 1224.02L170.607 1214.48C171.192 1213.89 171.192 1212.94 170.607 1212.35C170.021 1211.77 169.071 1211.77 168.485 1212.35L160 1220.84L151.515 1212.35C150.929 1211.77 149.979 1211.77 149.393 1212.35C148.808 1212.94 148.808 1213.89 149.393 1214.48L158.939 1224.02ZM158.5 1167L158.5 1222.96L161.5 1222.96L161.5 1167L158.5 1167Z" fill="#191528"/>
<path d="M148.939 1347.04C149.525 1347.62 150.475 1347.62 151.061 1347.04L160.607 1337.49C161.192 1336.9 161.192 1335.95 160.607 1335.37C160.021 1334.78 159.071 1334.78 158.485 1335.37L150 1343.85L141.515 1335.37C140.929 1334.78 139.979 1334.78 139.393 1335.37C138.808 1335.95 138.808 1336.9 139.393 1337.49L148.939 1347.04ZM148.5 1310L148.5 1345.98L151.5 1345.98L151.5 1310L148.5 1310Z" fill="#191528"/>
<path d="M277.096 676.91C277.681 677.496 278.631 677.496 279.217 676.91L288.763 667.364C289.349 666.778 289.349 665.829 288.763 665.243C288.177 664.657 287.227 664.657 286.642 665.243L278.156 673.728L269.671 665.243C269.085 664.657 268.135 664.657 267.55 665.243C266.964 665.829 266.964 666.778 267.55 667.364L277.096 676.91ZM276.656 531.949L276.656 675.849L279.656 675.849L279.656 531.949L276.656 531.949Z" fill="#191528"/>
<path d="M10.5136 1231.2C11.0993 1231.79 12.0491 1231.79 12.6349 1231.2L22.1808 1221.66C22.7666 1221.07 22.7666 1220.12 22.1808 1219.54C21.595 1218.95 20.6453 1218.95 20.0595 1219.54L11.5742 1228.02L3.08894 1219.54C2.50315 1218.95 1.5534 1218.95 0.967617 1219.54C0.38183 1220.12 0.38183 1221.07 0.967617 1221.66L10.5136 1231.2ZM10.0742 660.539L10.0742 1230.14H13.0742L13.0742 660.539H10.0742Z" fill="#191528"/>
</svg>
