<svg width="1077" height="983" viewBox="0 0 1077 983" fill="none" xmlns="http://www.w3.org/2000/svg">
<rect x="554.676" y="904.5" width="251.354" height="77" stroke="#F800FF" stroke-width="3"/>
<path d="M593.168 950V937.4H596.912C600.908 937.4 603.23 940.028 603.23 943.7C603.23 947.606 600.908 950 596.912 950H593.168ZM594.626 948.704H596.912C599.9 948.704 601.736 946.868 601.736 943.7C601.736 940.658 599.936 938.714 596.912 938.714H594.626V948.704ZM609.71 950.234C606.848 950.234 605.03 948.128 605.03 945.32C605.03 942.332 607.064 940.406 609.62 940.406C612.464 940.406 614.156 942.494 614.156 945.194V945.824H606.524C606.596 947.696 607.802 948.938 609.728 948.938C610.97 948.938 612.158 948.344 612.59 947.246H614.066C613.544 948.992 611.906 950.234 609.71 950.234ZM606.56 944.564H612.644C612.518 942.692 611.204 941.702 609.62 941.702C608.054 941.702 606.704 942.836 606.56 944.564ZM619.012 950L615.34 940.64H616.87L619.696 948.254H619.804L622.612 940.64H624.178L620.488 950H619.012ZM632.112 950.234C628.368 950.234 625.614 947.444 625.614 943.7C625.614 939.992 628.386 937.166 632.13 937.166C635.892 937.166 638.646 940.028 638.646 943.7C638.646 947.408 635.874 950.234 632.112 950.234ZM632.13 948.866C635.01 948.866 637.134 946.688 637.134 943.7C637.134 940.748 635.01 938.534 632.13 938.534C629.25 938.534 627.126 940.748 627.126 943.7C627.126 946.688 629.25 948.866 632.13 948.866ZM641.17 954.14V940.64H642.538V942.116H642.646C642.88 941.774 643.852 940.406 645.886 940.406C648.64 940.406 650.548 942.44 650.548 945.302C650.548 948.182 648.64 950.234 645.994 950.234C644.032 950.234 642.988 948.974 642.7 948.488H642.592V954.14H641.17ZM645.832 948.938C647.758 948.938 649.09 947.426 649.09 945.302C649.09 943.106 647.758 941.684 645.796 941.684C643.762 941.684 642.538 943.34 642.538 945.302C642.538 947.606 643.978 948.938 645.832 948.938ZM656.166 950.234C653.952 950.234 652.692 949.028 652.53 947.282H653.916C654.078 948.398 654.87 948.992 656.238 948.992C657.642 948.992 658.416 948.308 658.416 947.354C658.416 944.726 652.818 946.724 652.818 943.016C652.818 941.432 654.24 940.406 656.202 940.406C657.93 940.406 659.37 941.414 659.514 943.106H658.146C658.02 942.224 657.354 941.63 656.112 941.63C654.942 941.63 654.186 942.206 654.186 943.016C654.186 945.392 659.802 943.412 659.802 947.282C659.802 949.046 658.344 950.234 656.166 950.234ZM671.908 952.574C669.118 951.08 666.832 948.344 666.832 944.42C666.832 940.496 669.118 937.76 671.908 936.266L672.556 937.346C670.144 938.66 668.254 941.036 668.254 944.42C668.254 947.804 670.144 950.18 672.556 951.494L671.908 952.574ZM675.979 950V937.4H679.723C683.719 937.4 686.041 940.028 686.041 943.7C686.041 947.606 683.719 950 679.723 950H675.979ZM677.437 948.704H679.723C682.711 948.704 684.547 946.868 684.547 943.7C684.547 940.658 682.747 938.714 679.723 938.714H677.437V948.704ZM692.52 950.234C689.658 950.234 687.84 948.128 687.84 945.32C687.84 942.332 689.874 940.406 692.43 940.406C695.274 940.406 696.966 942.494 696.966 945.194V945.824H689.334C689.406 947.696 690.612 948.938 692.538 948.938C693.78 948.938 694.968 948.344 695.4 947.246H696.876C696.354 948.992 694.716 950.234 692.52 950.234ZM689.37 944.564H695.454C695.328 942.692 694.014 941.702 692.43 941.702C690.864 941.702 689.514 942.836 689.37 944.564ZM702.59 950.234C700.376 950.234 699.116 949.028 698.954 947.282H700.34C700.502 948.398 701.294 948.992 702.662 948.992C704.066 948.992 704.84 948.308 704.84 947.354C704.84 944.726 699.242 946.724 699.242 943.016C699.242 941.432 700.664 940.406 702.626 940.406C704.354 940.406 705.794 941.414 705.938 943.106H704.57C704.444 942.224 703.778 941.63 702.536 941.63C701.366 941.63 700.61 942.206 700.61 943.016C700.61 945.392 706.226 943.412 706.226 947.282C706.226 949.046 704.768 950.234 702.59 950.234ZM709.021 954.14V940.64H710.389V942.116H710.497C710.731 941.774 711.703 940.406 713.737 940.406C716.491 940.406 718.399 942.44 718.399 945.302C718.399 948.182 716.491 950.234 713.845 950.234C711.883 950.234 710.839 948.974 710.551 948.488H710.443V954.14H709.021ZM713.683 948.938C715.609 948.938 716.941 947.426 716.941 945.302C716.941 943.106 715.609 941.684 713.647 941.684C711.613 941.684 710.389 943.34 710.389 945.302C710.389 947.606 711.829 948.938 713.683 948.938ZM722.231 950C721.061 950 720.377 949.28 720.377 948.002V936.5H721.799V948.002C721.799 948.47 722.033 948.74 722.483 948.74H722.915V950H722.231ZM726.002 938.948C725.408 938.948 724.976 938.498 724.976 937.904C724.976 937.328 725.408 936.878 726.002 936.878C726.614 936.878 727.046 937.328 727.046 937.904C727.046 938.498 726.614 938.948 726.002 938.948ZM725.264 950V940.64H726.686V950H725.264ZM733.706 950.234C730.844 950.234 729.026 948.128 729.026 945.32C729.026 942.332 731.06 940.406 733.616 940.406C736.46 940.406 738.152 942.494 738.152 945.194V945.824H730.52C730.592 947.696 731.798 948.938 733.724 948.938C734.966 948.938 736.154 948.344 736.586 947.246H738.062C737.54 948.992 735.902 950.234 733.706 950.234ZM730.556 944.564H736.64C736.514 942.692 735.2 941.702 733.616 941.702C732.05 941.702 730.7 942.836 730.556 944.564ZM744.784 954.374C742.498 954.374 741.022 953.132 740.716 951.458H742.066C742.318 952.556 743.398 953.132 744.784 953.132C746.98 953.132 747.97 951.908 747.97 950V948.524H747.862C747.628 948.866 746.656 950.234 744.622 950.234C741.868 950.234 739.96 948.2 739.96 945.338C739.96 942.458 741.868 940.406 744.514 940.406C746.476 940.406 747.52 941.666 747.808 942.152H747.916V940.64H749.338V950C749.338 952.754 747.592 954.374 744.784 954.374ZM744.712 948.956C746.746 948.956 747.97 947.3 747.97 945.338C747.97 943.034 746.53 941.702 744.676 941.702C742.75 941.702 741.418 943.214 741.418 945.338C741.418 947.534 742.75 948.956 744.712 948.956ZM755.716 950.234C753.538 950.234 752.224 948.596 752.224 946.526V940.64H753.646V946.472C753.646 947.966 754.744 948.938 756.058 948.938C757.534 948.938 758.686 947.804 758.686 946.256V940.64H760.108V950H758.686V948.632H758.578C758.182 949.478 757.174 950.234 755.716 950.234ZM767.122 950.234C764.26 950.234 762.442 948.128 762.442 945.32C762.442 942.332 764.476 940.406 767.032 940.406C769.876 940.406 771.568 942.494 771.568 945.194V945.824H763.936C764.008 947.696 765.214 948.938 767.14 948.938C768.382 948.938 769.57 948.344 770.002 947.246H771.478C770.956 948.992 769.318 950.234 767.122 950.234ZM763.972 944.564H770.056C769.93 942.692 768.616 941.702 767.032 941.702C765.466 941.702 764.116 942.836 763.972 944.564ZM774.744 936.266C777.534 937.76 779.82 940.496 779.82 944.42C779.82 948.344 777.534 951.08 774.744 952.574L774.096 951.494C776.508 950.18 778.398 947.804 778.398 944.42C778.398 941.036 776.508 938.66 774.096 937.346L774.744 936.266Z" fill="#191528"/>
<rect x="554.676" y="754.5" width="251.354" height="53" stroke="#191528" stroke-width="3"/>
<path d="M674.091 787.234C670.347 787.234 667.593 784.444 667.593 780.7C667.593 776.992 670.365 774.166 674.109 774.166C677.871 774.166 680.625 777.028 680.625 780.7C680.625 782.464 679.995 784.03 678.933 785.182L680.409 787H678.699L677.925 786.064C676.863 786.802 675.549 787.234 674.091 787.234ZM674.109 785.866C675.225 785.866 676.233 785.542 677.025 784.966L674.307 781.636H676.035L677.997 784.048C678.699 783.166 679.113 782.014 679.113 780.7C679.113 777.748 676.989 775.534 674.109 775.534C671.229 775.534 669.105 777.748 669.105 780.7C669.105 783.688 671.229 785.866 674.109 785.866ZM681.538 787L686.398 774.4H688.108L692.95 787H691.42L690.286 784.012H684.202L683.068 787H681.538ZM684.706 782.68H689.782L687.298 776.092H687.19L684.706 782.68Z" fill="#191528"/>
<rect x="820.062" y="517.5" width="254.548" height="53" stroke="#F800FF" stroke-width="3"/>
<path d="M910.752 550V537.4H914.82C917.214 537.4 918.636 538.786 918.636 540.622C918.636 541.864 918.042 542.8 917.034 543.34V543.448C917.88 543.736 919.068 544.636 919.068 546.418C919.068 548.686 917.304 550 915.18 550H910.752ZM912.192 542.854H914.766C916.188 542.854 917.142 542.008 917.142 540.73C917.142 539.488 916.17 538.696 914.82 538.696H912.192V542.854ZM912.192 548.722H914.928C916.422 548.722 917.556 548.002 917.556 546.382C917.556 544.726 916.224 544.078 914.766 544.078H912.192V548.722ZM925.536 550.234C922.782 550.234 920.874 548.2 920.874 545.338C920.874 542.458 922.782 540.406 925.428 540.406C927.39 540.406 928.434 541.666 928.722 542.152H928.83V540.64H930.252V550H928.884V548.524H928.776C928.542 548.866 927.57 550.234 925.536 550.234ZM925.626 548.956C927.66 548.956 928.884 547.3 928.884 545.338C928.884 543.034 927.444 541.702 925.59 541.702C923.664 541.702 922.332 543.214 922.332 545.338C922.332 547.534 923.664 548.956 925.626 548.956ZM937.404 550.234C934.578 550.234 932.598 548.092 932.598 545.32C932.598 542.548 934.632 540.406 937.386 540.406C939.42 540.406 941.31 541.63 941.814 543.718H940.338C939.96 542.494 938.772 541.702 937.422 541.702C935.424 541.702 934.074 543.286 934.074 545.32C934.074 547.426 935.496 548.938 937.458 548.938C938.808 548.938 940.014 548.146 940.374 546.922H941.832C941.346 549.01 939.438 550.234 937.404 550.234ZM951.935 550H950.315L947.345 545.32L945.779 546.994V550H944.357V536.5H945.779V545.05H945.887L949.901 540.64H951.701L948.299 544.276L951.935 550ZM954.1 550V537.4H961.282V538.732H955.558V542.926H960.49V544.24H955.558V548.686H961.48V550H954.1ZM963.992 550V540.64H965.414V542.008H965.522C965.918 541.162 966.926 540.406 968.384 540.406C970.562 540.406 971.876 542.044 971.876 544.114V550H970.454V544.204C970.454 542.71 969.356 541.738 968.042 541.738C966.566 541.738 965.414 542.872 965.414 544.42V550H963.992ZM978.885 550.234C976.131 550.234 974.223 548.2 974.223 545.338C974.223 542.458 976.131 540.406 978.777 540.406C980.739 540.406 981.783 541.666 982.071 542.152H982.179V536.5H983.601V550H982.233V548.524H982.125C981.891 548.866 980.919 550.234 978.885 550.234ZM978.975 548.956C981.009 548.956 982.233 547.3 982.233 545.338C982.233 543.034 980.793 541.702 978.939 541.702C977.013 541.702 975.681 543.214 975.681 545.338C975.681 547.534 977.013 548.956 978.975 548.956Z" fill="#191528"/>
<rect x="554.5" y="517.5" width="254.022" height="53" stroke="#F800FF" stroke-width="3"/>
<path d="M643.959 550V537.4H651.141V538.732H645.417V543.052H650.763V544.366H645.417V550H643.959ZM653.658 550V540.64H655.062V542.386H655.17C655.44 541.594 656.358 540.64 657.726 540.64H658.518V542.062H657.744C656.034 542.062 655.08 543.394 655.08 545.176V550H653.658ZM664.672 550.234C661.864 550.234 659.794 548.164 659.794 545.32C659.794 542.494 661.9 540.406 664.69 540.406C667.516 540.406 669.568 542.512 669.568 545.32C669.568 548.128 667.48 550.234 664.672 550.234ZM664.672 548.938C666.688 548.938 668.11 547.408 668.11 545.32C668.11 543.25 666.688 541.702 664.672 541.702C662.656 541.702 661.252 543.268 661.252 545.32C661.252 547.426 662.674 548.938 664.672 548.938ZM672.08 550V540.64H673.502V542.008H673.61C674.006 541.162 675.014 540.406 676.472 540.406C678.65 540.406 679.964 542.044 679.964 544.114V550H678.542V544.204C678.542 542.71 677.444 541.738 676.13 541.738C674.654 541.738 673.502 542.872 673.502 544.42V550H672.08ZM686.685 550C684.957 550 683.895 549.064 683.895 547.174V541.846H682.131V540.64H683.535C683.787 540.64 683.985 540.478 683.985 540.172V537.922H685.317V540.64H688.197V541.846H685.317V547.156C685.317 548.164 685.695 548.758 686.775 548.758H688.071V550H686.685ZM690.893 550V537.4H698.075V538.732H692.351V542.926H697.283V544.24H692.351V548.686H698.273V550H690.893ZM700.785 550V540.64H702.207V542.008H702.315C702.711 541.162 703.719 540.406 705.177 540.406C707.355 540.406 708.669 542.044 708.669 544.114V550H707.247V544.204C707.247 542.71 706.149 541.738 704.835 541.738C703.359 541.738 702.207 542.872 702.207 544.42V550H700.785ZM715.678 550.234C712.924 550.234 711.016 548.2 711.016 545.338C711.016 542.458 712.924 540.406 715.57 540.406C717.532 540.406 718.576 541.666 718.864 542.152H718.972V536.5H720.394V550H719.026V548.524H718.918C718.684 548.866 717.712 550.234 715.678 550.234ZM715.768 548.956C717.802 548.956 719.026 547.3 719.026 545.338C719.026 543.034 717.586 541.702 715.732 541.702C713.806 541.702 712.474 543.214 712.474 545.338C712.474 547.534 713.806 548.956 715.768 548.956Z" fill="#191528"/>
<rect x="288.758" y="517.5" width="254.548" height="53" stroke="#F800FF" stroke-width="3"/>
<path d="M383.495 550V537.4H387.239C391.235 537.4 393.557 540.028 393.557 543.7C393.557 547.606 391.235 550 387.239 550H383.495ZM384.953 548.704H387.239C390.227 548.704 392.063 546.868 392.063 543.7C392.063 540.658 390.263 538.714 387.239 538.714H384.953V548.704ZM400.037 550.234C397.175 550.234 395.357 548.128 395.357 545.32C395.357 542.332 397.391 540.406 399.947 540.406C402.791 540.406 404.483 542.494 404.483 545.194V545.824H396.851C396.923 547.696 398.129 548.938 400.055 548.938C401.297 548.938 402.485 548.344 402.917 547.246H404.393C403.871 548.992 402.233 550.234 400.037 550.234ZM396.887 544.564H402.971C402.845 542.692 401.531 541.702 399.947 541.702C398.381 541.702 397.031 542.836 396.887 544.564ZM409.339 550L405.667 540.64H407.197L410.023 548.254H410.131L412.939 540.64H414.505L410.815 550H409.339ZM422.439 550.234C418.695 550.234 415.941 547.444 415.941 543.7C415.941 539.992 418.713 537.166 422.457 537.166C426.219 537.166 428.973 540.028 428.973 543.7C428.973 547.408 426.201 550.234 422.439 550.234ZM422.457 548.866C425.337 548.866 427.461 546.688 427.461 543.7C427.461 540.748 425.337 538.534 422.457 538.534C419.577 538.534 417.453 540.748 417.453 543.7C417.453 546.688 419.577 548.866 422.457 548.866ZM431.497 554.14V540.64H432.865V542.116H432.973C433.207 541.774 434.179 540.406 436.213 540.406C438.967 540.406 440.875 542.44 440.875 545.302C440.875 548.182 438.967 550.234 436.321 550.234C434.359 550.234 433.315 548.974 433.027 548.488H432.919V554.14H431.497ZM436.159 548.938C438.085 548.938 439.417 547.426 439.417 545.302C439.417 543.106 438.085 541.684 436.123 541.684C434.089 541.684 432.865 543.34 432.865 545.302C432.865 547.606 434.305 548.938 436.159 548.938ZM446.493 550.234C444.279 550.234 443.019 549.028 442.857 547.282H444.243C444.405 548.398 445.197 548.992 446.565 548.992C447.969 548.992 448.743 548.308 448.743 547.354C448.743 544.726 443.145 546.724 443.145 543.016C443.145 541.432 444.567 540.406 446.529 540.406C448.257 540.406 449.697 541.414 449.841 543.106H448.473C448.347 542.224 447.681 541.63 446.439 541.63C445.269 541.63 444.513 542.206 444.513 543.016C444.513 545.392 450.129 543.412 450.129 547.282C450.129 549.046 448.671 550.234 446.493 550.234Z" fill="#191528"/>
<rect x="556.453" y="270.5" width="254.022" height="53" stroke="#F800FF" stroke-width="3"/>
<path d="M639.071 304V291.4H642.815C646.811 291.4 649.133 294.028 649.133 297.7C649.133 301.606 646.811 304 642.815 304H639.071ZM640.529 302.704H642.815C645.803 302.704 647.639 300.868 647.639 297.7C647.639 294.658 645.839 292.714 642.815 292.714H640.529V302.704ZM655.612 304.234C652.75 304.234 650.932 302.128 650.932 299.32C650.932 296.332 652.966 294.406 655.522 294.406C658.366 294.406 660.058 296.494 660.058 299.194V299.824H652.426C652.498 301.696 653.704 302.938 655.63 302.938C656.872 302.938 658.06 302.344 658.492 301.246H659.968C659.446 302.992 657.808 304.234 655.612 304.234ZM652.462 298.564H658.546C658.42 296.692 657.106 295.702 655.522 295.702C653.956 295.702 652.606 296.836 652.462 298.564ZM665.682 304.234C663.468 304.234 662.208 303.028 662.046 301.282H663.432C663.594 302.398 664.386 302.992 665.754 302.992C667.158 302.992 667.932 302.308 667.932 301.354C667.932 298.726 662.334 300.724 662.334 297.016C662.334 295.432 663.756 294.406 665.718 294.406C667.446 294.406 668.886 295.414 669.03 297.106H667.662C667.536 296.224 666.87 295.63 665.628 295.63C664.458 295.63 663.702 296.206 663.702 297.016C663.702 299.392 669.318 297.412 669.318 301.282C669.318 303.046 667.86 304.234 665.682 304.234ZM676.055 304.234C673.301 304.234 671.393 302.2 671.393 299.338C671.393 296.458 673.301 294.406 675.947 294.406C677.909 294.406 678.953 295.666 679.241 296.152H679.349V294.64H680.771V304H679.403V302.524H679.295C679.061 302.866 678.089 304.234 676.055 304.234ZM676.145 302.956C678.179 302.956 679.403 301.3 679.403 299.338C679.403 297.034 677.963 295.702 676.109 295.702C674.183 295.702 672.851 297.214 672.851 299.338C672.851 301.534 674.183 302.956 676.145 302.956ZM683.838 304V294.64H685.242V296.386H685.35C685.62 295.594 686.538 294.64 687.906 294.64H688.698V296.062H687.924C686.214 296.062 685.26 297.394 685.26 299.176V304H683.838ZM691.045 304V294.64H692.449V296.386H692.557C692.827 295.594 693.745 294.64 695.113 294.64H695.905V296.062H695.131C693.421 296.062 692.467 297.394 692.467 299.176V304H691.045ZM702.058 304.234C699.25 304.234 697.18 302.164 697.18 299.32C697.18 296.494 699.286 294.406 702.076 294.406C704.902 294.406 706.954 296.512 706.954 299.32C706.954 302.128 704.866 304.234 702.058 304.234ZM702.058 302.938C704.074 302.938 705.496 301.408 705.496 299.32C705.496 297.25 704.074 295.702 702.058 295.702C700.042 295.702 698.638 297.268 698.638 299.32C698.638 301.426 700.06 302.938 702.058 302.938ZM710.776 304C709.606 304 708.922 303.28 708.922 302.002V290.5H710.344V302.002C710.344 302.47 710.578 302.74 711.028 302.74H711.46V304H710.776ZM715.75 304C714.58 304 713.896 303.28 713.896 302.002V290.5H715.318V302.002C715.318 302.47 715.552 302.74 716.002 302.74H716.434V304H715.75ZM722.941 304.234C720.133 304.234 718.063 302.164 718.063 299.32C718.063 296.494 720.169 294.406 722.959 294.406C725.785 294.406 727.837 296.512 727.837 299.32C727.837 302.128 725.749 304.234 722.941 304.234ZM722.941 302.938C724.957 302.938 726.379 301.408 726.379 299.32C726.379 297.25 724.957 295.702 722.941 295.702C720.925 295.702 719.521 297.268 719.521 299.32C719.521 301.426 720.943 302.938 722.941 302.938Z" fill="#191528"/>
<rect x="1.5" y="270.5" width="261.137" height="53" stroke="#D6E05F" stroke-width="3"/>
<path d="M92.8317 304.234C89.1057 304.234 86.3697 301.444 86.3697 297.7C86.3697 293.992 89.1237 291.166 92.8497 291.166C95.7477 291.166 97.9437 292.876 98.7717 295.432H97.2057C96.5397 293.524 94.7937 292.534 92.8497 292.534C90.0597 292.534 87.8817 294.748 87.8817 297.7C87.8817 300.688 90.0597 302.866 92.8497 302.866C94.7937 302.866 96.5217 301.894 97.1517 299.968H98.7717C97.9797 302.578 95.7297 304.234 92.8317 304.234ZM105.451 304.234C102.643 304.234 100.573 302.164 100.573 299.32C100.573 296.494 102.679 294.406 105.469 294.406C108.295 294.406 110.347 296.512 110.347 299.32C110.347 302.128 108.259 304.234 105.451 304.234ZM105.451 302.938C107.467 302.938 108.889 301.408 108.889 299.32C108.889 297.25 107.467 295.702 105.451 295.702C103.435 295.702 102.031 297.268 102.031 299.32C102.031 301.426 103.453 302.938 105.451 302.938ZM112.859 304V294.64H114.281V296.008H114.389C114.785 295.162 115.793 294.406 117.251 294.406C119.429 294.406 120.743 296.044 120.743 298.114V304H119.321V298.204C119.321 296.71 118.223 295.738 116.909 295.738C115.433 295.738 114.281 296.872 114.281 298.42V304H112.859ZM127.464 304C125.736 304 124.674 303.064 124.674 301.174V295.846H122.91V294.64H124.314C124.566 294.64 124.764 294.478 124.764 294.172V291.922H126.096V294.64H128.976V295.846H126.096V301.156C126.096 302.164 126.474 302.758 127.554 302.758H128.85V304H127.464ZM135.452 304.234C132.59 304.234 130.772 302.128 130.772 299.32C130.772 296.332 132.806 294.406 135.362 294.406C138.206 294.406 139.898 296.494 139.898 299.194V299.824H132.266C132.338 301.696 133.544 302.938 135.47 302.938C136.712 302.938 137.9 302.344 138.332 301.246H139.808C139.286 302.992 137.648 304.234 135.452 304.234ZM132.302 298.564H138.386C138.26 296.692 136.946 295.702 135.362 295.702C133.796 295.702 132.446 296.836 132.302 298.564ZM142.426 304V294.64H143.848V296.008H143.956C144.352 295.162 145.36 294.406 146.818 294.406C148.996 294.406 150.31 296.044 150.31 298.114V304H148.888V298.204C148.888 296.71 147.79 295.738 146.476 295.738C145 295.738 143.848 296.872 143.848 298.42V304H142.426ZM154.115 292.948C153.521 292.948 153.089 292.498 153.089 291.904C153.089 291.328 153.521 290.878 154.115 290.878C154.727 290.878 155.159 291.328 155.159 291.904C155.159 292.498 154.727 292.948 154.115 292.948ZM153.377 304V294.64H154.799V304H153.377ZM161.801 304.234C159.047 304.234 157.139 302.2 157.139 299.338C157.139 296.458 159.047 294.406 161.693 294.406C163.655 294.406 164.699 295.666 164.987 296.152H165.095V290.5H166.517V304H165.149V302.524H165.041C164.807 302.866 163.835 304.234 161.801 304.234ZM161.891 302.956C163.925 302.956 165.149 301.3 165.149 299.338C165.149 297.034 163.709 295.702 161.855 295.702C159.929 295.702 158.597 297.214 158.597 299.338C158.597 301.534 159.929 302.956 161.891 302.956ZM173.742 304.234C170.934 304.234 168.864 302.164 168.864 299.32C168.864 296.494 170.97 294.406 173.76 294.406C176.586 294.406 178.638 296.512 178.638 299.32C178.638 302.128 176.55 304.234 173.742 304.234ZM173.742 302.938C175.758 302.938 177.18 301.408 177.18 299.32C177.18 297.25 175.758 295.702 173.742 295.702C171.726 295.702 170.322 297.268 170.322 299.32C170.322 301.426 171.744 302.938 173.742 302.938Z" fill="#191528"/>
<rect x="813.473" y="147.5" width="262.026" height="53" stroke="#2E39A7" stroke-width="3"/>
<path d="M916.813 181.234C913.753 181.234 911.953 179.29 911.953 176.392V168.4H913.897V176.374C913.897 178.246 914.887 179.434 916.813 179.434C918.721 179.434 919.729 178.246 919.729 176.356V168.4H921.655V176.374C921.655 179.272 919.819 181.234 916.813 181.234ZM923.279 181L927.401 174.592L923.495 168.4H925.691L928.571 173.044H928.679L931.577 168.4H933.791L929.867 174.592L933.971 181H931.721L928.661 176.104H928.553L925.529 181H923.279ZM940.732 181V168.4H942.676V173.71H948.796V168.4H950.722V181H948.796V175.51H942.676V181H940.732ZM954.779 170.11C954.059 170.11 953.537 169.624 953.537 168.904C953.537 168.22 954.059 167.716 954.779 167.716C955.517 167.716 956.039 168.22 956.039 168.904C956.039 169.624 955.517 170.11 954.779 170.11ZM953.825 181V171.586H955.715V181H953.825ZM958.088 176.392V174.718H962.858V176.392H958.088ZM965.587 181V168.4H973.057V170.11H967.531V173.944H972.625V175.636H967.531V181H965.587ZM976.312 170.11C975.592 170.11 975.07 169.624 975.07 168.904C975.07 168.22 975.592 167.716 976.312 167.716C977.05 167.716 977.572 168.22 977.572 168.904C977.572 169.624 977.05 170.11 976.312 170.11ZM975.358 181V171.586H977.248V181H975.358Z" fill="#191528"/>
<rect x="813.473" y="1.5" width="262.026" height="53" stroke="#191528" stroke-width="3"/>
<path d="M895.596 35V22.4H897.054V35H895.596ZM900.478 35V25.64H901.9V27.008H902.008C902.404 26.162 903.412 25.406 904.87 25.406C907.048 25.406 908.362 27.044 908.362 29.114V35H906.94V29.204C906.94 27.71 905.842 26.738 904.528 26.738C903.052 26.738 901.9 27.872 901.9 29.42V35H900.478ZM915.084 35C913.356 35 912.294 34.064 912.294 32.174V26.846H910.53V25.64H911.934C912.186 25.64 912.384 25.478 912.384 25.172V22.922H913.716V25.64H916.596V26.846H913.716V32.156C913.716 33.164 914.094 33.758 915.174 33.758H916.47V35H915.084ZM923.071 35.234C920.209 35.234 918.391 33.128 918.391 30.32C918.391 27.332 920.425 25.406 922.981 25.406C925.825 25.406 927.517 27.494 927.517 30.194V30.824H919.885C919.957 32.696 921.163 33.938 923.089 33.938C924.331 33.938 925.519 33.344 925.951 32.246H927.427C926.905 33.992 925.267 35.234 923.071 35.234ZM919.921 29.564H926.005C925.879 27.692 924.565 26.702 922.981 26.702C921.415 26.702 920.065 27.836 919.921 29.564ZM930.045 35V25.64H931.449V27.386H931.557C931.827 26.594 932.745 25.64 934.113 25.64H934.905V27.062H934.131C932.421 27.062 931.467 28.394 931.467 30.176V35H930.045ZM937.252 35V25.64H938.674V27.008H938.782C939.178 26.162 940.186 25.406 941.644 25.406C943.822 25.406 945.136 27.044 945.136 29.114V35H943.714V29.204C943.714 27.71 942.616 26.738 941.302 26.738C939.826 26.738 938.674 27.872 938.674 29.42V35H937.252ZM952.145 35.234C949.391 35.234 947.483 33.2 947.483 30.338C947.483 27.458 949.391 25.406 952.037 25.406C953.999 25.406 955.043 26.666 955.331 27.152H955.439V25.64H956.861V35H955.493V33.524H955.385C955.151 33.866 954.179 35.234 952.145 35.234ZM952.235 33.956C954.269 33.956 955.493 32.3 955.493 30.338C955.493 28.034 954.053 26.702 952.199 26.702C950.273 26.702 948.941 28.214 948.941 30.338C948.941 32.534 950.273 33.956 952.235 33.956ZM961.782 35C960.612 35 959.928 34.28 959.928 33.002V21.5H961.35V33.002C961.35 33.47 961.584 33.74 962.034 33.74H962.466V35H961.782ZM975.989 35.234C972.245 35.234 969.491 32.444 969.491 28.7C969.491 24.992 972.263 22.166 976.007 22.166C979.769 22.166 982.523 25.028 982.523 28.7C982.523 30.464 981.893 32.03 980.831 33.182L982.307 35H980.597L979.823 34.064C978.761 34.802 977.447 35.234 975.989 35.234ZM976.007 33.866C977.123 33.866 978.131 33.542 978.923 32.966L976.205 29.636H977.933L979.895 32.048C980.597 31.166 981.011 30.014 981.011 28.7C981.011 25.748 978.887 23.534 976.007 23.534C973.127 23.534 971.003 25.748 971.003 28.7C971.003 31.688 973.127 33.866 976.007 33.866ZM983.435 35L988.295 22.4H990.005L994.847 35H993.317L992.183 32.012H986.099L984.965 35H983.435ZM986.603 30.68H991.679L989.195 24.092H989.087L986.603 30.68Z" fill="#191528"/>
<rect x="418.602" y="1.5" width="251.354" height="53" stroke="#2E39A7" stroke-width="3"/>
<path d="M514.977 34.234C511.953 34.234 510.279 32.344 510.279 29.482V21.4H511.737V29.464C511.737 31.552 512.853 32.884 514.977 32.884C517.101 32.884 518.235 31.552 518.235 29.446V21.4H519.675V29.464C519.675 32.308 517.965 34.234 514.977 34.234ZM521.478 34L525.726 27.61L521.694 21.4H523.386L526.608 26.44H526.716L529.956 21.4H531.666L527.598 27.61L531.846 34H530.118L526.68 28.762H526.572L523.188 34H521.478ZM538.865 34V21.4H540.323V32.686H545.759V34H538.865ZM552.09 34.234C549.282 34.234 547.212 32.164 547.212 29.32C547.212 26.494 549.318 24.406 552.108 24.406C554.934 24.406 556.986 26.512 556.986 29.32C556.986 32.128 554.898 34.234 552.09 34.234ZM552.09 32.938C554.106 32.938 555.528 31.408 555.528 29.32C555.528 27.25 554.106 25.702 552.09 25.702C550.074 25.702 548.67 27.268 548.67 29.32C548.67 31.426 550.092 32.938 552.09 32.938ZM559.138 29.248V27.916H563.728V29.248H559.138ZM566.779 34V21.4H573.961V22.732H568.237V27.052H573.583V28.366H568.237V34H566.779ZM577.216 22.948C576.622 22.948 576.19 22.498 576.19 21.904C576.19 21.328 576.622 20.878 577.216 20.878C577.828 20.878 578.26 21.328 578.26 21.904C578.26 22.498 577.828 22.948 577.216 22.948ZM576.478 34V24.64H577.9V34H576.478Z" fill="#191528"/>
<rect x="1.5" y="1.5" width="261.137" height="53" stroke="#6FCCB3" stroke-width="3"/>
<path d="M35.3619 35.234C31.6179 35.234 28.8639 32.444 28.8639 28.7C28.8639 24.992 31.6359 22.166 35.3799 22.166C39.1419 22.166 41.8959 25.028 41.8959 28.7C41.8959 32.408 39.1239 35.234 35.3619 35.234ZM35.3799 33.866C38.2599 33.866 40.3839 31.688 40.3839 28.7C40.3839 25.748 38.2599 23.534 35.3799 23.534C32.4999 23.534 30.3759 25.748 30.3759 28.7C30.3759 31.688 32.4999 33.866 35.3799 33.866ZM44.4198 35V25.64H45.8238V27.386H45.9318C46.2018 26.594 47.1198 25.64 48.4878 25.64H49.2798V27.062H48.5058C46.7958 27.062 45.8418 28.394 45.8418 30.176V35H44.4198ZM55.3793 39.374C53.0933 39.374 51.6173 38.132 51.3113 36.458H52.6613C52.9133 37.556 53.9933 38.132 55.3793 38.132C57.5753 38.132 58.5653 36.908 58.5653 35V33.524H58.4573C58.2233 33.866 57.2513 35.234 55.2173 35.234C52.4633 35.234 50.5553 33.2 50.5553 30.338C50.5553 27.458 52.4633 25.406 55.1093 25.406C57.0713 25.406 58.1153 26.666 58.4033 27.152H58.5113V25.64H59.9333V35C59.9333 37.754 58.1873 39.374 55.3793 39.374ZM55.3073 33.956C57.3413 33.956 58.5653 32.3 58.5653 30.338C58.5653 28.034 57.1253 26.702 55.2713 26.702C53.3453 26.702 52.0133 28.214 52.0133 30.338C52.0133 32.534 53.3453 33.956 55.3073 33.956ZM66.9419 35.234C64.1879 35.234 62.2799 33.2 62.2799 30.338C62.2799 27.458 64.1879 25.406 66.8339 25.406C68.7959 25.406 69.8399 26.666 70.1279 27.152H70.2359V25.64H71.6579V35H70.2899V33.524H70.1819C69.9479 33.866 68.9759 35.234 66.9419 35.234ZM67.0319 33.956C69.0659 33.956 70.2899 32.3 70.2899 30.338C70.2899 28.034 68.8499 26.702 66.9959 26.702C65.0699 26.702 63.7379 28.214 63.7379 30.338C63.7379 32.534 65.0699 33.956 67.0319 33.956ZM74.7245 35V25.64H76.1465V27.008H76.2545C76.6505 26.162 77.6585 25.406 79.1165 25.406C81.2945 25.406 82.6085 27.044 82.6085 29.114V35H81.1865V29.204C81.1865 27.71 80.0885 26.738 78.7745 26.738C77.2985 26.738 76.1465 27.872 76.1465 29.42V35H74.7245ZM86.4137 23.948C85.8197 23.948 85.3877 23.498 85.3877 22.904C85.3877 22.328 85.8197 21.878 86.4137 21.878C87.0257 21.878 87.4577 22.328 87.4577 22.904C87.4577 23.498 87.0257 23.948 86.4137 23.948ZM85.6757 35V25.64H87.0977V35H85.6757ZM89.6181 35V33.794L94.9281 26.954V26.846H89.7801V25.64H96.6561V26.846L91.3461 33.686V33.794H96.7461V35H89.6181ZM103.206 35.234C100.452 35.234 98.5436 33.2 98.5436 30.338C98.5436 27.458 100.452 25.406 103.098 25.406C105.06 25.406 106.104 26.666 106.392 27.152H106.5V25.64H107.922V35H106.554V33.524H106.446C106.212 33.866 105.24 35.234 103.206 35.234ZM103.296 33.956C105.33 33.956 106.554 32.3 106.554 30.338C106.554 28.034 105.114 26.702 103.26 26.702C101.334 26.702 100.002 28.214 100.002 30.338C100.002 32.534 101.334 33.956 103.296 33.956ZM115.074 35.234C112.248 35.234 110.268 33.092 110.268 30.32C110.268 27.548 112.302 25.406 115.056 25.406C117.09 25.406 118.98 26.63 119.484 28.718H118.008C117.63 27.494 116.442 26.702 115.092 26.702C113.094 26.702 111.744 28.286 111.744 30.32C111.744 32.426 113.166 33.938 115.128 33.938C116.478 33.938 117.684 33.146 118.044 31.922H119.502C119.016 34.01 117.108 35.234 115.074 35.234ZM122.765 23.948C122.171 23.948 121.739 23.498 121.739 22.904C121.739 22.328 122.171 21.878 122.765 21.878C123.377 21.878 123.809 22.328 123.809 22.904C123.809 23.498 123.377 23.948 122.765 23.948ZM122.027 35V25.64H123.449V35H122.027ZM129.948 24.02L131.028 21.626H132.684L131.082 24.02H129.948ZM130.668 35.234C127.86 35.234 125.79 33.164 125.79 30.32C125.79 27.494 127.896 25.406 130.686 25.406C133.512 25.406 135.564 27.512 135.564 30.32C135.564 33.128 133.476 35.234 130.668 35.234ZM130.668 33.938C132.684 33.938 134.106 32.408 134.106 30.32C134.106 28.25 132.684 26.702 130.668 26.702C128.652 26.702 127.248 28.268 127.248 30.32C127.248 32.426 128.67 33.938 130.668 33.938ZM138.076 35V25.64H139.498V27.008H139.606C140.002 26.162 141.01 25.406 142.468 25.406C144.646 25.406 145.96 27.044 145.96 29.114V35H144.538V29.204C144.538 27.71 143.44 26.738 142.126 26.738C140.65 26.738 139.498 27.872 139.498 29.42V35H138.076ZM153.442 36.944L158.896 21.5H160.21L154.756 36.944H153.442ZM173.649 35.234C169.905 35.234 167.151 32.444 167.151 28.7C167.151 24.992 169.887 22.166 173.631 22.166C176.529 22.166 178.725 23.876 179.553 26.252H177.933C177.267 24.614 175.755 23.534 173.631 23.534C170.661 23.534 168.663 25.748 168.663 28.7C168.663 31.688 170.697 33.866 173.667 33.866C176.241 33.866 178.257 32.174 178.347 29.654H173.235V28.376H179.985C180.003 32.93 177.051 35.234 173.649 35.234ZM186.474 35.234C183.612 35.234 181.794 33.128 181.794 30.32C181.794 27.332 183.828 25.406 186.384 25.406C189.228 25.406 190.92 27.494 190.92 30.194V30.824H183.288C183.36 32.696 184.566 33.938 186.492 33.938C187.734 33.938 188.922 33.344 189.354 32.246H190.83C190.308 33.992 188.67 35.234 186.474 35.234ZM183.324 29.564H189.408C189.282 27.692 187.968 26.702 186.384 26.702C184.818 26.702 183.468 27.836 183.324 29.564ZM196.543 35.234C194.329 35.234 193.069 34.028 192.907 32.282H194.293C194.455 33.398 195.247 33.992 196.615 33.992C198.019 33.992 198.793 33.308 198.793 32.354C198.793 29.726 193.195 31.724 193.195 28.016C193.195 26.432 194.617 25.406 196.579 25.406C198.307 25.406 199.747 26.414 199.891 28.106H198.523C198.397 27.224 197.731 26.63 196.489 26.63C195.319 26.63 194.563 27.206 194.563 28.016C194.563 30.392 200.179 28.412 200.179 32.282C200.179 34.046 198.721 35.234 196.543 35.234ZM206.628 35C204.9 35 203.838 34.064 203.838 32.174V26.846H202.074V25.64H203.478C203.73 25.64 203.928 25.478 203.928 25.172V22.922H205.26V25.64H208.14V26.846H205.26V32.156C205.26 33.164 205.638 33.758 206.718 33.758H208.014V35H206.628ZM211.394 23.948C210.8 23.948 210.368 23.498 210.368 22.904C210.368 22.328 210.8 21.878 211.394 21.878C212.006 21.878 212.438 22.328 212.438 22.904C212.438 23.498 212.006 23.948 211.394 23.948ZM210.656 35V25.64H212.078V35H210.656ZM218.577 24.02L219.657 21.626H221.313L219.711 24.02H218.577ZM219.297 35.234C216.489 35.234 214.419 33.164 214.419 30.32C214.419 27.494 216.525 25.406 219.315 25.406C222.141 25.406 224.193 27.512 224.193 30.32C224.193 33.128 222.105 35.234 219.297 35.234ZM219.297 33.938C221.313 33.938 222.735 32.408 222.735 30.32C222.735 28.25 221.313 26.702 219.297 26.702C217.281 26.702 215.877 28.268 215.877 30.32C215.877 32.426 217.299 33.938 219.297 33.938ZM226.705 35V25.64H228.127V27.008H228.235C228.631 26.162 229.639 25.406 231.097 25.406C233.275 25.406 234.589 27.044 234.589 29.114V35H233.167V29.204C233.167 27.71 232.069 26.738 230.755 26.738C229.279 26.738 228.127 27.872 228.127 29.42V35H226.705Z" fill="#191528"/>
<path d="M393.264 30.0607C393.85 29.4749 393.85 28.5251 393.264 27.9393L383.718 18.3934C383.132 17.8076 382.183 17.8076 381.597 18.3934C381.011 18.9792 381.011 19.9289 381.597 20.5147L390.082 29L381.597 37.4853C381.011 38.0711 381.011 39.0208 381.597 39.6066C382.183 40.1924 383.132 40.1924 383.718 39.6066L393.264 30.0607ZM289.039 30.5H392.203V27.5H289.039V30.5Z" fill="#191528"/>
<path d="M798.803 30.0607C799.389 29.4749 799.389 28.5251 798.803 27.9393L789.257 18.3934C788.672 17.8076 787.722 17.8076 787.136 18.3934C786.55 18.9792 786.55 19.9289 787.136 20.5147L795.621 29L787.136 37.4853C786.55 38.0711 786.55 39.0208 787.136 39.6066C787.722 40.1924 788.672 40.1924 789.257 39.6066L798.803 30.0607ZM689.242 30.5H797.743V27.5H689.242V30.5Z" fill="#191528"/>
<path d="M938.092 133.061C938.677 133.646 939.627 133.646 940.213 133.061L949.759 123.515C950.345 122.929 950.345 121.979 949.759 121.393C949.173 120.808 948.223 120.808 947.638 121.393L939.152 129.879L930.667 121.393C930.081 120.808 929.132 120.808 928.546 121.393C927.96 121.979 927.96 122.929 928.546 123.515L938.092 133.061ZM937.652 80L937.652 132L940.652 132L940.652 80L937.652 80Z" fill="#191528"/>
<path d="M130.564 261.061C131.15 261.646 132.1 261.646 132.686 261.061L142.232 251.515C142.817 250.929 142.817 249.979 142.232 249.393C141.646 248.808 140.696 248.808 140.11 249.393L131.625 257.879L123.14 249.393C122.554 248.808 121.604 248.808 121.018 249.393C120.433 249.979 120.433 250.929 121.018 251.515L130.564 261.061ZM130.125 175L130.125 260L133.125 260L133.125 175L130.125 175Z" fill="#191528"/>
<path d="M681.068 261.061C681.654 261.646 682.604 261.646 683.19 261.061L692.736 251.515C693.321 250.929 693.321 249.979 692.736 249.393C692.15 248.808 691.2 248.808 690.614 249.393L682.129 257.879L673.644 249.393C673.058 248.808 672.108 248.808 671.522 249.393C670.937 249.979 670.937 250.929 671.522 251.515L681.068 261.061ZM680.629 175L680.629 260L683.629 260L683.629 175L680.629 175Z" fill="#191528"/>
<path d="M681.068 882.061C681.654 882.646 682.604 882.646 683.19 882.061L692.736 872.515C693.321 871.929 693.321 870.979 692.736 870.393C692.15 869.808 691.2 869.808 690.614 870.393L682.129 878.879L673.644 870.393C673.058 869.808 672.108 869.808 671.522 870.393C670.937 870.979 670.937 871.929 671.522 872.515L681.068 882.061ZM680.629 829L680.629 881L683.629 881L683.629 829L680.629 829Z" fill="#191528"/>
<path d="M418.713 502.061C419.299 502.646 420.248 502.646 420.834 502.061L430.38 492.515C430.966 491.929 430.966 490.979 430.38 490.393C429.794 489.808 428.845 489.808 428.259 490.393L419.773 498.879L411.288 490.393C410.702 489.808 409.753 489.808 409.167 490.393C408.581 490.979 408.581 491.929 409.167 492.515L418.713 502.061ZM418.273 359L418.273 501L421.273 501L421.273 359L418.273 359Z" fill="#191528"/>
<path d="M681.068 502.061C681.654 502.646 682.604 502.646 683.19 502.061L692.736 492.515C693.321 491.929 693.321 490.979 692.736 490.393C692.15 489.808 691.2 489.808 690.614 490.393L682.129 498.879L673.644 490.393C673.058 489.808 672.108 489.808 671.522 490.393C670.937 490.979 670.937 491.929 671.522 492.515L681.068 502.061ZM680.629 325L680.629 501L683.629 501L683.629 325L680.629 325Z" fill="#191528"/>
<path d="M680.182 737.061C680.767 737.646 681.717 737.646 682.303 737.061L691.849 727.515C692.435 726.929 692.435 725.979 691.849 725.393C691.263 724.808 690.313 724.808 689.727 725.393L681.242 733.879L672.757 725.393C672.171 724.808 671.221 724.808 670.636 725.393C670.05 725.979 670.05 726.929 670.636 727.515L680.182 737.061ZM679.742 572L679.742 736L682.742 736L682.742 572L679.742 572Z" fill="#191528"/>
<path d="M943.428 502.061C944.013 502.646 944.963 502.646 945.549 502.061L955.095 492.515C955.681 491.929 955.681 490.979 955.095 490.393C954.509 489.808 953.559 489.808 952.974 490.393L944.488 498.879L936.003 490.393C935.417 489.808 934.467 489.808 933.882 490.393C933.296 490.979 933.296 491.929 933.882 492.515L943.428 502.061ZM942.988 359L942.988 501L945.988 501L945.988 359L942.988 359Z" fill="#191528"/>
<path d="M811.977 176.5L131.625 176.5" stroke="#191528" stroke-width="3"/>
<line x1="944.488" y1="360.5" x2="418.883" y2="360.5" stroke="#191528" stroke-width="3"/>
<line x1="943.598" y1="693.5" x2="417.993" y2="693.5" stroke="#191528" stroke-width="3"/>
<path d="M130.289 325L130.289 785" stroke="#191528" stroke-width="3"/>
<path d="M542.675 786.061C543.261 785.475 543.261 784.525 542.675 783.939L533.129 774.393C532.544 773.808 531.594 773.808 531.008 774.393C530.422 774.979 530.422 775.929 531.008 776.515L539.493 785L531.008 793.485C530.422 794.071 530.422 795.021 531.008 795.607C531.594 796.192 532.544 796.192 533.129 795.607L542.675 786.061ZM128.957 786.5L541.615 786.5L541.615 783.5L128.957 783.5L128.957 786.5Z" fill="#191528"/>
<line x1="417.383" y1="695" x2="417.383" y2="572" stroke="#191528" stroke-width="3"/>
<line x1="942.098" y1="692" x2="942.098" y2="572" stroke="#191528" stroke-width="3"/>
</svg>
